<svg width="150" height="87" viewBox="0 0 150 87" fill="none" xmlns="http://www.w3.org/2000/svg">
<path d="M1.49347 14V3.09091H8.58865V4.74751H3.46968V7.70916H8.2211V9.36577H3.46968V12.3434H8.63126V14H1.49347ZM12.0963 5.81818L13.7476 8.83842L15.4255 5.81818H17.4656L14.9993 9.90909L17.5082 14H15.4787L13.7476 11.0543L12.0324 14H9.98691L12.4798 9.90909L10.0508 5.81818H12.0963ZM22.2716 14.1598C21.4513 14.1598 20.7429 13.9893 20.1463 13.6484C19.5532 13.304 19.0969 12.8175 18.7773 12.1889C18.4577 11.5568 18.2979 10.8129 18.2979 9.95703C18.2979 9.11541 18.4577 8.37678 18.7773 7.74112C19.1005 7.10192 19.5514 6.60476 20.1303 6.24964C20.7091 5.89098 21.3892 5.71165 22.1704 5.71165C22.6747 5.71165 23.1505 5.79332 23.598 5.95668C24.049 6.11648 24.4467 6.36506 24.7911 6.70241C25.1392 7.03977 25.4126 7.46946 25.6115 7.99148C25.8103 8.50994 25.9098 9.12784 25.9098 9.84517V10.4364H19.2034V9.13672H24.0614C24.0578 8.7674 23.9779 8.43892 23.8217 8.15128C23.6654 7.86009 23.447 7.63104 23.1665 7.46413C22.8895 7.29723 22.5664 7.21378 22.197 7.21378C21.8029 7.21378 21.4566 7.30966 21.1583 7.50142C20.86 7.68963 20.6274 7.93821 20.4605 8.24716C20.2972 8.55256 20.2137 8.88814 20.2102 9.25391V10.3885C20.2102 10.8643 20.2972 11.2727 20.4712 11.6136C20.6452 11.951 20.8885 12.2102 21.201 12.3913C21.5134 12.5689 21.8792 12.6577 22.2983 12.6577C22.5788 12.6577 22.8327 12.6186 23.06 12.5405C23.2872 12.4588 23.4843 12.3398 23.6512 12.1836C23.8181 12.0273 23.9442 11.8338 24.0294 11.603L25.8299 11.8054C25.7162 12.2812 25.4996 12.6967 25.18 13.0518C24.8639 13.4034 24.4591 13.6768 23.9655 13.8722C23.4719 14.0639 22.9073 14.1598 22.2716 14.1598ZM31.11 14.1598C30.2932 14.1598 29.5918 13.9805 29.0059 13.6218C28.4235 13.2631 27.9743 12.7678 27.6582 12.1357C27.3457 11.5 27.1895 10.7685 27.1895 9.94105C27.1895 9.11009 27.3493 8.37678 27.6689 7.74112C27.9885 7.10192 28.4395 6.60476 29.0219 6.24964C29.6078 5.89098 30.3003 5.71165 31.0993 5.71165C31.7634 5.71165 32.3511 5.83416 32.8624 6.07919C33.3774 6.32067 33.7875 6.66335 34.0929 7.10724C34.3983 7.54759 34.5723 8.0625 34.6149 8.65199H32.7719C32.6973 8.25781 32.5198 7.92933 32.2392 7.66655C31.9622 7.40021 31.5911 7.26705 31.1259 7.26705C30.7318 7.26705 30.3855 7.37358 30.0872 7.58665C29.7889 7.79616 29.5563 8.09801 29.3894 8.49219C29.2261 8.88636 29.1444 9.35866 29.1444 9.90909C29.1444 10.4666 29.2261 10.946 29.3894 11.3473C29.5528 11.745 29.7818 12.0522 30.0766 12.2688C30.3749 12.4819 30.7247 12.5884 31.1259 12.5884C31.41 12.5884 31.6639 12.5352 31.8877 12.4286C32.1149 12.3185 32.3049 12.1605 32.4576 11.9545C32.6103 11.7486 32.7151 11.4982 32.7719 11.2035H34.6149C34.5688 11.7823 34.3983 12.2955 34.1036 12.7429C33.8088 13.1868 33.4075 13.5348 32.8997 13.7869C32.3919 14.0355 31.7953 14.1598 31.11 14.1598ZM41.4131 10.5589V5.81818H43.3414V14H41.4717V12.5458H41.3865C41.2018 13.0039 40.8982 13.3786 40.4756 13.6697C40.0566 13.9609 39.5399 14.1065 38.9256 14.1065C38.3893 14.1065 37.9153 13.9876 37.5033 13.7496C37.0949 13.5082 36.7753 13.1584 36.5445 12.7003C36.3137 12.2386 36.1983 11.6811 36.1983 11.0277V5.81818H38.1266V10.7294C38.1266 11.2479 38.2686 11.6598 38.5527 11.9652C38.8368 12.2706 39.2097 12.4233 39.6713 12.4233C39.9554 12.4233 40.2306 12.354 40.4969 12.2156C40.7633 12.0771 40.9817 11.8711 41.1521 11.5977C41.3261 11.3207 41.4131 10.9744 41.4131 10.5589ZM49.4098 5.81818V7.30966H44.7064V5.81818H49.4098ZM45.8676 3.85795H47.7959V11.5391C47.7959 11.7983 47.8349 11.9972 47.913 12.1357C47.9947 12.2706 48.1013 12.3629 48.2326 12.4126C48.364 12.4624 48.5096 12.4872 48.6694 12.4872C48.7902 12.4872 48.9003 12.4783 48.9997 12.4606C49.1027 12.4428 49.1808 12.4268 49.2341 12.4126L49.559 13.9201C49.456 13.9556 49.3086 13.9947 49.1169 14.0373C48.9287 14.0799 48.6978 14.1048 48.4244 14.1119C47.9415 14.1261 47.5064 14.0533 47.1194 13.8935C46.7323 13.7301 46.4251 13.478 46.1978 13.1371C45.9741 12.7962 45.864 12.37 45.8676 11.8587V3.85795ZM54.5568 14.1598C53.7365 14.1598 53.028 13.9893 52.4314 13.6484C51.8384 13.304 51.3821 12.8175 51.0625 12.1889C50.7429 11.5568 50.5831 10.8129 50.5831 9.95703C50.5831 9.11541 50.7429 8.37678 51.0625 7.74112C51.3856 7.10192 51.8366 6.60476 52.4154 6.24964C52.9943 5.89098 53.6743 5.71165 54.4556 5.71165C54.9598 5.71165 55.4357 5.79332 55.8831 5.95668C56.3341 6.11648 56.7318 6.36506 57.0763 6.70241C57.4243 7.03977 57.6978 7.46946 57.8966 7.99148C58.0955 8.50994 58.1949 9.12784 58.1949 9.84517V10.4364H51.4886V9.13672H56.3465C56.343 8.7674 56.2631 8.43892 56.1068 8.15128C55.9506 7.86009 55.7322 7.63104 55.4517 7.46413C55.1747 7.29723 54.8515 7.21378 54.4822 7.21378C54.088 7.21378 53.7418 7.30966 53.4435 7.50142C53.1452 7.68963 52.9126 7.93821 52.7457 8.24716C52.5823 8.55256 52.4989 8.88814 52.4953 9.25391V10.3885C52.4953 10.8643 52.5823 11.2727 52.7563 11.6136C52.9304 11.951 53.1736 12.2102 53.4861 12.3913C53.7986 12.5689 54.1644 12.6577 54.5834 12.6577C54.8639 12.6577 55.1179 12.6186 55.3451 12.5405C55.5724 12.4588 55.7695 12.3398 55.9364 12.1836C56.1033 12.0273 56.2294 11.8338 56.3146 11.603L58.115 11.8054C58.0014 12.2812 57.7848 12.6967 57.4652 13.0518C57.1491 13.4034 56.7443 13.6768 56.2507 13.8722C55.7571 14.0639 55.1924 14.1598 54.5568 14.1598ZM65.6084 3.09091V14H63.6321V3.09091H65.6084ZM69.5914 9.20597V14H67.6631V5.81818H69.5062V7.20845H69.6021C69.7903 6.75035 70.0903 6.38636 70.5023 6.11648C70.9177 5.84659 71.4309 5.71165 72.0417 5.71165C72.6063 5.71165 73.0981 5.83239 73.5172 6.07386C73.9398 6.31534 74.2665 6.66513 74.4973 7.12322C74.7317 7.58132 74.8471 8.13707 74.8435 8.79048V14H72.9153V9.08878C72.9153 8.5419 72.7732 8.11399 72.4891 7.80504C72.2086 7.49609 71.8197 7.34162 71.3226 7.34162C70.9852 7.34162 70.6851 7.41619 70.4224 7.56534C70.1631 7.71094 69.9589 7.92223 69.8098 8.19922C69.6642 8.47621 69.5914 8.81179 69.5914 9.20597ZM83.2704 7.98082L81.5126 8.17258C81.4628 7.99503 81.3758 7.82812 81.2516 7.67188C81.1308 7.51562 80.9675 7.38956 80.7615 7.29368C80.5555 7.1978 80.3034 7.14986 80.0051 7.14986C79.6038 7.14986 79.2665 7.23686 78.993 7.41087C78.7231 7.58487 78.59 7.81037 78.5935 8.08736C78.59 8.32528 78.677 8.51882 78.8545 8.66797C79.0356 8.81712 79.3339 8.93963 79.7494 9.03551L81.145 9.33381C81.9192 9.50071 82.4945 9.76527 82.8709 10.1275C83.2508 10.4897 83.4426 10.9638 83.4462 11.5497C83.4426 12.0646 83.2917 12.5192 82.9934 12.9134C82.6986 13.304 82.2885 13.6094 81.7629 13.8295C81.2373 14.0497 80.6337 14.1598 79.9518 14.1598C78.9504 14.1598 78.1443 13.9503 77.5335 13.5312C76.9227 13.1087 76.5587 12.521 76.4415 11.7681L78.3219 11.587C78.4071 11.9563 78.5882 12.2351 78.8652 12.4233C79.1422 12.6115 79.5026 12.7056 79.9465 12.7056C80.4046 12.7056 80.7722 12.6115 81.0491 12.4233C81.3297 12.2351 81.4699 12.0025 81.4699 11.7255C81.4699 11.4911 81.3794 11.2976 81.1983 11.1449C81.0207 10.9922 80.7437 10.875 80.3673 10.7933L78.9717 10.5004C78.1869 10.337 77.6063 10.0618 77.2299 9.67472C76.8535 9.28409 76.667 8.79048 76.6706 8.19389C76.667 7.68963 76.8038 7.25284 77.0807 6.88352C77.3613 6.51065 77.7501 6.22301 78.2473 6.0206C78.748 5.81463 79.3251 5.71165 79.9785 5.71165C80.9373 5.71165 81.6919 5.91584 82.2423 6.32422C82.7963 6.7326 83.139 7.2848 83.2704 7.98082ZM89.1218 5.81818V7.30966H84.4183V5.81818H89.1218ZM85.5795 3.85795H87.5078V11.5391C87.5078 11.7983 87.5468 11.9972 87.625 12.1357C87.7066 12.2706 87.8132 12.3629 87.9446 12.4126C88.076 12.4624 88.2215 12.4872 88.3813 12.4872C88.5021 12.4872 88.6122 12.4783 88.7116 12.4606C88.8146 12.4428 88.8927 12.4268 88.946 12.4126L89.2709 13.9201C89.1679 13.9556 89.0206 13.9947 88.8288 14.0373C88.6406 14.0799 88.4098 14.1048 88.1363 14.1119C87.6534 14.1261 87.2184 14.0533 86.8313 13.8935C86.4442 13.7301 86.137 13.478 85.9098 13.1371C85.686 12.7962 85.5759 12.37 85.5795 11.8587V3.85795ZM90.7344 14V5.81818H92.6041V7.18182H92.6893C92.8385 6.70952 93.0941 6.34553 93.4564 6.08984C93.8221 5.83061 94.2394 5.70099 94.7081 5.70099C94.8147 5.70099 94.9336 5.70632 95.065 5.71697C95.2 5.72408 95.3118 5.73651 95.4006 5.75426V7.52805C95.3189 7.49964 95.1893 7.47479 95.0118 7.45348C94.8378 7.42862 94.6691 7.41619 94.5057 7.41619C94.1542 7.41619 93.8381 7.49254 93.5576 7.64524C93.2806 7.79439 93.0622 8.00213 92.9024 8.26847C92.7426 8.5348 92.6627 8.84197 92.6627 9.18999V14H90.7344ZM101.897 10.5589V5.81818H103.825V14H101.955V12.5458H101.87C101.685 13.0039 101.382 13.3786 100.959 13.6697C100.54 13.9609 100.023 14.1065 99.409 14.1065C98.8727 14.1065 98.3987 13.9876 97.9867 13.7496C97.5783 13.5082 97.2587 13.1584 97.0279 12.7003C96.7971 12.2386 96.6817 11.6811 96.6817 11.0277V5.81818H98.61V10.7294C98.61 11.2479 98.752 11.6598 99.0361 11.9652C99.3202 12.2706 99.693 12.4233 100.155 12.4233C100.439 12.4233 100.714 12.354 100.98 12.2156C101.247 12.0771 101.465 11.8711 101.636 11.5977C101.81 11.3207 101.897 10.9744 101.897 10.5589ZM109.377 14.1598C108.56 14.1598 107.858 13.9805 107.273 13.6218C106.69 13.2631 106.241 12.7678 105.925 12.1357C105.612 11.5 105.456 10.7685 105.456 9.94105C105.456 9.11009 105.616 8.37678 105.936 7.74112C106.255 7.10192 106.706 6.60476 107.288 6.24964C107.874 5.89098 108.567 5.71165 109.366 5.71165C110.03 5.71165 110.618 5.83416 111.129 6.07919C111.644 6.32067 112.054 6.66335 112.36 7.10724C112.665 7.54759 112.839 8.0625 112.882 8.65199H111.038C110.964 8.25781 110.786 7.92933 110.506 7.66655C110.229 7.40021 109.858 7.26705 109.393 7.26705C108.998 7.26705 108.652 7.37358 108.354 7.58665C108.056 7.79616 107.823 8.09801 107.656 8.49219C107.493 8.88636 107.411 9.35866 107.411 9.90909C107.411 10.4666 107.493 10.946 107.656 11.3473C107.819 11.745 108.048 12.0522 108.343 12.2688C108.641 12.4819 108.991 12.5884 109.393 12.5884C109.677 12.5884 109.931 12.5352 110.154 12.4286C110.382 12.3185 110.572 12.1605 110.724 11.9545C110.877 11.7486 110.982 11.4982 111.038 11.2035H112.882C112.835 11.7823 112.665 12.2955 112.37 12.7429C112.075 13.1868 111.674 13.5348 111.166 13.7869C110.659 14.0355 110.062 14.1598 109.377 14.1598ZM118.55 5.81818V7.30966H113.847V5.81818H118.55ZM115.008 3.85795H116.936V11.5391C116.936 11.7983 116.976 11.9972 117.054 12.1357C117.135 12.2706 117.242 12.3629 117.373 12.4126C117.505 12.4624 117.65 12.4872 117.81 12.4872C117.931 12.4872 118.041 12.4783 118.14 12.4606C118.243 12.4428 118.321 12.4268 118.375 12.4126L118.7 13.9201C118.597 13.9556 118.449 13.9947 118.258 14.0373C118.069 14.0799 117.838 14.1048 117.565 14.1119C117.082 14.1261 116.647 14.0533 116.26 13.8935C115.873 13.7301 115.566 13.478 115.338 13.1371C115.115 12.7962 115.005 12.37 115.008 11.8587V3.85795ZM120.163 14V5.81818H122.091V14H120.163ZM121.133 4.65696C120.827 4.65696 120.564 4.55575 120.344 4.35334C120.124 4.14737 120.014 3.90057 120.014 3.61293C120.014 3.32173 120.124 3.07493 120.344 2.87251C120.564 2.66655 120.827 2.56357 121.133 2.56357C121.442 2.56357 121.704 2.66655 121.921 2.87251C122.141 3.07493 122.251 3.32173 122.251 3.61293C122.251 3.90057 122.141 4.14737 121.921 4.35334C121.704 4.55575 121.442 4.65696 121.133 4.65696ZM127.643 14.1598C126.844 14.1598 126.152 13.984 125.566 13.6325C124.98 13.2809 124.525 12.7891 124.202 12.157C123.883 11.5249 123.723 10.7862 123.723 9.94105C123.723 9.09588 123.883 8.35547 124.202 7.71982C124.525 7.08416 124.98 6.59055 125.566 6.23899C126.152 5.88743 126.844 5.71165 127.643 5.71165C128.442 5.71165 129.135 5.88743 129.721 6.23899C130.307 6.59055 130.759 7.08416 131.079 7.71982C131.402 8.35547 131.564 9.09588 131.564 9.94105C131.564 10.7862 131.402 11.5249 131.079 12.157C130.759 12.7891 130.307 13.2809 129.721 13.6325C129.135 13.984 128.442 14.1598 127.643 14.1598ZM127.654 12.6151C128.087 12.6151 128.449 12.4961 128.74 12.2582C129.032 12.0167 129.248 11.6935 129.39 11.2887C129.536 10.8839 129.609 10.4329 129.609 9.93572C129.609 9.43501 129.536 8.98224 129.39 8.57741C129.248 8.16903 129.032 7.84411 128.74 7.60263C128.449 7.36115 128.087 7.24041 127.654 7.24041C127.21 7.24041 126.841 7.36115 126.546 7.60263C126.255 7.84411 126.036 8.16903 125.891 8.57741C125.749 8.98224 125.678 9.43501 125.678 9.93572C125.678 10.4329 125.749 10.8839 125.891 11.2887C126.036 11.6935 126.255 12.0167 126.546 12.2582C126.841 12.4961 127.21 12.6151 127.654 12.6151ZM135.129 9.20597V14H133.2V5.81818H135.043V7.20845H135.139C135.327 6.75035 135.627 6.38636 136.039 6.11648C136.455 5.84659 136.968 5.71165 137.579 5.71165C138.143 5.71165 138.635 5.83239 139.054 6.07386C139.477 6.31534 139.804 6.66513 140.034 7.12322C140.269 7.58132 140.384 8.13707 140.381 8.79048V14H138.452V9.08878C138.452 8.5419 138.31 8.11399 138.026 7.80504C137.746 7.49609 137.357 7.34162 136.86 7.34162C136.522 7.34162 136.222 7.41619 135.959 7.56534C135.7 7.71094 135.496 7.92223 135.347 8.19922C135.201 8.47621 135.129 8.81179 135.129 9.20597ZM148.807 7.98082L147.05 8.17258C147 7.99503 146.913 7.82812 146.789 7.67188C146.668 7.51562 146.505 7.38956 146.299 7.29368C146.093 7.1978 145.841 7.14986 145.542 7.14986C145.141 7.14986 144.804 7.23686 144.53 7.41087C144.26 7.58487 144.127 7.81037 144.131 8.08736C144.127 8.32528 144.214 8.51882 144.392 8.66797C144.573 8.81712 144.871 8.93963 145.287 9.03551L146.682 9.33381C147.456 9.50071 148.032 9.76527 148.408 10.1275C148.788 10.4897 148.98 10.9638 148.983 11.5497C148.98 12.0646 148.829 12.5192 148.53 12.9134C148.236 13.304 147.826 13.6094 147.3 13.8295C146.774 14.0497 146.171 14.1598 145.489 14.1598C144.488 14.1598 143.681 13.9503 143.071 13.5312C142.46 13.1087 142.096 12.521 141.979 11.7681L143.859 11.587C143.944 11.9563 144.125 12.2351 144.402 12.4233C144.679 12.6115 145.04 12.7056 145.484 12.7056C145.942 12.7056 146.309 12.6115 146.586 12.4233C146.867 12.2351 147.007 12.0025 147.007 11.7255C147.007 11.4911 146.917 11.2976 146.735 11.1449C146.558 10.9922 146.281 10.875 145.904 10.7933L144.509 10.5004C143.724 10.337 143.143 10.0618 142.767 9.67472C142.391 9.28409 142.204 8.79048 142.208 8.19389C142.204 7.68963 142.341 7.25284 142.618 6.88352C142.898 6.51065 143.287 6.22301 143.784 6.0206C144.285 5.81463 144.862 5.71165 145.516 5.71165C146.474 5.71165 147.229 5.91584 147.779 6.32422C148.333 6.7326 148.676 7.2848 148.807 7.98082Z" fill="black"/>
<path d="M12.4841 36.0909V47H10.5079V38.0138H10.4439L7.89245 39.6438V37.8327L10.6037 36.0909H12.4841ZM17.86 47.1172C17.5369 47.1172 17.2599 47.0036 17.0291 46.7763C16.7983 46.549 16.6846 46.272 16.6882 45.9453C16.6846 45.6257 16.7983 45.3523 17.0291 45.125C17.2599 44.8977 17.5369 44.7841 17.86 44.7841C18.1725 44.7841 18.4442 44.8977 18.675 45.125C18.9094 45.3523 19.0284 45.6257 19.0319 45.9453C19.0284 46.1619 18.9716 46.359 18.8615 46.5366C18.7549 46.7141 18.6129 46.8562 18.4353 46.9627C18.2613 47.0657 18.0696 47.1172 17.86 47.1172ZM26.076 47V36.0909H28.0522V40.7092H33.1072V36.0909H35.0888V47H33.1072V42.3658H28.0522V47H26.076ZM39.5073 47.1651C38.9888 47.1651 38.5218 47.0728 38.1064 46.8881C37.6944 46.6999 37.3677 46.4229 37.1262 46.0572C36.8883 45.6914 36.7694 45.2404 36.7694 44.7042C36.7694 44.2425 36.8546 43.8608 37.025 43.5589C37.1955 43.2571 37.4281 43.0156 37.7228 42.8345C38.0176 42.6534 38.3496 42.5167 38.7189 42.4244C39.0918 42.3285 39.4771 42.2592 39.8748 42.2166C40.3542 42.1669 40.7431 42.1225 41.0414 42.0835C41.3397 42.0408 41.5563 41.9769 41.6912 41.8917C41.8297 41.8029 41.899 41.6662 41.899 41.4815V41.4496C41.899 41.0483 41.78 40.7376 41.5421 40.5174C41.3042 40.2972 40.9615 40.1871 40.514 40.1871C40.0417 40.1871 39.6671 40.2901 39.3901 40.4961C39.1167 40.7021 38.932 40.9453 38.8361 41.2259L37.0357 40.9702C37.1777 40.473 37.4121 40.0575 37.7388 39.7237C38.0655 39.3864 38.465 39.1342 38.9373 38.9673C39.4096 38.7969 39.9316 38.7116 40.5034 38.7116C40.8975 38.7116 41.29 38.7578 41.6806 38.8501C42.0712 38.9425 42.4281 39.0952 42.7512 39.3082C43.0744 39.5178 43.3336 39.8036 43.5289 40.1658C43.7278 40.5281 43.8272 40.9808 43.8272 41.5241V47H41.9735V45.8761H41.9096C41.7924 46.1033 41.6273 46.3164 41.4142 46.5153C41.2047 46.7106 40.9402 46.8686 40.6206 46.9893C40.3045 47.1065 39.9334 47.1651 39.5073 47.1651ZM40.008 45.7482C40.3951 45.7482 40.7306 45.6719 41.0147 45.5192C41.2988 45.3629 41.5172 45.157 41.6699 44.9013C41.8262 44.6456 41.9043 44.3668 41.9043 44.065V43.1009C41.8439 43.1506 41.7409 43.1967 41.5953 43.2393C41.4533 43.282 41.2935 43.3192 41.1159 43.3512C40.9384 43.3832 40.7626 43.4116 40.5886 43.4364C40.4146 43.4613 40.2637 43.4826 40.1358 43.5004C39.8482 43.5394 39.5907 43.6033 39.3635 43.6921C39.1362 43.7809 38.9569 43.9052 38.8255 44.065C38.6941 44.2212 38.6284 44.4237 38.6284 44.6722C38.6284 45.0273 38.758 45.2955 39.0172 45.4766C39.2765 45.6577 39.6067 45.7482 40.008 45.7482ZM47.6944 42.206V47H45.7662V38.8182H47.6092V40.2085H47.7051C47.8933 39.7504 48.1934 39.3864 48.6053 39.1165C49.0208 38.8466 49.5339 38.7116 50.1447 38.7116C50.7093 38.7116 51.2012 38.8324 51.6202 39.0739C52.0428 39.3153 52.3695 39.6651 52.6003 40.1232C52.8347 40.5813 52.9501 41.1371 52.9466 41.7905V47H51.0183V42.0888C51.0183 41.5419 50.8762 41.114 50.5922 40.805C50.3116 40.4961 49.9228 40.3416 49.4256 40.3416C49.0882 40.3416 48.7882 40.4162 48.5254 40.5653C48.2662 40.7109 48.062 40.9222 47.9128 41.1992C47.7672 41.4762 47.6944 41.8118 47.6944 42.206ZM57.943 47.1438C57.3002 47.1438 56.725 46.9787 56.2172 46.6484C55.7093 46.3182 55.3081 45.8388 55.0133 45.2102C54.7186 44.5817 54.5712 43.8182 54.5712 42.9197C54.5712 42.0107 54.7203 41.2436 55.0186 40.6186C55.3205 39.9901 55.7271 39.516 56.2385 39.1964C56.7498 38.8732 57.3198 38.7116 57.9483 38.7116C58.4277 38.7116 58.8219 38.7933 59.1309 38.9567C59.4398 39.1165 59.6848 39.31 59.8659 39.5373C60.0471 39.761 60.1873 39.9723 60.2868 40.1712H60.3667V36.0909H62.3002V47H60.4039V45.7109H60.2868C60.1873 45.9098 60.0435 46.1211 59.8553 46.3448C59.6671 46.565 59.4185 46.7532 59.1096 46.9094C58.8006 47.0657 58.4118 47.1438 57.943 47.1438ZM58.481 45.5618C58.8894 45.5618 59.2374 45.4517 59.525 45.2315C59.8127 45.0078 60.0311 44.6971 60.1802 44.2994C60.3294 43.9016 60.4039 43.4382 60.4039 42.9091C60.4039 42.38 60.3294 41.9201 60.1802 41.5295C60.0346 41.1388 59.818 40.8352 59.5304 40.6186C59.2463 40.402 58.8965 40.2937 58.481 40.2937C58.0513 40.2937 57.6926 40.4055 57.405 40.6293C57.1174 40.853 56.9007 41.1619 56.7551 41.5561C56.6096 41.9503 56.5368 42.4013 56.5368 42.9091C56.5368 43.4205 56.6096 43.8768 56.7551 44.2781C56.9043 44.6758 57.1227 44.9901 57.4103 45.2209C57.7015 45.4482 58.0584 45.5618 58.481 45.5618ZM66.2833 36.0909V47H64.355V36.0909H66.2833ZM71.8883 47.1598C71.068 47.1598 70.3596 46.9893 69.763 46.6484C69.1699 46.304 68.7136 45.8175 68.394 45.1889C68.0744 44.5568 67.9146 43.8129 67.9146 42.957C67.9146 42.1154 68.0744 41.3768 68.394 40.7411C68.7172 40.1019 69.1681 39.6048 69.747 39.2496C70.3258 38.891 71.0059 38.7116 71.7871 38.7116C72.2914 38.7116 72.7672 38.7933 73.2147 38.9567C73.6657 39.1165 74.0634 39.3651 74.4078 39.7024C74.7559 40.0398 75.0293 40.4695 75.2282 40.9915C75.427 41.5099 75.5265 42.1278 75.5265 42.8452V43.4364H68.8201V42.1367H73.6781C73.6745 41.7674 73.5946 41.4389 73.4384 41.1513C73.2821 40.8601 73.0637 40.631 72.7832 40.4641C72.5062 40.2972 72.1831 40.2138 71.8137 40.2138C71.4196 40.2138 71.0733 40.3097 70.775 40.5014C70.4767 40.6896 70.2441 40.9382 70.0772 41.2472C69.9139 41.5526 69.8304 41.8881 69.8269 42.2539V43.3885C69.8269 43.8643 69.9139 44.2727 70.0879 44.6136C70.2619 44.951 70.5051 45.2102 70.8176 45.3913C71.1301 45.5689 71.4959 45.6577 71.915 45.6577C72.1955 45.6577 72.4494 45.6186 72.6767 45.5405C72.9039 45.4588 73.101 45.3398 73.2679 45.1836C73.4348 45.0273 73.5609 44.8338 73.6461 44.603L75.4466 44.8054C75.3329 45.2812 75.1163 45.6967 74.7967 46.0518C74.4806 46.4034 74.0758 46.6768 73.5822 46.8722C73.0886 47.0639 72.524 47.1598 71.8883 47.1598ZM86.9909 41.5455C86.9909 42.7209 86.7707 43.7276 86.3303 44.5657C85.8936 45.4002 85.297 46.0394 84.5406 46.4833C83.7877 46.9272 82.9337 47.1491 81.9784 47.1491C81.0232 47.1491 80.1673 46.9272 79.411 46.4833C78.6581 46.0359 78.0615 45.3949 77.6212 44.5604C77.1844 43.7223 76.966 42.7173 76.966 41.5455C76.966 40.37 77.1844 39.3651 77.6212 38.5305C78.0615 37.6925 78.6581 37.0515 79.411 36.6076C80.1673 36.1637 81.0232 35.9418 81.9784 35.9418C82.9337 35.9418 83.7877 36.1637 84.5406 36.6076C85.297 37.0515 85.8936 37.6925 86.3303 38.5305C86.7707 39.3651 86.9909 40.37 86.9909 41.5455ZM85.004 41.5455C85.004 40.718 84.8744 40.0202 84.6151 39.4521C84.3595 38.8803 84.0044 38.4489 83.5498 38.1577C83.0953 37.8629 82.5715 37.7156 81.9784 37.7156C81.3854 37.7156 80.8616 37.8629 80.407 38.1577C79.9525 38.4489 79.5956 38.8803 79.3364 39.4521C79.0807 40.0202 78.9529 40.718 78.9529 41.5455C78.9529 42.3729 79.0807 43.0724 79.3364 43.6442C79.5956 44.2124 79.9525 44.6438 80.407 44.9386C80.8616 45.2298 81.3854 45.3754 81.9784 45.3754C82.5715 45.3754 83.0953 45.2298 83.5498 44.9386C84.0044 44.6438 84.3595 44.2124 84.6151 43.6442C84.8744 43.0724 85.004 42.3729 85.004 41.5455ZM88.774 50.0682V38.8182H90.6703V40.1712H90.7821C90.8816 39.9723 91.0218 39.761 91.2029 39.5373C91.3841 39.31 91.6291 39.1165 91.938 38.9567C92.247 38.7933 92.6412 38.7116 93.1206 38.7116C93.7527 38.7116 94.3226 38.8732 94.8304 39.1964C95.3418 39.516 95.7466 39.9901 96.0449 40.6186C96.3468 41.2436 96.4977 42.0107 96.4977 42.9197C96.4977 43.8182 96.3503 44.5817 96.0556 45.2102C95.7608 45.8388 95.3596 46.3182 94.8517 46.6484C94.3439 46.9787 93.7686 47.1438 93.1259 47.1438C92.6571 47.1438 92.2683 47.0657 91.9593 46.9094C91.6504 46.7532 91.4018 46.565 91.2136 46.3448C91.0289 46.1211 90.8851 45.9098 90.7821 45.7109H90.7022V50.0682H88.774ZM90.665 42.9091C90.665 43.4382 90.7395 43.9016 90.8887 44.2994C91.0414 44.6971 91.2598 45.0078 91.5439 45.2315C91.8315 45.4517 92.1795 45.5618 92.5879 45.5618C93.014 45.5618 93.3709 45.4482 93.6586 45.2209C93.9462 44.9901 94.1628 44.6758 94.3084 44.2781C94.4576 43.8768 94.5321 43.4205 94.5321 42.9091C94.5321 42.4013 94.4593 41.9503 94.3137 41.5561C94.1681 41.1619 93.9515 40.853 93.6639 40.6293C93.3762 40.4055 93.0176 40.2937 92.5879 40.2937C92.176 40.2937 91.8262 40.402 91.5385 40.6186C91.2509 40.8352 91.0325 41.1388 90.8833 41.5295C90.7377 41.9201 90.665 42.38 90.665 42.9091ZM104.616 40.9808L102.858 41.1726C102.808 40.995 102.721 40.8281 102.597 40.6719C102.476 40.5156 102.313 40.3896 102.107 40.2937C101.901 40.1978 101.649 40.1499 101.35 40.1499C100.949 40.1499 100.612 40.2369 100.338 40.4109C100.068 40.5849 99.9352 40.8104 99.9387 41.0874C99.9352 41.3253 100.022 41.5188 100.2 41.668C100.381 41.8171 100.679 41.9396 101.095 42.0355L102.49 42.3338C103.264 42.5007 103.84 42.7653 104.216 43.1275C104.596 43.4897 104.788 43.9638 104.791 44.5497C104.788 45.0646 104.637 45.5192 104.339 45.9134C104.044 46.304 103.634 46.6094 103.108 46.8295C102.583 47.0497 101.979 47.1598 101.297 47.1598C100.296 47.1598 99.4895 46.9503 98.8787 46.5312C98.2679 46.1087 97.9039 45.521 97.7868 44.7681L99.6671 44.587C99.7523 44.9563 99.9334 45.2351 100.21 45.4233C100.487 45.6115 100.848 45.7056 101.292 45.7056C101.75 45.7056 102.117 45.6115 102.394 45.4233C102.675 45.2351 102.815 45.0025 102.815 44.7255C102.815 44.4911 102.725 44.2976 102.544 44.1449C102.366 43.9922 102.089 43.875 101.713 43.7933L100.317 43.5004C99.5321 43.337 98.9515 43.0618 98.5751 42.6747C98.1987 42.2841 98.0123 41.7905 98.0158 41.1939C98.0123 40.6896 98.149 40.2528 98.426 39.8835C98.7065 39.5107 99.0953 39.223 99.5925 39.0206C100.093 38.8146 100.67 38.7116 101.324 38.7116C102.282 38.7116 103.037 38.9158 103.588 39.3242C104.142 39.7326 104.484 40.2848 104.616 40.9808ZM6.92299 65V63.5724L10.7103 59.8597C11.0725 59.494 11.3743 59.169 11.6158 58.8849C11.8573 58.6009 12.0384 58.3256 12.1591 58.0593C12.2799 57.793 12.3402 57.5089 12.3402 57.207C12.3402 56.8626 12.2621 56.5678 12.1059 56.3228C11.9496 56.0742 11.7348 55.8825 11.4613 55.7475C11.1879 55.6126 10.8772 55.5451 10.5292 55.5451C10.1705 55.5451 9.85623 55.6197 9.58634 55.7688C9.31646 55.9144 9.10694 56.1222 8.95779 56.392C8.8122 56.6619 8.7394 56.9833 8.7394 57.3562H6.85907C6.85907 56.6637 7.0171 56.0618 7.33315 55.5504C7.6492 55.0391 8.08421 54.6431 8.63819 54.3626C9.19572 54.082 9.83492 53.9418 10.5558 53.9418C11.2873 53.9418 11.9301 54.0785 12.4841 54.3519C13.038 54.6254 13.4677 55 13.7731 55.4759C14.0821 55.9517 14.2366 56.495 14.2366 57.1058C14.2366 57.5142 14.1584 57.9155 14.0022 58.3097C13.8459 58.7038 13.5707 59.1406 13.1765 59.62C12.7859 60.0994 12.2373 60.68 11.5306 61.3619L9.65026 63.2741V63.3487H14.4017V65H6.92299ZM17.86 65.1172C17.5369 65.1172 17.2599 65.0036 17.0291 64.7763C16.7983 64.549 16.6846 64.272 16.6882 63.9453C16.6846 63.6257 16.7983 63.3523 17.0291 63.125C17.2599 62.8977 17.5369 62.7841 17.86 62.7841C18.1725 62.7841 18.4442 62.8977 18.675 63.125C18.9094 63.3523 19.0284 63.6257 19.0319 63.9453C19.0284 64.1619 18.9716 64.359 18.8615 64.5366C18.7549 64.7141 18.6129 64.8562 18.4353 64.9627C18.2613 65.0657 18.0696 65.1172 17.86 65.1172ZM27.5355 54.0909L30.3746 62.6776H30.4865L33.3203 54.0909H35.4936L31.6477 65H29.2081L25.3675 54.0909H27.5355ZM38.3501 65.1651C37.8316 65.1651 37.3646 65.0728 36.9491 64.8881C36.5372 64.6999 36.2105 64.4229 35.969 64.0572C35.7311 63.6914 35.6121 63.2404 35.6121 62.7042C35.6121 62.2425 35.6974 61.8608 35.8678 61.5589C36.0383 61.2571 36.2709 61.0156 36.5656 60.8345C36.8604 60.6534 37.1924 60.5167 37.5617 60.4244C37.9346 60.3285 38.3199 60.2592 38.7176 60.2166C39.197 60.1669 39.5858 60.1225 39.8841 60.0835C40.1824 60.0408 40.3991 59.9769 40.534 59.8917C40.6725 59.8029 40.7417 59.6662 40.7417 59.4815V59.4496C40.7417 59.0483 40.6228 58.7376 40.3849 58.5174C40.1469 58.2972 39.8042 58.1871 39.3568 58.1871C38.8845 58.1871 38.5099 58.2901 38.2329 58.4961C37.9594 58.7021 37.7748 58.9453 37.6789 59.2259L35.8785 58.9702C36.0205 58.473 36.2549 58.0575 36.5816 57.7237C36.9083 57.3864 37.3078 57.1342 37.7801 56.9673C38.2524 56.7969 38.7744 56.7116 39.3461 56.7116C39.7403 56.7116 40.1327 56.7578 40.5233 56.8501C40.914 56.9425 41.2709 57.0952 41.594 57.3082C41.9172 57.5178 42.1764 57.8036 42.3717 58.1658C42.5706 58.5281 42.67 58.9808 42.67 59.5241V65H40.8163V63.8761H40.7524C40.6352 64.1033 40.4701 64.3164 40.257 64.5153C40.0475 64.7106 39.7829 64.8686 39.4633 64.9893C39.1473 65.1065 38.7762 65.1651 38.3501 65.1651ZM38.8508 63.7482C39.2378 63.7482 39.5734 63.6719 39.8575 63.5192C40.1416 63.3629 40.36 63.157 40.5127 62.9013C40.6689 62.6456 40.7471 62.3668 40.7471 62.065V61.1009C40.6867 61.1506 40.5837 61.1967 40.4381 61.2393C40.2961 61.282 40.1363 61.3192 39.9587 61.3512C39.7812 61.3832 39.6054 61.4116 39.4314 61.4364C39.2574 61.4613 39.1064 61.4826 38.9786 61.5004C38.691 61.5394 38.4335 61.6033 38.2062 61.6921C37.979 61.7809 37.7996 61.9052 37.6682 62.065C37.5368 62.2212 37.4711 62.4237 37.4711 62.6722C37.4711 63.0273 37.6008 63.2955 37.86 63.4766C38.1192 63.6577 38.4495 63.7482 38.8508 63.7482ZM46.5372 54.0909V65H44.6089V54.0909H46.5372ZM48.5201 65V56.8182H50.4483V65H48.5201ZM49.4895 55.657C49.1841 55.657 48.9213 55.5558 48.7012 55.3533C48.481 55.1474 48.3709 54.9006 48.3709 54.6129C48.3709 54.3217 48.481 54.0749 48.7012 53.8725C48.9213 53.6665 49.1841 53.5636 49.4895 53.5636C49.7985 53.5636 50.0613 53.6665 50.2779 53.8725C50.498 54.0749 50.6081 54.3217 50.6081 54.6129C50.6081 54.9006 50.498 55.1474 50.2779 55.3533C50.0613 55.5558 49.7985 55.657 49.4895 55.657ZM55.4674 65.1438C54.8247 65.1438 54.2494 64.9787 53.7416 64.6484C53.2338 64.3182 52.8325 63.8388 52.5377 63.2102C52.243 62.5817 52.0956 61.8182 52.0956 60.9197C52.0956 60.0107 52.2448 59.2436 52.5431 58.6186C52.8449 57.9901 53.2515 57.516 53.7629 57.1964C54.2742 56.8732 54.8442 56.7116 55.4727 56.7116C55.9521 56.7116 56.3463 56.7933 56.6553 56.9567C56.9642 57.1165 57.2093 57.31 57.3904 57.5373C57.5715 57.761 57.7117 57.9723 57.8112 58.1712H57.8911V54.0909H59.8247V65H57.9284V63.7109H57.8112C57.7117 63.9098 57.5679 64.1211 57.3797 64.3448C57.1915 64.565 56.9429 64.7532 56.634 64.9094C56.325 65.0657 55.9362 65.1438 55.4674 65.1438ZM56.0054 63.5618C56.4138 63.5618 56.7618 63.4517 57.0494 63.2315C57.3371 63.0078 57.5555 62.6971 57.7046 62.2994C57.8538 61.9016 57.9284 61.4382 57.9284 60.9091C57.9284 60.38 57.8538 59.9201 57.7046 59.5295C57.559 59.1388 57.3424 58.8352 57.0548 58.6186C56.7707 58.402 56.4209 58.2937 56.0054 58.2937C55.5757 58.2937 55.2171 58.4055 54.9294 58.6293C54.6418 58.853 54.4252 59.1619 54.2796 59.5561C54.134 59.9503 54.0612 60.4013 54.0612 60.9091C54.0612 61.4205 54.134 61.8768 54.2796 62.2781C54.4287 62.6758 54.6471 62.9901 54.9347 63.2209C55.2259 63.4482 55.5828 63.5618 56.0054 63.5618ZM64.2338 65.1651C63.7154 65.1651 63.2484 65.0728 62.8329 64.8881C62.421 64.6999 62.0943 64.4229 61.8528 64.0572C61.6149 63.6914 61.4959 63.2404 61.4959 62.7042C61.4959 62.2425 61.5811 61.8608 61.7516 61.5589C61.9221 61.2571 62.1547 61.0156 62.4494 60.8345C62.7441 60.6534 63.0762 60.5167 63.4455 60.4244C63.8184 60.3285 64.2037 60.2592 64.6014 60.2166C65.0808 60.1669 65.4696 60.1225 65.7679 60.0835C66.0662 60.0408 66.2828 59.9769 66.4178 59.8917C66.5563 59.8029 66.6255 59.6662 66.6255 59.4815V59.4496C66.6255 59.0483 66.5066 58.7376 66.2686 58.5174C66.0307 58.2972 65.688 58.1871 65.2406 58.1871C64.7683 58.1871 64.3936 58.2901 64.1167 58.4961C63.8432 58.7021 63.6586 58.9453 63.5627 59.2259L61.7623 58.9702C61.9043 58.473 62.1387 58.0575 62.4654 57.7237C62.7921 57.3864 63.1916 57.1342 63.6639 56.9673C64.1362 56.7969 64.6582 56.7116 65.2299 56.7116C65.6241 56.7116 66.0165 56.7578 66.4071 56.8501C66.7978 56.9425 67.1547 57.0952 67.4778 57.3082C67.801 57.5178 68.0602 57.8036 68.2555 58.1658C68.4544 58.5281 68.5538 58.9808 68.5538 59.5241V65H66.7001V63.8761H66.6362C66.519 64.1033 66.3539 64.3164 66.1408 64.5153C65.9313 64.7106 65.6667 64.8686 65.3471 64.9893C65.0311 65.1065 64.66 65.1651 64.2338 65.1651ZM64.7346 63.7482C65.1216 63.7482 65.4572 63.6719 65.7413 63.5192C66.0254 63.3629 66.2438 63.157 66.3965 62.9013C66.5527 62.6456 66.6309 62.3668 66.6309 62.065V61.1009C66.5705 61.1506 66.4675 61.1967 66.3219 61.2393C66.1799 61.282 66.0201 61.3192 65.8425 61.3512C65.665 61.3832 65.4892 61.4116 65.3152 61.4364C65.1412 61.4613 64.9902 61.4826 64.8624 61.5004C64.5748 61.5394 64.3173 61.6033 64.09 61.6921C63.8627 61.7809 63.6834 61.9052 63.552 62.065C63.4206 62.2212 63.3549 62.4237 63.3549 62.6722C63.3549 63.0273 63.4846 63.2955 63.7438 63.4766C64.003 63.6577 64.3333 63.7482 64.7346 63.7482ZM74.5783 56.8182V58.3097H69.8748V56.8182H74.5783ZM71.036 54.858H72.9643V62.5391C72.9643 62.7983 73.0034 62.9972 73.0815 63.1357C73.1632 63.2706 73.2697 63.3629 73.4011 63.4126C73.5325 63.4624 73.6781 63.4872 73.8379 63.4872C73.9586 63.4872 74.0687 63.4783 74.1681 63.4606C74.2711 63.4428 74.3493 63.4268 74.4025 63.4126L74.7275 64.9201C74.6245 64.9556 74.4771 64.9947 74.2853 65.0373C74.0971 65.0799 73.8663 65.1048 73.5929 65.1119C73.1099 65.1261 72.6749 65.0533 72.2878 64.8935C71.9007 64.7301 71.5936 64.478 71.3663 64.1371C71.1426 63.7962 71.0325 63.37 71.036 62.8587V54.858ZM79.7252 65.1598C78.9049 65.1598 78.1965 64.9893 77.5999 64.6484C77.0068 64.304 76.5505 63.8175 76.2309 63.1889C75.9113 62.5568 75.7515 61.8129 75.7515 60.957C75.7515 60.1154 75.9113 59.3768 76.2309 58.7411C76.5541 58.1019 77.0051 57.6048 77.5839 57.2496C78.1627 56.891 78.8428 56.7116 79.624 56.7116C80.1283 56.7116 80.6041 56.7933 81.0516 56.9567C81.5026 57.1165 81.9003 57.3651 82.2448 57.7024C82.5928 58.0398 82.8662 58.4695 83.0651 58.9915C83.2639 59.5099 83.3634 60.1278 83.3634 60.8452V61.4364H76.657V60.1367H81.515C81.5115 59.7674 81.4316 59.4389 81.2753 59.1513C81.1191 58.8601 80.9007 58.631 80.6201 58.4641C80.3431 58.2972 80.02 58.2138 79.6507 58.2138C79.2565 58.2138 78.9102 58.3097 78.6119 58.5014C78.3137 58.6896 78.0811 58.9382 77.9142 59.2472C77.7508 59.5526 77.6673 59.8881 77.6638 60.2539V61.3885C77.6638 61.8643 77.7508 62.2727 77.9248 62.6136C78.0988 62.951 78.3421 63.2102 78.6546 63.3913C78.9671 63.5689 79.3328 63.6577 79.7519 63.6577C80.0324 63.6577 80.2863 63.6186 80.5136 63.5405C80.7409 63.4588 80.9379 63.3398 81.1048 63.1836C81.2718 63.0273 81.3978 62.8338 81.483 62.603L83.2835 62.8054C83.1698 63.2812 82.9532 63.6967 82.6336 64.0518C82.3176 64.4034 81.9127 64.6768 81.4191 64.8722C80.9255 65.0639 80.3609 65.1598 79.7252 65.1598ZM91.9567 54.0909H93.9329V61.218C93.9329 61.9993 93.7482 62.6864 93.3789 63.2795C93.0131 63.8725 92.4982 64.3359 91.8342 64.6697C91.1701 65 90.3942 65.1651 89.5064 65.1651C88.6151 65.1651 87.8374 65 87.1733 64.6697C86.5092 64.3359 85.9943 63.8725 85.6286 63.2795C85.2628 62.6864 85.0799 61.9993 85.0799 61.218V54.0909H87.0561V61.0529C87.0561 61.5075 87.1555 61.9123 87.3544 62.2674C87.5568 62.6225 87.8409 62.9013 88.2067 63.1037C88.5724 63.3026 89.0057 63.402 89.5064 63.402C90.0071 63.402 90.4403 63.3026 90.8061 63.1037C91.1754 62.9013 91.4595 62.6225 91.6584 62.2674C91.8572 61.9123 91.9567 61.5075 91.9567 61.0529V54.0909ZM102.462 58.9808L100.704 59.1726C100.655 58.995 100.568 58.8281 100.443 58.6719C100.323 58.5156 100.159 58.3896 99.9534 58.2937C99.7474 58.1978 99.4953 58.1499 99.197 58.1499C98.7957 58.1499 98.4584 58.2369 98.1849 58.4109C97.915 58.5849 97.7819 58.8104 97.7854 59.0874C97.7819 59.3253 97.8689 59.5188 98.0464 59.668C98.2275 59.8171 98.5258 59.9396 98.9413 60.0355L100.337 60.3338C101.111 60.5007 101.686 60.7653 102.063 61.1275C102.443 61.4897 102.634 61.9638 102.638 62.5497C102.634 63.0646 102.484 63.5192 102.185 63.9134C101.891 64.304 101.48 64.6094 100.955 64.8295C100.429 65.0497 99.8256 65.1598 99.1437 65.1598C98.1423 65.1598 97.3362 64.9503 96.7254 64.5312C96.1146 64.1087 95.7506 63.521 95.6334 62.7681L97.5138 62.587C97.599 62.9563 97.7801 63.2351 98.0571 63.4233C98.3341 63.6115 98.6945 63.7056 99.1384 63.7056C99.5965 63.7056 99.964 63.6115 100.241 63.4233C100.522 63.2351 100.662 63.0025 100.662 62.7255C100.662 62.4911 100.571 62.2976 100.39 62.1449C100.213 61.9922 99.9356 61.875 99.5592 61.7933L98.1636 61.5004C97.3788 61.337 96.7982 61.0618 96.4218 60.6747C96.0454 60.2841 95.8589 59.7905 95.8625 59.1939C95.8589 58.6896 95.9956 58.2528 96.2726 57.8835C96.5532 57.5107 96.942 57.223 97.4392 57.0206C97.9399 56.8146 98.517 56.7116 99.1704 56.7116C100.129 56.7116 100.884 56.9158 101.434 57.3242C101.988 57.7326 102.331 58.2848 102.462 58.9808ZM107.85 65.1598C107.03 65.1598 106.321 64.9893 105.725 64.6484C105.132 64.304 104.676 63.8175 104.356 63.1889C104.036 62.5568 103.877 61.8129 103.877 60.957C103.877 60.1154 104.036 59.3768 104.356 58.7411C104.679 58.1019 105.13 57.6048 105.709 57.2496C106.288 56.891 106.968 56.7116 107.749 56.7116C108.253 56.7116 108.729 56.7933 109.177 56.9567C109.628 57.1165 110.025 57.3651 110.37 57.7024C110.718 58.0398 110.991 58.4695 111.19 58.9915C111.389 59.5099 111.488 60.1278 111.488 60.8452V61.4364H104.782V60.1367H109.64C109.636 59.7674 109.557 59.4389 109.4 59.1513C109.244 58.8601 109.026 58.631 108.745 58.4641C108.468 58.2972 108.145 58.2138 107.776 58.2138C107.381 58.2138 107.035 58.3097 106.737 58.5014C106.439 58.6896 106.206 58.9382 106.039 59.2472C105.876 59.5526 105.792 59.8881 105.789 60.2539V61.3885C105.789 61.8643 105.876 62.2727 106.05 62.6136C106.224 62.951 106.467 63.2102 106.78 63.3913C107.092 63.5689 107.458 63.6577 107.877 63.6577C108.157 63.6577 108.411 63.6186 108.639 63.5405C108.866 63.4588 109.063 63.3398 109.23 63.1836C109.397 63.0273 109.523 62.8338 109.608 62.603L111.408 62.8054C111.295 63.2812 111.078 63.6967 110.759 64.0518C110.443 64.4034 110.038 64.6768 109.544 64.8722C109.051 65.0639 108.486 65.1598 107.85 65.1598ZM113.12 65V56.8182H114.989V58.1818H115.075C115.224 57.7095 115.479 57.3455 115.842 57.0898C116.207 56.8306 116.625 56.701 117.093 56.701C117.2 56.701 117.319 56.7063 117.45 56.717C117.585 56.7241 117.697 56.7365 117.786 56.7543V58.5281C117.704 58.4996 117.575 58.4748 117.397 58.4535C117.223 58.4286 117.054 58.4162 116.891 58.4162C116.539 58.4162 116.223 58.4925 115.943 58.6452C115.666 58.7944 115.447 59.0021 115.288 59.2685C115.128 59.5348 115.048 59.842 115.048 60.19V65H113.12ZM128.9 59.5455C128.9 60.7209 128.68 61.7276 128.24 62.5657C127.803 63.4002 127.206 64.0394 126.45 64.4833C125.697 64.9272 124.843 65.1491 123.888 65.1491C122.932 65.1491 122.077 64.9272 121.32 64.4833C120.567 64.0359 119.971 63.3949 119.53 62.5604C119.094 61.7223 118.875 60.7173 118.875 59.5455C118.875 58.37 119.094 57.3651 119.53 56.5305C119.971 55.6925 120.567 55.0515 121.32 54.6076C122.077 54.1637 122.932 53.9418 123.888 53.9418C124.843 53.9418 125.697 54.1637 126.45 54.6076C127.206 55.0515 127.803 55.6925 128.24 56.5305C128.68 57.3651 128.9 58.37 128.9 59.5455ZM126.913 59.5455C126.913 58.718 126.784 58.0202 126.524 57.4521C126.269 56.8803 125.914 56.4489 125.459 56.1577C125.004 55.8629 124.481 55.7156 123.888 55.7156C123.295 55.7156 122.771 55.8629 122.316 56.1577C121.862 56.4489 121.505 56.8803 121.246 57.4521C120.99 58.0202 120.862 58.718 120.862 59.5455C120.862 60.3729 120.99 61.0724 121.246 61.6442C121.505 62.2124 121.862 62.6438 122.316 62.9386C122.771 63.2298 123.295 63.3754 123.888 63.3754C124.481 63.3754 125.004 63.2298 125.459 62.9386C125.914 62.6438 126.269 62.2124 126.524 61.6442C126.784 61.0724 126.913 60.3729 126.913 59.5455ZM130.683 68.0682V56.8182H132.579V58.1712H132.691C132.791 57.9723 132.931 57.761 133.112 57.5373C133.293 57.31 133.538 57.1165 133.847 56.9567C134.156 56.7933 134.55 56.7116 135.03 56.7116C135.662 56.7116 136.232 56.8732 136.74 57.1964C137.251 57.516 137.656 57.9901 137.954 58.6186C138.256 59.2436 138.407 60.0107 138.407 60.9197C138.407 61.8182 138.259 62.5817 137.965 63.2102C137.67 63.8388 137.269 64.3182 136.761 64.6484C136.253 64.9787 135.678 65.1438 135.035 65.1438C134.566 65.1438 134.177 65.0657 133.869 64.9094C133.56 64.7532 133.311 64.565 133.123 64.3448C132.938 64.1211 132.794 63.9098 132.691 63.7109H132.611V68.0682H130.683ZM132.574 60.9091C132.574 61.4382 132.649 61.9016 132.798 62.2994C132.951 62.6971 133.169 63.0078 133.453 63.2315C133.741 63.4517 134.089 63.5618 134.497 63.5618C134.923 63.5618 135.28 63.4482 135.568 63.2209C135.855 62.9901 136.072 62.6758 136.218 62.2781C136.367 61.8768 136.441 61.4205 136.441 60.9091C136.441 60.4013 136.369 59.9503 136.223 59.5561C136.077 59.1619 135.861 58.853 135.573 58.6293C135.285 58.4055 134.927 58.2937 134.497 58.2937C134.085 58.2937 133.735 58.402 133.448 58.6186C133.16 58.8352 132.942 59.1388 132.793 59.5295C132.647 59.9201 132.574 60.38 132.574 60.9091ZM146.525 58.9808L144.767 59.1726C144.717 58.995 144.63 58.8281 144.506 58.6719C144.385 58.5156 144.222 58.3896 144.016 58.2937C143.81 58.1978 143.558 58.1499 143.259 58.1499C142.858 58.1499 142.521 58.2369 142.247 58.4109C141.978 58.5849 141.844 58.8104 141.848 59.0874C141.844 59.3253 141.931 59.5188 142.109 59.668C142.29 59.8171 142.588 59.9396 143.004 60.0355L144.399 60.3338C145.174 60.5007 145.749 60.7653 146.125 61.1275C146.505 61.4897 146.697 61.9638 146.701 62.5497C146.697 63.0646 146.546 63.5192 146.248 63.9134C145.953 64.304 145.543 64.6094 145.017 64.8295C144.492 65.0497 143.888 65.1598 143.206 65.1598C142.205 65.1598 141.399 64.9503 140.788 64.5312C140.177 64.1087 139.813 63.521 139.696 62.7681L141.576 62.587C141.661 62.9563 141.843 63.2351 142.12 63.4233C142.397 63.6115 142.757 63.7056 143.201 63.7056C143.659 63.7056 144.027 63.6115 144.304 63.4233C144.584 63.2351 144.724 63.0025 144.724 62.7255C144.724 62.4911 144.634 62.2976 144.453 62.1449C144.275 61.9922 143.998 61.875 143.622 61.7933L142.226 61.5004C141.441 61.337 140.861 61.0618 140.484 60.6747C140.108 60.2841 139.921 59.7905 139.925 59.1939C139.921 58.6896 140.058 58.2528 140.335 57.8835C140.616 57.5107 141.005 57.223 141.502 57.0206C142.002 56.8146 142.579 56.7116 143.233 56.7116C144.192 56.7116 144.946 56.9158 145.497 57.3242C146.051 57.7326 146.393 58.2848 146.525 58.9808ZM10.6144 83.1491C9.84735 83.1491 9.16553 83.0178 8.56894 82.755C7.9759 82.4922 7.50715 82.1264 7.16269 81.6577C6.81823 81.1889 6.63535 80.6474 6.61404 80.033H8.61688C8.63464 80.3278 8.73229 80.5852 8.90985 80.8054C9.08741 81.022 9.32356 81.1907 9.6183 81.3114C9.91305 81.4322 10.2433 81.4925 10.6091 81.4925C10.9997 81.4925 11.3459 81.4251 11.6478 81.2901C11.9496 81.1516 12.1858 80.9599 12.3562 80.7148C12.5267 80.4698 12.6101 80.1875 12.6066 79.8679C12.6101 79.5376 12.5249 79.2464 12.3509 78.9943C12.1769 78.7422 11.9248 78.5451 11.5945 78.4031C11.2678 78.261 10.8736 78.19 10.412 78.19H9.44785V76.6665H10.412C10.792 76.6665 11.124 76.6009 11.4081 76.4695C11.6957 76.3381 11.9212 76.1534 12.0846 75.9155C12.2479 75.674 12.3278 75.3952 12.3243 75.0792C12.3278 74.7702 12.2586 74.5021 12.1165 74.2749C11.978 74.044 11.7809 73.8647 11.5253 73.7369C11.2731 73.609 10.9766 73.5451 10.6357 73.5451C10.3019 73.5451 9.99295 73.6055 9.70886 73.7262C9.42477 73.8469 9.19572 74.0192 9.02171 74.2429C8.84771 74.4631 8.75538 74.7259 8.74472 75.0312H6.84309C6.85729 74.4205 7.03308 73.8842 7.37043 73.4226C7.71134 72.9574 8.16589 72.5952 8.73407 72.3359C9.30225 72.0732 9.93968 71.9418 10.6464 71.9418C11.3743 71.9418 12.0064 72.0785 12.5427 72.3519C13.0824 72.6218 13.4997 72.9858 13.7944 73.4439C14.0892 73.902 14.2366 74.408 14.2366 74.962C14.2401 75.5763 14.059 76.0913 13.6932 76.5067C13.331 76.9222 12.8552 77.1939 12.2657 77.3217V77.407C13.0327 77.5135 13.6204 77.7976 14.0288 78.2592C14.4407 78.7173 14.6449 79.2873 14.6414 79.9691C14.6414 80.5799 14.4674 81.1268 14.1194 81.6097C13.7749 82.0891 13.2991 82.4656 12.6918 82.739C12.0881 83.0124 11.3956 83.1491 10.6144 83.1491ZM17.86 83.1172C17.5369 83.1172 17.2599 83.0036 17.0291 82.7763C16.7983 82.549 16.6846 82.272 16.6882 81.9453C16.6846 81.6257 16.7983 81.3523 17.0291 81.125C17.2599 80.8977 17.5369 80.7841 17.86 80.7841C18.1725 80.7841 18.4442 80.8977 18.675 81.125C18.9094 81.3523 19.0284 81.6257 19.0319 81.9453C19.0284 82.1619 18.9716 82.359 18.8615 82.5366C18.7549 82.7141 18.6129 82.8562 18.4353 82.9627C18.2613 83.0657 18.0696 83.1172 17.86 83.1172ZM26.076 83V72.0909H33.1712V73.7475H28.0522V76.7092H32.8036V78.3658H28.0522V81.3434H33.2138V83H26.076ZM36.6788 74.8182L38.3301 77.8384L40.008 74.8182H42.0481L39.5819 78.9091L42.0907 83H40.0613L38.3301 80.0543L36.6149 83H34.5694L37.0623 78.9091L34.6333 74.8182H36.6788ZM46.8541 83.1598C46.0338 83.1598 45.3254 82.9893 44.7288 82.6484C44.1357 82.304 43.6794 81.8175 43.3598 81.1889C43.0402 80.5568 42.8804 79.8129 42.8804 78.957C42.8804 78.1154 43.0402 77.3768 43.3598 76.7411C43.683 76.1019 44.134 75.6048 44.7128 75.2496C45.2916 74.891 45.9717 74.7116 46.7529 74.7116C47.2572 74.7116 47.733 74.7933 48.1805 74.9567C48.6315 75.1165 49.0292 75.3651 49.3737 75.7024C49.7217 76.0398 49.9951 76.4695 50.194 76.9915C50.3928 77.5099 50.4923 78.1278 50.4923 78.8452V79.4364H43.786V78.1367H48.6439C48.6404 77.7674 48.5605 77.4389 48.4042 77.1513C48.248 76.8601 48.0296 76.631 47.749 76.4641C47.472 76.2972 47.1489 76.2138 46.7796 76.2138C46.3854 76.2138 46.0392 76.3097 45.7409 76.5014C45.4426 76.6896 45.21 76.9382 45.0431 77.2472C44.8797 77.5526 44.7963 77.8881 44.7927 78.2539V79.3885C44.7927 79.8643 44.8797 80.2727 45.0537 80.6136C45.2277 80.951 45.471 81.2102 45.7835 81.3913C46.096 81.5689 46.4617 81.6577 46.8808 81.6577C47.1613 81.6577 47.4152 81.6186 47.6425 81.5405C47.8698 81.4588 48.0669 81.3398 48.2338 81.1836C48.4007 81.0273 48.5267 80.8338 48.6119 80.603L50.4124 80.8054C50.2987 81.2812 50.0821 81.6967 49.7625 82.0518C49.4465 82.4034 49.0416 82.6768 48.548 82.8722C48.0544 83.0639 47.4898 83.1598 46.8541 83.1598ZM55.6925 83.1598C54.8757 83.1598 54.1744 82.9805 53.5884 82.6218C53.006 82.2631 52.5568 81.7678 52.2408 81.1357C51.9283 80.5 51.772 79.7685 51.772 78.9411C51.772 78.1101 51.9318 77.3768 52.2514 76.7411C52.571 76.1019 53.022 75.6048 53.6044 75.2496C54.1903 74.891 54.8828 74.7116 55.6818 74.7116C56.3459 74.7116 56.9336 74.8342 57.445 75.0792C57.9599 75.3207 58.37 75.6634 58.6754 76.1072C58.9808 76.5476 59.1548 77.0625 59.1974 77.652H57.3544C57.2798 77.2578 57.1023 76.9293 56.8217 76.6665C56.5447 76.4002 56.1737 76.267 55.7085 76.267C55.3143 76.267 54.968 76.3736 54.6697 76.5866C54.3714 76.7962 54.1388 77.098 53.9719 77.4922C53.8086 77.8864 53.7269 78.3587 53.7269 78.9091C53.7269 79.4666 53.8086 79.946 53.9719 80.3473C54.1353 80.745 54.3643 81.0522 54.6591 81.2688C54.9574 81.4819 55.3072 81.5884 55.7085 81.5884C55.9925 81.5884 56.2464 81.5352 56.4702 81.4286C56.6974 81.3185 56.8874 81.1605 57.0401 80.9545C57.1928 80.7486 57.2976 80.4982 57.3544 80.2035H59.1974C59.1513 80.7823 58.9808 81.2955 58.6861 81.7429C58.3913 82.1868 57.9901 82.5348 57.4822 82.7869C56.9744 83.0355 56.3778 83.1598 55.6925 83.1598ZM65.9957 79.5589V74.8182H67.9239V83H66.0542V81.5458H65.969C65.7844 82.0039 65.4807 82.3786 65.0582 82.6697C64.6391 82.9609 64.1224 83.1065 63.5081 83.1065C62.9719 83.1065 62.4978 82.9876 62.0858 82.7496C61.6775 82.5082 61.3579 82.1584 61.127 81.7003C60.8962 81.2386 60.7808 80.6811 60.7808 80.0277V74.8182H62.7091V79.7294C62.7091 80.2479 62.8511 80.6598 63.1352 80.9652C63.4193 81.2706 63.7922 81.4233 64.2538 81.4233C64.5379 81.4233 64.8131 81.354 65.0795 81.2156C65.3458 81.0771 65.5642 80.8711 65.7346 80.5977C65.9086 80.3207 65.9957 79.9744 65.9957 79.5589ZM73.9924 74.8182V76.3097H69.2889V74.8182H73.9924ZM70.4501 72.858H72.3784V80.5391C72.3784 80.7983 72.4174 80.9972 72.4956 81.1357C72.5772 81.2706 72.6838 81.3629 72.8152 81.4126C72.9466 81.4624 73.0922 81.4872 73.252 81.4872C73.3727 81.4872 73.4828 81.4783 73.5822 81.4606C73.6852 81.4428 73.7633 81.4268 73.8166 81.4126L74.1415 82.9201C74.0385 82.9556 73.8912 82.9947 73.6994 83.0373C73.5112 83.0799 73.2804 83.1048 73.0069 83.1119C72.524 83.1261 72.089 83.0533 71.7019 82.8935C71.3148 82.7301 71.0076 82.478 70.7804 82.1371C70.5566 81.7962 70.4466 81.37 70.4501 80.8587V72.858ZM79.1393 83.1598C78.319 83.1598 77.6105 82.9893 77.0139 82.6484C76.4209 82.304 75.9646 81.8175 75.645 81.1889C75.3254 80.5568 75.1656 79.8129 75.1656 78.957C75.1656 78.1154 75.3254 77.3768 75.645 76.7411C75.9681 76.1019 76.4191 75.6048 76.998 75.2496C77.5768 74.891 78.2568 74.7116 79.0381 74.7116C79.5423 74.7116 80.0182 74.7933 80.4656 74.9567C80.9166 75.1165 81.3144 75.3651 81.6588 75.7024C82.0068 76.0398 82.2803 76.4695 82.4791 76.9915C82.678 77.5099 82.7774 78.1278 82.7774 78.8452V79.4364H76.0711V78.1367H80.9291C80.9255 77.7674 80.8456 77.4389 80.6894 77.1513C80.5331 76.8601 80.3147 76.631 80.0342 76.4641C79.7572 76.2972 79.434 76.2138 79.0647 76.2138C78.6705 76.2138 78.3243 76.3097 78.026 76.5014C77.7277 76.6896 77.4951 76.9382 77.3282 77.2472C77.1649 77.5526 77.0814 77.8881 77.0779 78.2539V79.3885C77.0779 79.8643 77.1649 80.2727 77.3389 80.6136C77.5129 80.951 77.7561 81.2102 78.0686 81.3913C78.3811 81.5689 78.7469 81.6577 79.1659 81.6577C79.4465 81.6577 79.7004 81.6186 79.9276 81.5405C80.1549 81.4588 80.352 81.3398 80.5189 81.1836C80.6858 81.0273 80.8119 80.8338 80.8971 80.603L82.6975 80.8054C82.5839 81.2812 82.3673 81.6967 82.0477 82.0518C81.7316 82.4034 81.3268 82.6768 80.8332 82.8722C80.3396 83.0639 79.7749 83.1598 79.1393 83.1598Z" fill="black"/>
</svg>
