<svg width="259" height="111" viewBox="0 0 259 111" fill="none" xmlns="http://www.w3.org/2000/svg">
<path d="M159.923 4C159.923 1.79086 161.714 0 163.923 0H195.286C197.116 0 198.869 0.741208 200.143 2.05463L212.165 14.4406C213.391 15.7037 214.077 17.3948 214.077 19.1552V68.2051C214.077 70.4143 212.286 72.2051 210.077 72.2051H163.923C161.714 72.2051 159.923 70.4143 159.923 68.2051V4Z" fill="#8BAFFF"/>
<path d="M198.149 4.92188L210.891 18.0501H201.334H198.149V4.92188Z" fill="white"/>
<rect x="166.294" y="11.4863" width="22.2986" height="6.5641" rx="3.28205" fill="white"/>
<rect x="166.294" y="26.2578" width="41.4118" height="6.5641" rx="3.28205" fill="white"/>
<rect x="166.692" y="38.3574" width="33.8462" height="6.76923" rx="3.38462" fill="white"/>
<rect x="166.692" y="51.8984" width="13.5385" height="6.76923" rx="3.38462" fill="white"/>
<path d="M116.174 106.205V95.296H123.269V96.9526H118.15V99.9142H122.902V101.571H118.15V104.548H123.312V106.205H116.174ZM127.129 101.411V106.205H125.2V98.0233H127.043V99.4135H127.139C127.327 98.9554 127.627 98.5914 128.039 98.3216C128.455 98.0517 128.968 97.9167 129.579 97.9167C130.143 97.9167 130.635 98.0375 131.054 98.2789C131.477 98.5204 131.804 98.8702 132.034 99.3283C132.269 99.7864 132.384 100.342 132.381 100.996V106.205H130.452V101.294C130.452 100.747 130.31 100.319 130.026 100.01C129.746 99.7012 129.357 99.5467 128.86 99.5467C128.522 99.5467 128.222 99.6213 127.959 99.7704C127.7 99.916 127.496 100.127 127.347 100.404C127.201 100.681 127.129 101.017 127.129 101.411ZM138.426 98.0233V99.5147H133.723V98.0233H138.426ZM134.884 96.063H136.812V103.744C136.812 104.003 136.852 104.202 136.93 104.341C137.011 104.476 137.118 104.568 137.249 104.618C137.381 104.667 137.526 104.692 137.686 104.692C137.807 104.692 137.917 104.683 138.016 104.666C138.119 104.648 138.197 104.632 138.251 104.618L138.576 106.125C138.473 106.161 138.325 106.2 138.133 106.242C137.945 106.285 137.714 106.31 137.441 106.317C136.958 106.331 136.523 106.258 136.136 106.099C135.749 105.935 135.442 105.683 135.214 105.342C134.991 105.001 134.881 104.575 134.884 104.064V96.063ZM140.039 106.205V98.0233H141.909V99.3869H141.994C142.143 98.9146 142.399 98.5506 142.761 98.2949C143.127 98.0357 143.544 97.9061 144.013 97.9061C144.119 97.9061 144.238 97.9114 144.37 97.9221C144.505 97.9292 144.617 97.9416 144.705 97.9593V99.7331C144.624 99.7047 144.494 99.6799 144.316 99.6586C144.142 99.6337 143.974 99.6213 143.81 99.6213C143.459 99.6213 143.143 99.6976 142.862 99.8503C142.585 99.9995 142.367 100.207 142.207 100.474C142.047 100.74 141.967 101.047 141.967 101.395V106.205H140.039ZM147.434 109.273C147.171 109.273 146.928 109.252 146.704 109.209C146.484 109.17 146.308 109.124 146.177 109.071L146.624 107.569C146.905 107.65 147.155 107.689 147.375 107.686C147.595 107.682 147.789 107.613 147.956 107.478C148.126 107.347 148.27 107.127 148.387 106.818L148.553 106.376L145.586 98.0233H147.631L149.517 104.202H149.602L151.493 98.0233H153.544L150.268 107.196C150.115 107.629 149.913 108 149.66 108.309C149.408 108.622 149.099 108.86 148.734 109.023C148.371 109.19 147.938 109.273 147.434 109.273ZM154.963 106.205V95.296H159.054C159.892 95.296 160.595 95.4522 161.163 95.7647C161.735 96.0772 162.167 96.5069 162.458 97.0538C162.753 97.5971 162.9 98.215 162.9 98.9075C162.9 99.6071 162.753 100.229 162.458 100.772C162.163 101.315 161.728 101.743 161.153 102.056C160.578 102.365 159.869 102.519 159.027 102.519H156.316V100.894H158.761C159.251 100.894 159.652 100.809 159.965 100.639C160.277 100.468 160.508 100.234 160.657 99.9355C160.81 99.6373 160.886 99.2946 160.886 98.9075C160.886 98.5204 160.81 98.1795 160.657 97.8848C160.508 97.59 160.276 97.361 159.96 97.1976C159.647 97.0307 159.244 96.9473 158.75 96.9473H156.939V106.205H154.963ZM167.983 106.365C167.184 106.365 166.492 106.189 165.906 105.838C165.32 105.486 164.865 104.994 164.542 104.362C164.222 103.73 164.063 102.991 164.063 102.146C164.063 101.301 164.222 100.561 164.542 99.9249C164.865 99.2892 165.32 98.7956 165.906 98.4441C166.492 98.0925 167.184 97.9167 167.983 97.9167C168.782 97.9167 169.474 98.0925 170.06 98.4441C170.646 98.7956 171.099 99.2892 171.419 99.9249C171.742 100.561 171.903 101.301 171.903 102.146C171.903 102.991 171.742 103.73 171.419 104.362C171.099 104.994 170.646 105.486 170.06 105.838C169.474 106.189 168.782 106.365 167.983 106.365ZM167.994 104.82C168.427 104.82 168.789 104.701 169.08 104.463C169.371 104.222 169.588 103.899 169.73 103.494C169.876 103.089 169.949 102.638 169.949 102.141C169.949 101.64 169.876 101.187 169.73 100.782C169.588 100.374 169.371 100.049 169.08 99.8077C168.789 99.5662 168.427 99.4455 167.994 99.4455C167.55 99.4455 167.18 99.5662 166.886 99.8077C166.595 100.049 166.376 100.374 166.231 100.782C166.088 101.187 166.017 101.64 166.017 102.141C166.017 102.638 166.088 103.089 166.231 103.494C166.376 103.899 166.595 104.222 166.886 104.463C167.18 104.701 167.55 104.82 167.994 104.82ZM173.54 106.205V98.0233H175.468V106.205H173.54ZM174.51 96.862C174.204 96.862 173.941 96.7608 173.721 96.5584C173.501 96.3524 173.391 96.1056 173.391 95.818C173.391 95.5268 173.501 95.28 173.721 95.0776C173.941 94.8716 174.204 94.7686 174.51 94.7686C174.818 94.7686 175.081 94.8716 175.298 95.0776C175.518 95.28 175.628 95.5268 175.628 95.818C175.628 96.1056 175.518 96.3524 175.298 96.5584C175.081 96.7608 174.818 96.862 174.51 96.862ZM179.379 101.411V106.205H177.451V98.0233H179.294V99.4135H179.39C179.578 98.9554 179.878 98.5914 180.29 98.3216C180.706 98.0517 181.219 97.9167 181.83 97.9167C182.394 97.9167 182.886 98.0375 183.305 98.2789C183.728 98.5204 184.055 98.8702 184.285 99.3283C184.52 99.7864 184.635 100.342 184.632 100.996V106.205H182.703V101.294C182.703 100.747 182.561 100.319 182.277 100.01C181.997 99.7012 181.608 99.5467 181.111 99.5467C180.773 99.5467 180.473 99.6213 180.21 99.7704C179.951 99.916 179.747 100.127 179.598 100.404C179.452 100.681 179.379 101.017 179.379 101.411ZM190.677 98.0233V99.5147H185.974V98.0233H190.677ZM187.135 96.063H189.063V103.744C189.063 104.003 189.102 104.202 189.181 104.341C189.262 104.476 189.369 104.568 189.5 104.618C189.632 104.667 189.777 104.692 189.937 104.692C190.058 104.692 190.168 104.683 190.267 104.666C190.37 104.648 190.448 104.632 190.502 104.618L190.827 106.125C190.724 106.161 190.576 106.2 190.384 106.242C190.196 106.285 189.965 106.31 189.692 106.317C189.209 106.331 188.774 106.258 188.387 106.099C188 105.935 187.693 105.683 187.465 105.342C187.242 105.001 187.132 104.575 187.135 104.064V96.063ZM205.434 98.9767H203.442C203.385 98.65 203.28 98.3606 203.127 98.1085C202.975 97.8528 202.785 97.6362 202.557 97.4586C202.33 97.2811 202.071 97.1479 201.78 97.0591C201.492 96.9668 201.181 96.9206 200.847 96.9206C200.254 96.9206 199.729 97.0698 199.271 97.3681C198.813 97.6628 198.454 98.0961 198.195 98.6678C197.936 99.236 197.806 99.9302 197.806 100.751C197.806 101.585 197.936 102.288 198.195 102.86C198.458 103.428 198.816 103.858 199.271 104.149C199.729 104.437 200.253 104.58 200.842 104.58C201.169 104.58 201.474 104.538 201.758 104.453C202.046 104.364 202.303 104.234 202.531 104.064C202.761 103.893 202.955 103.684 203.111 103.435C203.271 103.187 203.381 102.903 203.442 102.583L205.434 102.594C205.359 103.112 205.198 103.599 204.949 104.053C204.704 104.508 204.383 104.909 203.985 105.257C203.587 105.601 203.122 105.871 202.589 106.067C202.057 106.258 201.465 106.354 200.815 106.354C199.857 106.354 199.001 106.132 198.248 105.688C197.495 105.244 196.902 104.604 196.469 103.765C196.036 102.927 195.819 101.922 195.819 100.751C195.819 99.5751 196.037 98.5701 196.474 97.7356C196.911 96.8975 197.506 96.2566 198.259 95.8127C199.011 95.3688 199.864 95.1468 200.815 95.1468C201.423 95.1468 201.987 95.2321 202.509 95.4025C203.031 95.573 203.497 95.8233 203.905 96.1536C204.313 96.4803 204.649 96.8816 204.912 97.3574C205.178 97.8297 205.352 98.3695 205.434 98.9767ZM210.727 106.365C209.928 106.365 209.236 106.189 208.65 105.838C208.064 105.486 207.609 104.994 207.286 104.362C206.966 103.73 206.807 102.991 206.807 102.146C206.807 101.301 206.966 100.561 207.286 99.9249C207.609 99.2892 208.064 98.7956 208.65 98.4441C209.236 98.0925 209.928 97.9167 210.727 97.9167C211.526 97.9167 212.219 98.0925 212.805 98.4441C213.39 98.7956 213.843 99.2892 214.163 99.9249C214.486 100.561 214.648 101.301 214.648 102.146C214.648 102.991 214.486 103.73 214.163 104.362C213.843 104.994 213.39 105.486 212.805 105.838C212.219 106.189 211.526 106.365 210.727 106.365ZM210.738 104.82C211.171 104.82 211.533 104.701 211.824 104.463C212.116 104.222 212.332 103.899 212.474 103.494C212.62 103.089 212.693 102.638 212.693 102.141C212.693 101.64 212.62 101.187 212.474 100.782C212.332 100.374 212.116 100.049 211.824 99.8077C211.533 99.5662 211.171 99.4455 210.738 99.4455C210.294 99.4455 209.925 99.5662 209.63 99.8077C209.339 100.049 209.12 100.374 208.975 100.782C208.833 101.187 208.762 101.64 208.762 102.141C208.762 102.638 208.833 103.089 208.975 103.494C209.12 103.899 209.339 104.222 209.63 104.463C209.925 104.701 210.294 104.82 210.738 104.82ZM218.212 101.411V106.205H216.284V98.0233H218.127V99.4135H218.223C218.411 98.9554 218.711 98.5914 219.123 98.3216C219.539 98.0517 220.052 97.9167 220.663 97.9167C221.227 97.9167 221.719 98.0375 222.138 98.2789C222.561 98.5204 222.888 98.8702 223.118 99.3283C223.353 99.7864 223.468 100.342 223.465 100.996V106.205H221.536V101.294C221.536 100.747 221.394 100.319 221.11 100.01C220.83 99.7012 220.441 99.5467 219.944 99.5467C219.606 99.5467 219.306 99.6213 219.043 99.7704C218.784 99.916 218.58 100.127 218.431 100.404C218.285 100.681 218.212 101.017 218.212 101.411ZM229.51 98.0233V99.5147H224.807V98.0233H229.51ZM225.968 96.063H227.896V103.744C227.896 104.003 227.936 104.202 228.014 104.341C228.095 104.476 228.202 104.568 228.333 104.618C228.465 104.667 228.61 104.692 228.77 104.692C228.891 104.692 229.001 104.683 229.1 104.666C229.203 104.648 229.281 104.632 229.335 104.618L229.66 106.125C229.557 106.161 229.409 106.2 229.217 106.242C229.029 106.285 228.798 106.31 228.525 106.317C228.042 106.331 227.607 106.258 227.22 106.099C226.833 105.935 226.526 105.683 226.298 105.342C226.075 105.001 225.965 104.575 225.968 104.064V96.063ZM231.123 106.205V98.0233H232.993V99.3869H233.078C233.227 98.9146 233.483 98.5506 233.845 98.2949C234.211 98.0357 234.628 97.9061 235.097 97.9061C235.203 97.9061 235.322 97.9114 235.454 97.9221C235.589 97.9292 235.701 97.9416 235.789 97.9593V99.7331C235.708 99.7047 235.578 99.6799 235.4 99.6586C235.226 99.6337 235.058 99.6213 234.894 99.6213C234.543 99.6213 234.227 99.6976 233.946 99.8503C233.669 99.9995 233.451 100.207 233.291 100.474C233.131 100.74 233.051 101.047 233.051 101.395V106.205H231.123ZM239.278 106.37C238.76 106.37 238.293 106.278 237.877 106.093C237.465 105.905 237.139 105.628 236.897 105.262C236.659 104.896 236.54 104.445 236.54 103.909C236.54 103.448 236.626 103.066 236.796 102.764C236.966 102.462 237.199 102.221 237.494 102.04C237.789 101.858 238.121 101.722 238.49 101.629C238.863 101.534 239.248 101.464 239.646 101.422C240.125 101.372 240.514 101.328 240.812 101.289C241.111 101.246 241.327 101.182 241.462 101.097C241.601 101.008 241.67 100.871 241.67 100.687V100.655C241.67 100.253 241.551 99.9426 241.313 99.7225C241.075 99.5023 240.732 99.3922 240.285 99.3922C239.813 99.3922 239.438 99.4952 239.161 99.7012C238.888 99.9071 238.703 100.15 238.607 100.431L236.807 100.175C236.949 99.6781 237.183 99.2626 237.51 98.9288C237.837 98.5914 238.236 98.3393 238.708 98.1724C239.181 98.002 239.703 97.9167 240.274 97.9167C240.669 97.9167 241.061 97.9629 241.452 98.0552C241.842 98.1475 242.199 98.3002 242.522 98.5133C242.845 98.7228 243.105 99.0087 243.3 99.3709C243.499 99.7331 243.598 100.186 243.598 100.729V106.205H241.745V105.081H241.681C241.563 105.308 241.398 105.521 241.185 105.72C240.976 105.916 240.711 106.074 240.392 106.194C240.076 106.312 239.704 106.37 239.278 106.37ZM239.779 104.953C240.166 104.953 240.502 104.877 240.786 104.724C241.07 104.568 241.288 104.362 241.441 104.106C241.597 103.851 241.675 103.572 241.675 103.27V102.306C241.615 102.356 241.512 102.402 241.366 102.444C241.224 102.487 241.064 102.524 240.887 102.556C240.709 102.588 240.534 102.617 240.36 102.642C240.186 102.666 240.035 102.688 239.907 102.705C239.619 102.744 239.362 102.808 239.134 102.897C238.907 102.986 238.728 103.11 238.596 103.27C238.465 103.426 238.399 103.629 238.399 103.877C238.399 104.232 238.529 104.501 238.788 104.682C239.047 104.863 239.378 104.953 239.779 104.953ZM249.106 106.365C248.289 106.365 247.588 106.186 247.002 105.827C246.42 105.468 245.97 104.973 245.654 104.341C245.342 103.705 245.186 102.974 245.186 102.146C245.186 101.315 245.345 100.582 245.665 99.9462C245.985 99.307 246.436 98.8098 247.018 98.4547C247.604 98.0961 248.296 97.9167 249.095 97.9167C249.759 97.9167 250.347 98.0392 250.859 98.2843C251.373 98.5257 251.784 98.8684 252.089 99.3123C252.394 99.7527 252.568 100.268 252.611 100.857H250.768C250.693 100.463 250.516 100.134 250.235 99.8716C249.958 99.6053 249.587 99.4721 249.122 99.4721C248.728 99.4721 248.382 99.5787 248.083 99.7917C247.785 100.001 247.552 100.303 247.386 100.697C247.222 101.091 247.14 101.564 247.14 102.114C247.14 102.672 247.222 103.151 247.386 103.552C247.549 103.95 247.778 104.257 248.073 104.474C248.371 104.687 248.721 104.794 249.122 104.794C249.406 104.794 249.66 104.74 249.884 104.634C250.111 104.524 250.301 104.366 250.454 104.16C250.606 103.954 250.711 103.703 250.768 103.409H252.611C252.565 103.987 252.394 104.501 252.1 104.948C251.805 105.392 251.404 105.74 250.896 105.992C250.388 106.241 249.791 106.365 249.106 106.365ZM258.28 98.0233V99.5147H253.576V98.0233H258.28ZM254.738 96.063H256.666V103.744C256.666 104.003 256.705 104.202 256.783 104.341C256.865 104.476 256.971 104.568 257.103 104.618C257.234 104.667 257.38 104.692 257.54 104.692C257.66 104.692 257.77 104.683 257.87 104.666C257.973 104.648 258.051 104.632 258.104 104.618L258.429 106.125C258.326 106.161 258.179 106.2 257.987 106.242C257.799 106.285 257.568 106.31 257.295 106.317C256.812 106.331 256.377 106.258 255.989 106.099C255.602 105.935 255.295 105.683 255.068 105.342C254.844 105.001 254.734 104.575 254.738 104.064V96.063Z" fill="black"/>
<path d="M112.009 55C112.009 53.3384 110.662 51.9915 109 51.9915C107.338 51.9915 105.991 53.3384 105.991 55C105.991 56.6616 107.338 58.0085 109 58.0085C110.662 58.0085 112.009 56.6616 112.009 55ZM-3.33786e-06 55L5.64102 58.2568V51.7432L-3.33786e-06 55ZM109 54.4359L5.07692 54.4359V55.5641L109 55.5641V54.4359Z" fill="black"/>
</svg>
