<svg width="220" height="107" viewBox="0 0 220 107" fill="none" xmlns="http://www.w3.org/2000/svg">
<path d="M134.009 52C134.009 50.3384 132.662 48.9915 131 48.9915C129.338 48.9915 127.991 50.3384 127.991 52C127.991 53.6616 129.338 55.0085 131 55.0085C132.662 55.0085 134.009 53.6616 134.009 52ZM-3.8147e-06 52L5.64102 55.2569L5.64102 48.7432L-3.8147e-06 52ZM131 51.4359L5.07692 51.4359L5.07692 52.5641L131 52.5641L131 51.4359Z" fill="black"/>
<path d="M174.641 30.5H208.359C209.195 30.5 209.976 30.9178 210.439 31.6132L216.244 40.3205C216.737 41.0597 217 41.9282 217 42.8167V55C217 55.2761 216.776 55.5 216.5 55.5H166.5C166.224 55.5 166 55.2761 166 55V42.8167C166 41.9282 166.263 41.0597 166.756 40.3205L172.561 31.6132C173.024 30.9178 173.805 30.5 174.641 30.5Z" fill="white" stroke="#8BAFFF" stroke-width="3"/>
<path d="M164.5 42H218.5V67C218.5 68.1046 217.605 69 216.5 69H166.5C165.395 69 164.5 68.1046 164.5 67V42Z" fill="#8BAFFF"/>
<path d="M191.5 16L191.5 2" stroke="#8BAFFF" stroke-width="3" stroke-linecap="round"/>
<path d="M202.55 22L212.45 12.1005" stroke="#8BAFFF" stroke-width="3" stroke-linecap="round"/>
<path d="M181.5 22L171.601 12.1005" stroke="#8BAFFF" stroke-width="3" stroke-linecap="round"/>
<path d="M164.414 103V92.0909H168.591C169.379 92.0909 170.034 92.2152 170.556 92.4638C171.082 92.7088 171.474 93.0444 171.733 93.4705C171.996 93.8967 172.127 94.3796 172.127 94.9194C172.127 95.3633 172.042 95.7433 171.872 96.0593C171.701 96.3718 171.472 96.6257 171.185 96.821C170.897 97.0163 170.576 97.1566 170.22 97.2418V97.3484C170.608 97.3697 170.979 97.4886 171.334 97.7053C171.692 97.9183 171.985 98.2202 172.213 98.6108C172.44 99.0014 172.554 99.4737 172.554 100.028C172.554 100.592 172.417 101.1 172.143 101.551C171.87 101.999 171.458 102.352 170.908 102.611C170.357 102.87 169.665 103 168.83 103H164.414ZM166.391 101.349H168.516C169.233 101.349 169.75 101.212 170.066 100.939C170.386 100.662 170.545 100.306 170.545 99.8732C170.545 99.5501 170.466 99.2589 170.306 98.9996C170.146 98.7369 169.919 98.5309 169.624 98.3817C169.329 98.229 168.978 98.1527 168.569 98.1527H166.391V101.349ZM166.391 96.7305H168.345C168.686 96.7305 168.994 96.6683 169.267 96.544C169.54 96.4162 169.755 96.2369 169.912 96.006C170.071 95.7717 170.151 95.4947 170.151 95.1751C170.151 94.7525 170.002 94.4045 169.704 94.131C169.409 93.8576 168.97 93.7209 168.388 93.7209H166.391V96.7305ZM179.402 99.5589V94.8182H181.331V103H179.461V101.546H179.376C179.191 102.004 178.887 102.379 178.465 102.67C178.046 102.961 177.529 103.107 176.915 103.107C176.379 103.107 175.905 102.988 175.493 102.75C175.084 102.508 174.765 102.158 174.534 101.7C174.303 101.239 174.188 100.681 174.188 100.028V94.8182H176.116V99.7294C176.116 100.248 176.258 100.66 176.542 100.965C176.826 101.271 177.199 101.423 177.661 101.423C177.945 101.423 178.22 101.354 178.486 101.216C178.753 101.077 178.971 100.871 179.141 100.598C179.315 100.321 179.402 99.9744 179.402 99.5589ZM185.242 98.206V103H183.314V94.8182H185.157V96.2085H185.252C185.441 95.7504 185.741 95.3864 186.153 95.1165C186.568 94.8466 187.081 94.7116 187.692 94.7116C188.257 94.7116 188.749 94.8324 189.168 95.0739C189.59 95.3153 189.917 95.6651 190.148 96.1232C190.382 96.5813 190.497 97.1371 190.494 97.7905V103H188.566V98.0888C188.566 97.5419 188.424 97.114 188.14 96.805C187.859 96.4961 187.47 96.3416 186.973 96.3416C186.636 96.3416 186.336 96.4162 186.073 96.5653C185.814 96.7109 185.609 96.9222 185.46 97.1992C185.315 97.4762 185.242 97.8118 185.242 98.206ZM195.49 103.144C194.848 103.144 194.272 102.979 193.765 102.648C193.257 102.318 192.855 101.839 192.561 101.21C192.266 100.582 192.119 99.8182 192.119 98.9197C192.119 98.0107 192.268 97.2436 192.566 96.6186C192.868 95.9901 193.274 95.516 193.786 95.1964C194.297 94.8732 194.867 94.7116 195.496 94.7116C195.975 94.7116 196.369 94.7933 196.678 94.9567C196.987 95.1165 197.232 95.31 197.413 95.5373C197.594 95.761 197.735 95.9723 197.834 96.1712H197.914V92.0909H199.848V103H197.951V101.711H197.834C197.735 101.91 197.591 102.121 197.403 102.345C197.214 102.565 196.966 102.753 196.657 102.909C196.348 103.066 195.959 103.144 195.49 103.144ZM196.028 101.562C196.437 101.562 196.785 101.452 197.072 101.232C197.36 101.008 197.578 100.697 197.728 100.299C197.877 99.9016 197.951 99.4382 197.951 98.9091C197.951 98.38 197.877 97.9201 197.728 97.5295C197.582 97.1388 197.365 96.8352 197.078 96.6186C196.794 96.402 196.444 96.2937 196.028 96.2937C195.599 96.2937 195.24 96.4055 194.952 96.6293C194.665 96.853 194.448 97.1619 194.303 97.5561C194.157 97.9503 194.084 98.4013 194.084 98.9091C194.084 99.4205 194.157 99.8768 194.303 100.278C194.452 100.676 194.67 100.99 194.958 101.221C195.249 101.448 195.606 101.562 196.028 101.562ZM203.831 92.0909V103H201.902V92.0909H203.831ZM209.436 103.16C208.615 103.16 207.907 102.989 207.31 102.648C206.717 102.304 206.261 101.817 205.941 101.189C205.622 100.557 205.462 99.8129 205.462 98.957C205.462 98.1154 205.622 97.3768 205.941 96.7411C206.265 96.1019 206.716 95.6048 207.294 95.2496C207.873 94.891 208.553 94.7116 209.334 94.7116C209.839 94.7116 210.315 94.7933 210.762 94.9567C211.213 95.1165 211.611 95.3651 211.955 95.7024C212.303 96.0398 212.577 96.4695 212.776 96.9915C212.974 97.5099 213.074 98.1278 213.074 98.8452V99.4364H206.367V98.1367H211.225C211.222 97.7674 211.142 97.4389 210.986 97.1513C210.83 96.8601 210.611 96.631 210.331 96.4641C210.054 96.2972 209.73 96.2138 209.361 96.2138C208.967 96.2138 208.621 96.3097 208.322 96.5014C208.024 96.6896 207.792 96.9382 207.625 97.2472C207.461 97.5526 207.378 97.8881 207.374 98.2539V99.3885C207.374 99.8643 207.461 100.273 207.635 100.614C207.809 100.951 208.053 101.21 208.365 101.391C208.678 101.569 209.043 101.658 209.462 101.658C209.743 101.658 209.997 101.619 210.224 101.54C210.451 101.459 210.648 101.34 210.815 101.184C210.982 101.027 211.108 100.834 211.193 100.603L212.994 100.805C212.88 101.281 212.664 101.697 212.344 102.052C212.028 102.403 211.623 102.677 211.13 102.872C210.636 103.064 210.071 103.16 209.436 103.16ZM214.705 103V94.8182H216.575V96.1818H216.66C216.809 95.7095 217.065 95.3455 217.427 95.0898C217.793 94.8306 218.21 94.701 218.679 94.701C218.785 94.701 218.904 94.7063 219.036 94.717C219.171 94.7241 219.283 94.7365 219.371 94.7543V96.5281C219.29 96.4996 219.16 96.4748 218.982 96.4535C218.808 96.4286 218.64 96.4162 218.476 96.4162C218.125 96.4162 217.809 96.4925 217.528 96.6452C217.251 96.7944 217.033 97.0021 216.873 97.2685C216.713 97.5348 216.633 97.842 216.633 98.19V103H214.705Z" fill="black"/>
</svg>
