<svg width="383" height="239" viewBox="0 0 383 239" fill="none" xmlns="http://www.w3.org/2000/svg">
<path d="M2.75643 96.0431L30.3426 70.1098C31.3765 69.1379 32.7421 68.5968 34.1611 68.5968H53.7848C55.3243 68.5968 56.5723 67.3488 56.5723 65.8093V38.9574C56.5723 37.5683 57.0908 36.2293 58.0264 35.2025L87.534 2.82002C88.5904 1.6607 90.0863 1 91.6547 1H311.41C312.849 1 314.233 1.55676 315.271 2.55375L349.22 35.1529C350.314 36.2042 350.933 37.6563 350.933 39.1741V87.3431C350.933 88.7959 351.5 90.1913 352.514 91.2322L380.419 119.893C381.433 120.934 382 122.329 382 123.782V161.436C382 162.792 381.505 164.102 380.609 165.12L360.365 188.109C359.306 189.311 357.782 190 356.181 190H34.0102C32.682 190 31.3974 189.526 30.3877 188.663L2.95239 165.209C1.71339 164.15 1 162.602 1 160.972V100.105C1 98.5666 1.63563 97.0967 2.75643 96.0431Z" fill="white" stroke="#93C7F5" stroke-width="1.39373"/>
<path d="M94.8029 35.4545H97.4379V44.9574C97.4379 45.9991 97.1916 46.9152 96.6992 47.706C96.2115 48.4967 95.525 49.1146 94.6396 49.5597C93.7541 50 92.7196 50.2202 91.5359 50.2202C90.3474 50.2202 89.3105 50 88.4251 49.5597C87.5397 49.1146 86.8531 48.4967 86.3654 47.706C85.8777 46.9152 85.6339 45.9991 85.6339 44.9574V35.4545H88.2688V44.7372C88.2688 45.3433 88.4014 45.883 88.6665 46.3565C88.9364 46.83 89.3152 47.2017 89.8029 47.4716C90.2906 47.7367 90.8683 47.8693 91.5359 47.8693C92.2035 47.8693 92.7811 47.7367 93.2688 47.4716C93.7612 47.2017 94.14 46.83 94.4052 46.3565C94.6703 45.883 94.8029 45.3433 94.8029 44.7372V35.4545ZM108.81 41.9744L106.467 42.2301C106.4 41.9934 106.284 41.7708 106.119 41.5625C105.958 41.3542 105.74 41.1861 105.465 41.0582C105.191 40.9304 104.854 40.8665 104.457 40.8665C103.922 40.8665 103.472 40.9825 103.107 41.2145C102.747 41.4465 102.57 41.7472 102.575 42.1165C102.57 42.4337 102.686 42.6918 102.923 42.8906C103.164 43.0895 103.562 43.2528 104.116 43.3807L105.977 43.7784C107.009 44.0009 107.776 44.3537 108.278 44.8366C108.784 45.3196 109.04 45.9517 109.045 46.733C109.04 47.4195 108.839 48.0256 108.441 48.5511C108.048 49.072 107.501 49.4792 106.8 49.7727C106.1 50.0663 105.295 50.2131 104.386 50.2131C103.05 50.2131 101.976 49.9337 101.161 49.375C100.347 48.8116 99.8615 48.0279 99.7053 47.0241L102.212 46.7827C102.326 47.2751 102.567 47.6468 102.937 47.8977C103.306 48.1487 103.787 48.2741 104.379 48.2741C104.989 48.2741 105.479 48.1487 105.849 47.8977C106.223 47.6468 106.41 47.3366 106.41 46.9673C106.41 46.6548 106.289 46.3968 106.048 46.1932C105.811 45.9896 105.442 45.8333 104.94 45.7244L103.079 45.3338C102.032 45.116 101.258 44.7491 100.756 44.233C100.254 43.7121 100.006 43.054 100.011 42.2585C100.006 41.5862 100.188 41.0038 100.558 40.5114C100.932 40.0142 101.45 39.6307 102.113 39.3608C102.781 39.0862 103.55 38.9489 104.421 38.9489C105.7 38.9489 106.706 39.2211 107.44 39.7656C108.178 40.3101 108.635 41.0464 108.81 41.9744ZM115.994 50.2131C114.901 50.2131 113.956 49.9858 113.161 49.5312C112.37 49.072 111.761 48.4233 111.335 47.5852C110.909 46.7424 110.696 45.7505 110.696 44.6094C110.696 43.4872 110.909 42.5024 111.335 41.6548C111.766 40.8026 112.367 40.1397 113.139 39.6662C113.911 39.188 114.818 38.9489 115.859 38.9489C116.532 38.9489 117.166 39.0578 117.763 39.2756C118.364 39.4886 118.894 39.8201 119.354 40.2699C119.818 40.7197 120.182 41.2926 120.447 41.9886C120.713 42.6799 120.845 43.5038 120.845 44.4602V45.2486H111.903V43.5156H118.381C118.376 43.0232 118.269 42.5852 118.061 42.2017C117.853 41.8134 117.562 41.508 117.188 41.2855C116.818 41.063 116.387 40.9517 115.895 40.9517C115.369 40.9517 114.908 41.0795 114.51 41.3352C114.112 41.5862 113.802 41.9176 113.58 42.3295C113.362 42.7367 113.25 43.1842 113.246 43.6719V45.1847C113.246 45.8191 113.362 46.3636 113.594 46.8182C113.826 47.268 114.15 47.6136 114.567 47.8551C114.983 48.0919 115.471 48.2102 116.03 48.2102C116.404 48.2102 116.742 48.1581 117.045 48.054C117.348 47.9451 117.611 47.7865 117.834 47.5781C118.056 47.3698 118.224 47.1117 118.338 46.804L120.739 47.0739C120.587 47.7083 120.298 48.2623 119.872 48.7358C119.451 49.2045 118.911 49.5691 118.253 49.8295C117.595 50.0852 116.842 50.2131 115.994 50.2131ZM123.02 50V39.0909H125.513V40.9091H125.627C125.826 40.2794 126.167 39.794 126.65 39.4531C127.137 39.1075 127.694 38.9347 128.319 38.9347C128.461 38.9347 128.619 38.9418 128.794 38.956C128.974 38.9654 129.123 38.982 129.242 39.0057V41.3707C129.133 41.3329 128.96 41.2997 128.723 41.2713C128.491 41.2382 128.266 41.2216 128.049 41.2216C127.58 41.2216 127.158 41.3234 126.784 41.527C126.415 41.7259 126.124 42.0028 125.911 42.358C125.698 42.7131 125.591 43.1226 125.591 43.5866V50H123.02ZM144.061 42.7273C144.061 44.2945 143.767 45.6368 143.18 46.7543C142.598 47.867 141.802 48.7192 140.794 49.3111C139.79 49.9029 138.651 50.1989 137.377 50.1989C136.104 50.1989 134.963 49.9029 133.954 49.3111C132.95 48.7145 132.155 47.8598 131.568 46.7472C130.985 45.6297 130.694 44.2898 130.694 42.7273C130.694 41.16 130.985 39.8201 131.568 38.7074C132.155 37.59 132.95 36.7353 133.954 36.1435C134.963 35.5516 136.104 35.2557 137.377 35.2557C138.651 35.2557 139.79 35.5516 140.794 36.1435C141.802 36.7353 142.598 37.59 143.18 38.7074C143.767 39.8201 144.061 41.16 144.061 42.7273ZM141.412 42.7273C141.412 41.6241 141.239 40.6937 140.893 39.9361C140.552 39.1738 140.079 38.5985 139.473 38.2102C138.867 37.8172 138.168 37.6207 137.377 37.6207C136.587 37.6207 135.888 37.8172 135.282 38.2102C134.676 38.5985 134.2 39.1738 133.855 39.9361C133.514 40.6937 133.343 41.6241 133.343 42.7273C133.343 43.8305 133.514 44.7633 133.855 45.5256C134.2 46.2831 134.676 46.8584 135.282 47.2514C135.888 47.6397 136.587 47.8338 137.377 47.8338C138.168 47.8338 138.867 47.6397 139.473 47.2514C140.079 46.8584 140.552 46.2831 140.893 45.5256C141.239 44.7633 141.412 43.8305 141.412 42.7273ZM146.438 54.0909V39.0909H148.967V40.8949H149.116C149.248 40.6297 149.435 40.348 149.677 40.0497C149.918 39.7467 150.245 39.4886 150.657 39.2756C151.069 39.0578 151.594 38.9489 152.234 38.9489C153.076 38.9489 153.836 39.1643 154.513 39.5952C155.195 40.0213 155.735 40.6534 156.133 41.4915C156.535 42.3248 156.737 43.3475 156.737 44.5597C156.737 45.7576 156.54 46.7756 156.147 47.6136C155.754 48.4517 155.219 49.0909 154.542 49.5312C153.865 49.9716 153.098 50.1918 152.241 50.1918C151.616 50.1918 151.097 50.0876 150.685 49.8793C150.273 49.6709 149.942 49.42 149.691 49.1264C149.445 48.8281 149.253 48.5464 149.116 48.2812H149.009V54.0909H146.438ZM148.96 44.5455C148.96 45.2509 149.059 45.8688 149.258 46.3991C149.461 46.9295 149.753 47.3437 150.131 47.642C150.515 47.9356 150.979 48.0824 151.523 48.0824C152.092 48.0824 152.567 47.9309 152.951 47.6278C153.335 47.3201 153.623 46.901 153.817 46.3707C154.016 45.8357 154.116 45.2273 154.116 44.5455C154.116 43.8684 154.019 43.267 153.825 42.7415C153.63 42.2159 153.342 41.804 152.958 41.5057C152.575 41.2074 152.096 41.0582 151.523 41.0582C150.974 41.0582 150.508 41.2027 150.124 41.4915C149.741 41.7803 149.45 42.1851 149.251 42.706C149.057 43.2268 148.96 43.84 148.96 44.5455ZM163.768 50.2131C162.674 50.2131 161.729 49.9858 160.934 49.5312C160.143 49.072 159.535 48.4233 159.109 47.5852C158.683 46.7424 158.469 45.7505 158.469 44.6094C158.469 43.4872 158.683 42.5024 159.109 41.6548C159.54 40.8026 160.141 40.1397 160.913 39.6662C161.684 39.188 162.591 38.9489 163.633 38.9489C164.305 38.9489 164.94 39.0578 165.536 39.2756C166.138 39.4886 166.668 39.8201 167.127 40.2699C167.591 40.7197 167.956 41.2926 168.221 41.9886C168.486 42.6799 168.619 43.5038 168.619 44.4602V45.2486H159.677V43.5156H166.154C166.149 43.0232 166.043 42.5852 165.835 42.2017C165.626 41.8134 165.335 41.508 164.961 41.2855C164.592 41.063 164.161 40.9517 163.668 40.9517C163.143 40.9517 162.681 41.0795 162.283 41.3352C161.886 41.5862 161.576 41.9176 161.353 42.3295C161.135 42.7367 161.024 43.1842 161.019 43.6719V45.1847C161.019 45.8191 161.135 46.3636 161.367 46.8182C161.599 47.268 161.924 47.6136 162.34 47.8551C162.757 48.0919 163.245 48.2102 163.803 48.2102C164.177 48.2102 164.516 48.1581 164.819 48.054C165.122 47.9451 165.385 47.7865 165.607 47.5781C165.83 47.3698 165.998 47.1117 166.112 46.804L168.512 47.0739C168.361 47.7083 168.072 48.2623 167.646 48.7358C167.224 49.2045 166.684 49.5691 166.026 49.8295C165.368 50.0852 164.615 50.2131 163.768 50.2131ZM170.794 50V39.0909H173.287V40.9091H173.4C173.599 40.2794 173.94 39.794 174.423 39.4531C174.911 39.1075 175.467 38.9347 176.092 38.9347C176.234 38.9347 176.393 38.9418 176.568 38.956C176.748 38.9654 176.897 38.982 177.015 39.0057V41.3707C176.906 41.3329 176.734 41.2997 176.497 41.2713C176.265 41.2382 176.04 41.2216 175.822 41.2216C175.353 41.2216 174.932 41.3234 174.558 41.527C174.189 41.7259 173.897 42.0028 173.684 42.358C173.471 42.7131 173.365 43.1226 173.365 43.5866V50H170.794ZM181.667 50.2202C180.976 50.2202 180.353 50.0971 179.799 49.8509C179.25 49.5999 178.815 49.2306 178.493 48.7429C178.175 48.2552 178.017 47.6539 178.017 46.9389C178.017 46.3234 178.13 45.8144 178.358 45.4119C178.585 45.0095 178.895 44.6875 179.288 44.446C179.681 44.2045 180.124 44.0223 180.616 43.8991C181.113 43.7713 181.627 43.679 182.157 43.6222C182.797 43.5559 183.315 43.4967 183.713 43.4446C184.11 43.3878 184.399 43.3026 184.579 43.1889C184.764 43.0705 184.856 42.8883 184.856 42.642V42.5994C184.856 42.0644 184.698 41.6501 184.38 41.3565C184.063 41.063 183.606 40.9162 183.01 40.9162C182.38 40.9162 181.88 41.0535 181.511 41.3281C181.146 41.6027 180.9 41.9271 180.772 42.3011L178.372 41.9602C178.561 41.2973 178.874 40.7434 179.309 40.2983C179.745 39.8485 180.278 39.5123 180.907 39.2898C181.537 39.0625 182.233 38.9489 182.995 38.9489C183.521 38.9489 184.044 39.0104 184.565 39.1335C185.086 39.2566 185.562 39.4602 185.993 39.7443C186.423 40.0237 186.769 40.4048 187.029 40.8878C187.295 41.3707 187.427 41.9744 187.427 42.6989V50H184.956V48.5014H184.87C184.714 48.8045 184.494 49.0885 184.21 49.3537C183.931 49.6141 183.578 49.8248 183.152 49.9858C182.73 50.142 182.235 50.2202 181.667 50.2202ZM182.335 48.331C182.851 48.331 183.298 48.2292 183.677 48.0256C184.056 47.8172 184.347 47.5426 184.551 47.2017C184.759 46.8608 184.863 46.4891 184.863 46.0866V44.8011C184.783 44.8674 184.645 44.929 184.451 44.9858C184.262 45.0426 184.049 45.0923 183.812 45.1349C183.575 45.1776 183.341 45.2154 183.109 45.2486C182.877 45.2817 182.676 45.3101 182.505 45.3338C182.122 45.3859 181.779 45.4711 181.475 45.5895C181.172 45.7079 180.933 45.8736 180.758 46.0866C180.583 46.295 180.495 46.5649 180.495 46.8963C180.495 47.3698 180.668 47.7273 181.014 47.9688C181.359 48.2102 181.8 48.331 182.335 48.331ZM195.46 39.0909V41.0795H189.189V39.0909H195.46ZM190.737 36.4773H193.308V46.7188C193.308 47.0644 193.36 47.3295 193.464 47.5142C193.573 47.6941 193.715 47.8172 193.89 47.8835C194.065 47.9498 194.26 47.983 194.473 47.983C194.634 47.983 194.78 47.9711 194.913 47.9474C195.05 47.9238 195.154 47.9025 195.225 47.8835L195.659 49.8935C195.521 49.9408 195.325 49.9929 195.069 50.0497C194.818 50.1065 194.511 50.1397 194.146 50.1491C193.502 50.1681 192.922 50.071 192.406 49.858C191.89 49.6402 191.48 49.304 191.177 48.8494C190.879 48.3949 190.732 47.8267 190.737 47.1449V36.4773ZM197.61 50V39.0909H200.181V50H197.61ZM198.903 37.5426C198.496 37.5426 198.145 37.4077 197.852 37.1378C197.558 36.8632 197.411 36.5341 197.411 36.1506C197.411 35.7623 197.558 35.4332 197.852 35.1634C198.145 34.8887 198.496 34.7514 198.903 34.7514C199.315 34.7514 199.665 34.8887 199.954 35.1634C200.247 35.4332 200.394 35.7623 200.394 36.1506C200.394 36.5341 200.247 36.8632 199.954 37.1378C199.665 37.4077 199.315 37.5426 198.903 37.5426ZM207.583 50.2131C206.518 50.2131 205.595 49.9787 204.814 49.5099C204.032 49.0412 203.426 48.3854 202.995 47.5426C202.569 46.6998 202.356 45.715 202.356 44.5881C202.356 43.4612 202.569 42.474 202.995 41.6264C203.426 40.7789 204.032 40.1207 204.814 39.652C205.595 39.1832 206.518 38.9489 207.583 38.9489C208.649 38.9489 209.572 39.1832 210.353 39.652C211.135 40.1207 211.738 40.7789 212.164 41.6264C212.595 42.474 212.811 43.4612 212.811 44.5881C212.811 45.715 212.595 46.6998 212.164 47.5426C211.738 48.3854 211.135 49.0412 210.353 49.5099C209.572 49.9787 208.649 50.2131 207.583 50.2131ZM207.598 48.1534C208.175 48.1534 208.658 47.9948 209.047 47.6776C209.435 47.3556 209.724 46.9247 209.913 46.3849C210.107 45.8452 210.204 45.2438 210.204 44.581C210.204 43.9134 210.107 43.3097 209.913 42.7699C209.724 42.2254 209.435 41.7921 209.047 41.4702C208.658 41.1482 208.175 40.9872 207.598 40.9872C207.006 40.9872 206.513 41.1482 206.12 41.4702C205.732 41.7921 205.441 42.2254 205.247 42.7699C205.057 43.3097 204.963 43.9134 204.963 44.581C204.963 45.2438 205.057 45.8452 205.247 46.3849C205.441 46.9247 205.732 47.3556 206.12 47.6776C206.513 47.9948 207.006 48.1534 207.598 48.1534ZM217.564 43.608V50H214.993V39.0909H217.45V40.9446H217.578C217.829 40.3338 218.229 39.8485 218.778 39.4886C219.332 39.1288 220.017 38.9489 220.831 38.9489C221.584 38.9489 222.24 39.1098 222.798 39.4318C223.362 39.7538 223.797 40.2202 224.105 40.831C224.418 41.4418 224.571 42.1828 224.567 43.054V50H221.996V43.4517C221.996 42.7225 221.806 42.152 221.428 41.7401C221.054 41.3281 220.535 41.1222 219.872 41.1222C219.422 41.1222 219.022 41.2216 218.672 41.4205C218.326 41.6146 218.054 41.8963 217.855 42.2656C217.661 42.6349 217.564 43.0824 217.564 43.608ZM232.255 35.4545H235.479L239.798 45.9943H239.968L244.286 35.4545H247.511V50H244.982V40.0071H244.847L240.827 49.9574H238.938L234.918 39.9858H234.783V50H232.255V35.4545ZM255.096 50.2131C254.002 50.2131 253.058 49.9858 252.262 49.5312C251.471 49.072 250.863 48.4233 250.437 47.5852C250.011 46.7424 249.798 45.7505 249.798 44.6094C249.798 43.4872 250.011 42.5024 250.437 41.6548C250.868 40.8026 251.469 40.1397 252.241 39.6662C253.013 39.188 253.919 38.9489 254.961 38.9489C255.633 38.9489 256.268 39.0578 256.864 39.2756C257.466 39.4886 257.996 39.8201 258.455 40.2699C258.919 40.7197 259.284 41.2926 259.549 41.9886C259.814 42.6799 259.947 43.5038 259.947 44.4602V45.2486H251.005V43.5156H257.482C257.478 43.0232 257.371 42.5852 257.163 42.2017C256.954 41.8134 256.663 41.508 256.289 41.2855C255.92 41.063 255.489 40.9517 254.996 40.9517C254.471 40.9517 254.009 41.0795 253.612 41.3352C253.214 41.5862 252.904 41.9176 252.681 42.3295C252.463 42.7367 252.352 43.1842 252.347 43.6719V45.1847C252.347 45.8191 252.463 46.3636 252.695 46.8182C252.927 47.268 253.252 47.6136 253.668 47.8551C254.085 48.0919 254.573 48.2102 255.131 48.2102C255.505 48.2102 255.844 48.1581 256.147 48.054C256.45 47.9451 256.713 47.7865 256.935 47.5781C257.158 47.3698 257.326 47.1117 257.44 46.804L259.84 47.0739C259.689 47.7083 259.4 48.2623 258.974 48.7358C258.552 49.2045 258.013 49.5691 257.354 49.8295C256.696 50.0852 255.943 50.2131 255.096 50.2131ZM262.122 50V39.0909H264.579V40.9446H264.707C264.934 40.3196 265.311 39.8319 265.836 39.4815C266.362 39.1264 266.989 38.9489 267.718 38.9489C268.457 38.9489 269.08 39.1288 269.586 39.4886C270.098 39.8437 270.458 40.3291 270.666 40.9446H270.779C271.021 40.3385 271.428 39.8556 272.001 39.4957C272.579 39.1312 273.263 38.9489 274.054 38.9489C275.057 38.9489 275.877 39.2661 276.511 39.9006C277.145 40.535 277.463 41.4607 277.463 42.6776V50H274.885V43.0753C274.885 42.3982 274.705 41.9034 274.345 41.5909C273.985 41.2737 273.545 41.1151 273.024 41.1151C272.404 41.1151 271.918 41.3092 271.568 41.6974C271.222 42.081 271.049 42.5805 271.049 43.196V50H268.528V42.9688C268.528 42.4053 268.358 41.9555 268.017 41.6193C267.681 41.2831 267.24 41.1151 266.696 41.1151C266.326 41.1151 265.99 41.2098 265.687 41.3991C265.384 41.5838 265.143 41.8466 264.963 42.1875C264.783 42.5237 264.693 42.9167 264.693 43.3665V50H262.122ZM280.071 54.0909V39.0909H282.599V40.8949H282.749C282.881 40.6297 283.068 40.348 283.31 40.0497C283.551 39.7467 283.878 39.4886 284.29 39.2756C284.702 39.0578 285.227 38.9489 285.866 38.9489C286.709 38.9489 287.469 39.1643 288.146 39.5952C288.828 40.0213 289.368 40.6534 289.766 41.4915C290.168 42.3248 290.369 43.3475 290.369 44.5597C290.369 45.7576 290.173 46.7756 289.78 47.6136C289.387 48.4517 288.852 49.0909 288.175 49.5312C287.498 49.9716 286.731 50.1918 285.874 50.1918C285.249 50.1918 284.73 50.0876 284.318 49.8793C283.906 49.6709 283.575 49.42 283.324 49.1264C283.078 48.8281 282.886 48.5464 282.749 48.2812H282.642V54.0909H280.071ZM282.592 44.5455C282.592 45.2509 282.692 45.8688 282.891 46.3991C283.094 46.9295 283.385 47.3437 283.764 47.642C284.148 47.9356 284.612 48.0824 285.156 48.0824C285.724 48.0824 286.2 47.9309 286.584 47.6278C286.967 47.3201 287.256 46.901 287.45 46.3707C287.649 45.8357 287.749 45.2273 287.749 44.5455C287.749 43.8684 287.652 43.267 287.457 42.7415C287.263 42.2159 286.974 41.804 286.591 41.5057C286.207 41.2074 285.729 41.0582 285.156 41.0582C284.607 41.0582 284.141 41.2027 283.757 41.4915C283.374 41.7803 283.082 42.1851 282.884 42.706C282.689 43.2268 282.592 43.84 282.592 44.5455ZM297.33 50.2131C296.264 50.2131 295.341 49.9787 294.56 49.5099C293.778 49.0412 293.172 48.3854 292.741 47.5426C292.315 46.6998 292.102 45.715 292.102 44.5881C292.102 43.4612 292.315 42.474 292.741 41.6264C293.172 40.7789 293.778 40.1207 294.56 39.652C295.341 39.1832 296.264 38.9489 297.33 38.9489C298.395 38.9489 299.318 39.1832 300.099 39.652C300.881 40.1207 301.484 40.7789 301.911 41.6264C302.341 42.474 302.557 43.4612 302.557 44.5881C302.557 45.715 302.341 46.6998 301.911 47.5426C301.484 48.3854 300.881 49.0412 300.099 49.5099C299.318 49.9787 298.395 50.2131 297.33 50.2131ZM297.344 48.1534C297.921 48.1534 298.404 47.9948 298.793 47.6776C299.181 47.3556 299.47 46.9247 299.659 46.3849C299.853 45.8452 299.95 45.2438 299.95 44.581C299.95 43.9134 299.853 43.3097 299.659 42.7699C299.47 42.2254 299.181 41.7921 298.793 41.4702C298.404 41.1482 297.921 40.9872 297.344 40.9872C296.752 40.9872 296.259 41.1482 295.866 41.4702C295.478 41.7921 295.187 42.2254 294.993 42.7699C294.804 43.3097 294.709 43.9134 294.709 44.581C294.709 45.2438 294.804 45.8452 294.993 46.3849C295.187 46.9247 295.478 47.3556 295.866 47.6776C296.259 47.9948 296.752 48.1534 297.344 48.1534ZM309.498 50.2131C308.432 50.2131 307.509 49.9787 306.728 49.5099C305.946 49.0412 305.34 48.3854 304.909 47.5426C304.483 46.6998 304.27 45.715 304.27 44.5881C304.27 43.4612 304.483 42.474 304.909 41.6264C305.34 40.7789 305.946 40.1207 306.728 39.652C307.509 39.1832 308.432 38.9489 309.498 38.9489C310.563 38.9489 311.486 39.1832 312.267 39.652C313.049 40.1207 313.652 40.7789 314.078 41.6264C314.509 42.474 314.725 43.4612 314.725 44.5881C314.725 45.715 314.509 46.6998 314.078 47.5426C313.652 48.3854 313.049 49.0412 312.267 49.5099C311.486 49.9787 310.563 50.2131 309.498 50.2131ZM309.512 48.1534C310.089 48.1534 310.572 47.9948 310.961 47.6776C311.349 47.3556 311.638 46.9247 311.827 46.3849C312.021 45.8452 312.118 45.2438 312.118 44.581C312.118 43.9134 312.021 43.3097 311.827 42.7699C311.638 42.2254 311.349 41.7921 310.961 41.4702C310.572 41.1482 310.089 40.9872 309.512 40.9872C308.92 40.9872 308.427 41.1482 308.034 41.4702C307.646 41.7921 307.355 42.2254 307.161 42.7699C306.971 43.3097 306.877 43.9134 306.877 44.581C306.877 45.2438 306.971 45.8452 307.161 46.3849C307.355 46.9247 307.646 47.3556 308.034 47.6776C308.427 47.9948 308.92 48.1534 309.512 48.1534ZM319.478 35.4545V50H316.907V35.4545H319.478Z" fill="black"/>
<path d="M153.214 88.0909H155.19V95.218C155.19 95.9993 155.006 96.6864 154.636 97.2795C154.27 97.8725 153.756 98.3359 153.091 98.6697C152.427 99 151.652 99.1651 150.764 99.1651C149.872 99.1651 149.095 99 148.431 98.6697C147.767 98.3359 147.252 97.8725 146.886 97.2795C146.52 96.6864 146.337 95.9993 146.337 95.218V88.0909H148.313V95.0529C148.313 95.5075 148.413 95.9123 148.612 96.2674C148.814 96.6225 149.098 96.9013 149.464 97.1037C149.83 97.3026 150.263 97.402 150.764 97.402C151.264 97.402 151.698 97.3026 152.063 97.1037C152.433 96.9013 152.717 96.6225 152.916 96.2674C153.115 95.9123 153.214 95.5075 153.214 95.0529V88.0909ZM163.72 92.9808L161.962 93.1726C161.912 92.995 161.825 92.8281 161.701 92.6719C161.58 92.5156 161.417 92.3896 161.211 92.2937C161.005 92.1978 160.753 92.1499 160.454 92.1499C160.053 92.1499 159.716 92.2369 159.442 92.4109C159.172 92.5849 159.039 92.8104 159.043 93.0874C159.039 93.3253 159.126 93.5188 159.304 93.668C159.485 93.8171 159.783 93.9396 160.199 94.0355L161.594 94.3338C162.368 94.5007 162.944 94.7653 163.32 95.1275C163.7 95.4897 163.892 95.9638 163.895 96.5497C163.892 97.0646 163.741 97.5192 163.443 97.9134C163.148 98.304 162.738 98.6094 162.212 98.8295C161.687 99.0497 161.083 99.1598 160.401 99.1598C159.4 99.1598 158.594 98.9503 157.983 98.5312C157.372 98.1087 157.008 97.521 156.891 96.7681L158.771 96.587C158.856 96.9563 159.037 97.2351 159.314 97.4233C159.591 97.6115 159.952 97.7056 160.396 97.7056C160.854 97.7056 161.221 97.6115 161.498 97.4233C161.779 97.2351 161.919 97.0025 161.919 96.7255C161.919 96.4911 161.829 96.2976 161.648 96.1449C161.47 95.9922 161.193 95.875 160.817 95.7933L159.421 95.5004C158.636 95.337 158.056 95.0618 157.679 94.6747C157.303 94.2841 157.116 93.7905 157.12 93.1939C157.116 92.6896 157.253 92.2528 157.53 91.8835C157.811 91.5107 158.199 91.223 158.697 91.0206C159.197 90.8146 159.774 90.7116 160.428 90.7116C161.386 90.7116 162.141 90.9158 162.692 91.3242C163.246 91.7326 163.588 92.2848 163.72 92.9808ZM169.108 99.1598C168.287 99.1598 167.579 98.9893 166.982 98.6484C166.389 98.304 165.933 97.8175 165.613 97.1889C165.294 96.5568 165.134 95.8129 165.134 94.957C165.134 94.1154 165.294 93.3768 165.613 92.7411C165.936 92.1019 166.387 91.6048 166.966 91.2496C167.545 90.891 168.225 90.7116 169.006 90.7116C169.511 90.7116 169.986 90.7933 170.434 90.9567C170.885 91.1165 171.283 91.3651 171.627 91.7024C171.975 92.0398 172.249 92.4695 172.447 92.9915C172.646 93.5099 172.746 94.1278 172.746 94.8452V95.4364H166.039V94.1367H170.897C170.894 93.7674 170.814 93.4389 170.658 93.1513C170.501 92.8601 170.283 92.631 170.002 92.4641C169.725 92.2972 169.402 92.2138 169.033 92.2138C168.639 92.2138 168.293 92.3097 167.994 92.5014C167.696 92.6896 167.463 92.9382 167.296 93.2472C167.133 93.5526 167.05 93.8881 167.046 94.2539V95.3885C167.046 95.8643 167.133 96.2727 167.307 96.6136C167.481 96.951 167.724 97.2102 168.037 97.3913C168.349 97.5689 168.715 97.6577 169.134 97.6577C169.415 97.6577 169.669 97.6186 169.896 97.5405C170.123 97.4588 170.32 97.3398 170.487 97.1836C170.654 97.0273 170.78 96.8338 170.865 96.603L172.666 96.8054C172.552 97.2812 172.336 97.6967 172.016 98.0518C171.7 98.4034 171.295 98.6768 170.801 98.8722C170.308 99.0639 169.743 99.1598 169.108 99.1598ZM174.377 99V90.8182H176.247V92.1818H176.332C176.481 91.7095 176.737 91.3455 177.099 91.0898C177.465 90.8306 177.882 90.701 178.351 90.701C178.457 90.701 178.576 90.7063 178.708 90.717C178.843 90.7241 178.954 90.7365 179.043 90.7543V92.5281C178.962 92.4996 178.832 92.4748 178.654 92.4535C178.48 92.4286 178.312 92.4162 178.148 92.4162C177.797 92.4162 177.481 92.4925 177.2 92.6452C176.923 92.7944 176.705 93.0021 176.545 93.2685C176.385 93.5348 176.305 93.842 176.305 94.19V99H174.377ZM190.157 93.5455C190.157 94.7209 189.937 95.7276 189.497 96.5657C189.06 97.4002 188.463 98.0394 187.707 98.4833C186.954 98.9272 186.1 99.1491 185.145 99.1491C184.19 99.1491 183.334 98.9272 182.577 98.4833C181.825 98.0359 181.228 97.3949 180.788 96.5604C180.351 95.7223 180.133 94.7173 180.133 93.5455C180.133 92.37 180.351 91.3651 180.788 90.5305C181.228 89.6925 181.825 89.0515 182.577 88.6076C183.334 88.1637 184.19 87.9418 185.145 87.9418C186.1 87.9418 186.954 88.1637 187.707 88.6076C188.463 89.0515 189.06 89.6925 189.497 90.5305C189.937 91.3651 190.157 92.37 190.157 93.5455ZM188.17 93.5455C188.17 92.718 188.041 92.0202 187.782 91.4521C187.526 90.8803 187.171 90.4489 186.716 90.1577C186.262 89.8629 185.738 89.7156 185.145 89.7156C184.552 89.7156 184.028 89.8629 183.574 90.1577C183.119 90.4489 182.762 90.8803 182.503 91.4521C182.247 92.0202 182.119 92.718 182.119 93.5455C182.119 94.3729 182.247 95.0724 182.503 95.6442C182.762 96.2124 183.119 96.6438 183.574 96.9386C184.028 97.2298 184.552 97.3754 185.145 97.3754C185.738 97.3754 186.262 97.2298 186.716 96.9386C187.171 96.6438 187.526 96.2124 187.782 95.6442C188.041 95.0724 188.17 94.3729 188.17 93.5455ZM191.94 102.068V90.8182H193.837V92.1712H193.949C194.048 91.9723 194.188 91.761 194.369 91.5373C194.551 91.31 194.796 91.1165 195.105 90.9567C195.413 90.7933 195.808 90.7116 196.287 90.7116C196.919 90.7116 197.489 90.8732 197.997 91.1964C198.508 91.516 198.913 91.9901 199.211 92.6186C199.513 93.2436 199.664 94.0107 199.664 94.9197C199.664 95.8182 199.517 96.5817 199.222 97.2102C198.927 97.8388 198.526 98.3182 198.018 98.6484C197.51 98.9787 196.935 99.1438 196.292 99.1438C195.824 99.1438 195.435 99.0657 195.126 98.9094C194.817 98.7532 194.568 98.565 194.38 98.3448C194.195 98.1211 194.052 97.9098 193.949 97.7109H193.869V102.068H191.94ZM193.831 94.9091C193.831 95.4382 193.906 95.9016 194.055 96.2994C194.208 96.6971 194.426 97.0078 194.71 97.2315C194.998 97.4517 195.346 97.5618 195.754 97.5618C196.181 97.5618 196.537 97.4482 196.825 97.2209C197.113 96.9901 197.329 96.6758 197.475 96.2781C197.624 95.8768 197.699 95.4205 197.699 94.9091C197.699 94.4013 197.626 93.9503 197.48 93.5561C197.335 93.1619 197.118 92.853 196.83 92.6293C196.543 92.4055 196.184 92.2937 195.754 92.2937C195.342 92.2937 194.993 92.402 194.705 92.6186C194.417 92.8352 194.199 93.1388 194.05 93.5295C193.904 93.9201 193.831 94.38 193.831 94.9091ZM204.938 99.1598C204.117 99.1598 203.409 98.9893 202.812 98.6484C202.219 98.304 201.763 97.8175 201.443 97.1889C201.124 96.5568 200.964 95.8129 200.964 94.957C200.964 94.1154 201.124 93.3768 201.443 92.7411C201.766 92.1019 202.217 91.6048 202.796 91.2496C203.375 90.891 204.055 90.7116 204.836 90.7116C205.341 90.7116 205.817 90.7933 206.264 90.9567C206.715 91.1165 207.113 91.3651 207.457 91.7024C207.805 92.0398 208.079 92.4695 208.277 92.9915C208.476 93.5099 208.576 94.1278 208.576 94.8452V95.4364H201.869V94.1367H206.727C206.724 93.7674 206.644 93.4389 206.488 93.1513C206.331 92.8601 206.113 92.631 205.833 92.4641C205.556 92.2972 205.232 92.2138 204.863 92.2138C204.469 92.2138 204.123 92.3097 203.824 92.5014C203.526 92.6896 203.293 92.9382 203.127 93.2472C202.963 93.5526 202.88 93.8881 202.876 94.2539V95.3885C202.876 95.8643 202.963 96.2727 203.137 96.6136C203.311 96.951 203.554 97.2102 203.867 97.3913C204.179 97.5689 204.545 97.6577 204.964 97.6577C205.245 97.6577 205.499 97.6186 205.726 97.5405C205.953 97.4588 206.15 97.3398 206.317 97.1836C206.484 97.0273 206.61 96.8338 206.695 96.603L208.496 96.8054C208.382 97.2812 208.166 97.6967 207.846 98.0518C207.53 98.4034 207.125 98.6768 206.632 98.8722C206.138 99.0639 205.573 99.1598 204.938 99.1598ZM210.207 99V90.8182H212.077V92.1818H212.162C212.311 91.7095 212.567 91.3455 212.929 91.0898C213.295 90.8306 213.712 90.701 214.181 90.701C214.287 90.701 214.406 90.7063 214.538 90.717C214.673 90.7241 214.784 90.7365 214.873 90.7543V92.5281C214.792 92.4996 214.662 92.4748 214.484 92.4535C214.31 92.4286 214.142 92.4162 213.978 92.4162C213.627 92.4162 213.311 92.4925 213.03 92.6452C212.753 92.7944 212.535 93.0021 212.375 93.2685C212.215 93.5348 212.135 93.842 212.135 94.19V99H210.207ZM218.362 99.1651C217.844 99.1651 217.377 99.0728 216.961 98.8881C216.549 98.6999 216.223 98.4229 215.981 98.0572C215.743 97.6914 215.624 97.2404 215.624 96.7042C215.624 96.2425 215.71 95.8608 215.88 95.5589C216.05 95.2571 216.283 95.0156 216.578 94.8345C216.873 94.6534 217.205 94.5167 217.574 94.4244C217.947 94.3285 218.332 94.2592 218.73 94.2166C219.209 94.1669 219.598 94.1225 219.896 94.0835C220.195 94.0408 220.411 93.9769 220.546 93.8917C220.685 93.8029 220.754 93.6662 220.754 93.4815V93.4496C220.754 93.0483 220.635 92.7376 220.397 92.5174C220.159 92.2972 219.816 92.1871 219.369 92.1871C218.897 92.1871 218.522 92.2901 218.245 92.4961C217.972 92.7021 217.787 92.9453 217.691 93.2259L215.891 92.9702C216.033 92.473 216.267 92.0575 216.594 91.7237C216.92 91.3864 217.32 91.1342 217.792 90.9673C218.265 90.7969 218.787 90.7116 219.358 90.7116C219.753 90.7116 220.145 90.7578 220.536 90.8501C220.926 90.9425 221.283 91.0952 221.606 91.3082C221.929 91.5178 222.189 91.8036 222.384 92.1658C222.583 92.5281 222.682 92.9808 222.682 93.5241V99H220.829V97.8761H220.765C220.647 98.1033 220.482 98.3164 220.269 98.5153C220.06 98.7106 219.795 98.8686 219.476 98.9893C219.159 99.1065 218.788 99.1651 218.362 99.1651ZM218.863 97.7482C219.25 97.7482 219.586 97.6719 219.87 97.5192C220.154 97.3629 220.372 97.157 220.525 96.9013C220.681 96.6456 220.759 96.3668 220.759 96.065V95.1009C220.699 95.1506 220.596 95.1967 220.45 95.2393C220.308 95.282 220.148 95.3192 219.971 95.3512C219.793 95.3832 219.618 95.4116 219.444 95.4364C219.27 95.4613 219.119 95.4826 218.991 95.5004C218.703 95.5394 218.446 95.6033 218.218 95.6921C217.991 95.7809 217.812 95.9052 217.68 96.065C217.549 96.2212 217.483 96.4237 217.483 96.6722C217.483 97.0273 217.613 97.2955 217.872 97.4766C218.131 97.6577 218.462 97.7482 218.863 97.7482ZM228.707 90.8182V92.3097H224.003V90.8182H228.707ZM225.164 88.858H227.093V96.5391C227.093 96.7983 227.132 96.9972 227.21 97.1357C227.292 97.2706 227.398 97.3629 227.53 97.4126C227.661 97.4624 227.807 97.4872 227.966 97.4872C228.087 97.4872 228.197 97.4783 228.297 97.4606C228.4 97.4428 228.478 97.4268 228.531 97.4126L228.856 98.9201C228.753 98.9556 228.606 98.9947 228.414 99.0373C228.226 99.0799 227.995 99.1048 227.721 99.1119C227.238 99.1261 226.803 99.0533 226.416 98.8935C226.029 98.7301 225.722 98.478 225.495 98.1371C225.271 97.7962 225.161 97.37 225.164 96.8587V88.858ZM230.319 99V90.8182H232.248V99H230.319ZM231.289 89.657C230.983 89.657 230.721 89.5558 230.5 89.3533C230.28 89.1474 230.17 88.9006 230.17 88.6129C230.17 88.3217 230.28 88.0749 230.5 87.8725C230.721 87.6665 230.983 87.5636 231.289 87.5636C231.598 87.5636 231.861 87.6665 232.077 87.8725C232.297 88.0749 232.407 88.3217 232.407 88.6129C232.407 88.9006 232.297 89.1474 232.077 89.3533C231.861 89.5558 231.598 89.657 231.289 89.657ZM237.799 99.1598C237 99.1598 236.308 98.984 235.722 98.6325C235.136 98.2809 234.682 97.7891 234.358 97.157C234.039 96.5249 233.879 95.7862 233.879 94.9411C233.879 94.0959 234.039 93.3555 234.358 92.7198C234.682 92.0842 235.136 91.5906 235.722 91.239C236.308 90.8874 237 90.7116 237.799 90.7116C238.598 90.7116 239.291 90.8874 239.877 91.239C240.463 91.5906 240.916 92.0842 241.235 92.7198C241.558 93.3555 241.72 94.0959 241.72 94.9411C241.72 95.7862 241.558 96.5249 241.235 97.157C240.916 97.7891 240.463 98.2809 239.877 98.6325C239.291 98.984 238.598 99.1598 237.799 99.1598ZM237.81 97.6151C238.243 97.6151 238.606 97.4961 238.897 97.2582C239.188 97.0167 239.405 96.6935 239.547 96.2887C239.692 95.8839 239.765 95.4329 239.765 94.9357C239.765 94.435 239.692 93.9822 239.547 93.5774C239.405 93.169 239.188 92.8441 238.897 92.6026C238.606 92.3612 238.243 92.2404 237.81 92.2404C237.366 92.2404 236.997 92.3612 236.702 92.6026C236.411 92.8441 236.193 93.169 236.047 93.5774C235.905 93.9822 235.834 94.435 235.834 94.9357C235.834 95.4329 235.905 95.8839 236.047 96.2887C236.193 96.6935 236.411 97.0167 236.702 97.2582C236.997 97.4961 237.366 97.6151 237.81 97.6151ZM245.285 94.206V99H243.356V90.8182H245.2V92.2085H245.295C245.484 91.7504 245.784 91.3864 246.196 91.1165C246.611 90.8466 247.124 90.7116 247.735 90.7116C248.3 90.7116 248.792 90.8324 249.211 91.0739C249.633 91.3153 249.96 91.6651 250.191 92.1232C250.425 92.5813 250.54 93.1371 250.537 93.7905V99H248.609V94.0888C248.609 93.5419 248.467 93.114 248.182 92.805C247.902 92.4961 247.513 92.3416 247.016 92.3416C246.679 92.3416 246.379 92.4162 246.116 92.5653C245.856 92.7109 245.652 92.9222 245.503 93.1992C245.358 93.4762 245.285 93.8118 245.285 94.206ZM258.964 92.9808L257.206 93.1726C257.156 92.995 257.069 92.8281 256.945 92.6719C256.824 92.5156 256.661 92.3896 256.455 92.2937C256.249 92.1978 255.997 92.1499 255.698 92.1499C255.297 92.1499 254.96 92.2369 254.686 92.4109C254.417 92.5849 254.283 92.8104 254.287 93.0874C254.283 93.3253 254.37 93.5188 254.548 93.668C254.729 93.8171 255.027 93.9396 255.443 94.0355L256.838 94.3338C257.613 94.5007 258.188 94.7653 258.564 95.1275C258.944 95.4897 259.136 95.9638 259.14 96.5497C259.136 97.0646 258.985 97.5192 258.687 97.9134C258.392 98.304 257.982 98.6094 257.456 98.8295C256.931 99.0497 256.327 99.1598 255.645 99.1598C254.644 99.1598 253.838 98.9503 253.227 98.5312C252.616 98.1087 252.252 97.521 252.135 96.7681L254.015 96.587C254.1 96.9563 254.282 97.2351 254.559 97.4233C254.836 97.6115 255.196 97.7056 255.64 97.7056C256.098 97.7056 256.466 97.6115 256.742 97.4233C257.023 97.2351 257.163 97.0025 257.163 96.7255C257.163 96.4911 257.073 96.2976 256.892 96.1449C256.714 95.9922 256.437 95.875 256.061 95.7933L254.665 95.5004C253.88 95.337 253.3 95.0618 252.923 94.6747C252.547 94.2841 252.36 93.7905 252.364 93.1939C252.36 92.6896 252.497 92.2528 252.774 91.8835C253.055 91.5107 253.443 91.223 253.941 91.0206C254.441 90.8146 255.018 90.7116 255.672 90.7116C256.631 90.7116 257.385 90.9158 257.936 91.3242C258.49 91.7326 258.832 92.2848 258.964 92.9808Z" fill="black"/>
<rect x="87.5" y="113" width="50" height="40" rx="2" fill="white"/>
<path d="M97.1218 135.249V133.203L106.838 128.714V131.236L99.9343 134.197L100.012 134.062V134.389L99.9343 134.254L106.838 137.216V139.737L97.1218 135.249ZM115.969 124.773L111.282 142.188H109.031L113.718 124.773H115.969ZM127.873 135.249L118.157 139.737V137.216L125.06 134.254L124.982 134.389V134.062L125.06 134.197L118.157 131.236V128.714L127.873 133.203V135.249Z" fill="black"/>
<rect x="87.5" y="113" width="50" height="40" rx="2" stroke="black"/>
<rect x="147.5" y="113" width="50" height="40" rx="2" fill="white"/>
<path d="M157.122 135.249V133.203L166.838 128.714V131.236L159.934 134.197L160.012 134.062V134.389L159.934 134.254L166.838 137.216V139.737L157.122 135.249ZM175.969 124.773L171.282 142.188H169.031L173.718 124.773H175.969ZM187.873 135.249L178.157 139.737V137.216L185.06 134.254L184.982 134.389V134.062L185.06 134.197L178.157 131.236V128.714L187.873 133.203V135.249Z" fill="black"/>
<rect x="147.5" y="113" width="50" height="40" rx="2" stroke="black"/>
<rect x="207.5" y="113" width="50" height="40" rx="2" fill="white"/>
<path d="M217.122 135.249V133.203L226.838 128.714V131.236L219.934 134.197L220.012 134.062V134.389L219.934 134.254L226.838 137.216V139.737L217.122 135.249ZM235.969 124.773L231.282 142.188H229.031L233.718 124.773H235.969ZM247.873 135.249L238.157 139.737V137.216L245.06 134.254L244.982 134.389V134.062L245.06 134.197L238.157 131.236V128.714L247.873 133.203V135.249Z" fill="black"/>
<rect x="207.5" y="113" width="50" height="40" rx="2" stroke="black"/>
<rect x="267.5" y="113" width="50" height="40" rx="2" fill="white"/>
<path d="M277.122 135.249V133.203L286.838 128.714V131.236L279.934 134.197L280.012 134.062V134.389L279.934 134.254L286.838 137.216V139.737L277.122 135.249ZM295.969 124.773L291.282 142.188H289.031L293.718 124.773H295.969ZM307.873 135.249L298.157 139.737V137.216L305.06 134.254L304.982 134.389V134.062L305.06 134.197L298.157 131.236V128.714L307.873 133.203V135.249Z" fill="black"/>
<rect x="267.5" y="113" width="50" height="40" rx="2" stroke="black"/>
<path d="M292 175.991C290.338 175.991 288.991 177.338 288.991 179C288.991 180.662 290.338 182.009 292 182.009C293.662 182.009 295.009 180.662 295.009 179C295.009 177.338 293.662 175.991 292 175.991ZM292 239L295.257 233.359H288.743L292 239ZM291.436 179V233.923H292.564V179H291.436Z" fill="black"/>
</svg>
