<svg width="90" height="40" viewBox="0 0 90 40" fill="none" xmlns="http://www.w3.org/2000/svg">
<path fill-rule="evenodd" clip-rule="evenodd" d="M20.4148 7.43022L18.8081 5.8324L21.5685 12.358L27.8494 32.9068L28.5631 40L31.7161 32.828L33.4597 27.7575L41.8105 5.46431L44.0564 0L39.1658 5.90939L34.7655 15.6389L29.3665 26.3715L22.098 9.74014L20.4148 7.43022ZM22.042 29.6175H21.8014C21.2802 29.6175 20.779 29.4571 20.2979 29.1363C19.8167 28.8156 19.4358 28.3445 19.1552 27.723L11.0962 8.44754H10.8255C10.8255 8.88858 10.4547 9.92102 9.71291 11.5448L2.91688 27.723C2.61617 28.3445 2.22525 28.8156 1.74411 29.1363C1.26298 29.4571 0.77182 29.6175 0.270638 29.6175H0V29.9182H6.04426V29.6175H5.77362C5.35262 29.6175 5.03187 29.4872 4.81135 29.2265C4.61087 28.9459 4.51064 28.6953 4.51064 28.4748C4.51064 28.2342 4.55073 27.9936 4.63092 27.7531L6.64567 22.6109H14.7648L16.6894 27.723C16.7696 27.9636 16.8096 28.2041 16.8096 28.4447C16.8096 28.6853 16.6994 28.9459 16.4789 29.2265C16.2784 29.4872 15.9677 29.6175 15.5467 29.6175H15.276V29.9182H22.042V29.6175ZM14.404 21.7088H7.00652L10.7955 12.0561L14.404 21.7088ZM47.72 29.1363C47.319 29.4571 46.8479 29.6175 46.3066 29.6175H45.8856V29.9182H52.7117L52.6817 29.6175H52.2907C51.7495 29.6175 51.2784 29.4671 50.8774 29.1664C50.4765 28.8456 50.266 28.4648 50.2459 28.0237V13.74C50.286 13.299 50.4965 12.9281 50.8774 12.6274C51.2784 12.3267 51.7495 12.1763 52.2907 12.1763H52.6817V11.8756H45.8856V12.1763H46.2766C46.8379 12.1763 47.319 12.3367 47.72 12.6575C48.1209 12.9782 48.3214 13.3591 48.3214 13.8002V27.9936C48.3214 28.4347 48.1209 28.8156 47.72 29.1363ZM74.4511 12.1763H74.2106C73.7695 12.1763 73.3385 12.3267 72.9175 12.6274C72.4965 12.9081 72.1357 13.3391 71.835 13.9204C67.4647 23.3026 65.1893 28.2142 65.0089 28.6552C64.6681 29.4972 64.4876 30.0585 64.4676 30.3392H64.197L56.7694 13.9505C56.1881 12.7677 55.4162 12.1763 54.454 12.1763H54.2134V11.8756H60.3779V12.1763H60.1374C59.7565 12.1763 59.4658 12.3167 59.2653 12.5973C59.0849 12.8579 58.9947 13.0985 58.9947 13.319C58.9947 13.5395 59.0248 13.7701 59.0849 14.0107L64.4676 27.1216L70.0006 14.0708C70.1009 13.8102 70.151 13.5696 70.151 13.3491C70.151 13.1085 70.0508 12.8579 69.8503 12.5973C69.6498 12.3167 69.3491 12.1763 68.9482 12.1763H68.7377V11.8756H74.4511V12.1763ZM77.551 29.1664C77.2303 29.4671 76.8293 29.6175 76.3482 29.6175H75.9272V29.9182H88.136L89.7899 25.618H89.4892C89.1484 26.3397 88.8076 26.9211 88.4668 27.3621C88.146 27.8032 87.6649 28.1841 87.0234 28.5048C86.4019 28.8256 85.6301 28.986 84.7079 28.986H79.9868V21.348H85.2191C85.3995 21.368 85.5699 21.4081 85.7303 21.4682C86.1513 21.6687 86.3618 22.0496 86.3618 22.6109V23.0019H86.6926V18.7919H86.3618V19.1829C86.3618 19.5437 86.2515 19.8444 86.031 20.085C85.8305 20.3256 85.5298 20.4458 85.1289 20.4458H79.9868V12.8078H86.2415C86.6826 12.8078 87.0434 12.9582 87.3241 13.2589C87.6047 13.5596 87.7451 13.9204 87.7451 14.3414V14.7925L88.0758 14.8226V11.3945C87.8954 11.4747 87.4945 11.5749 86.873 11.6952C86.2515 11.8155 85.5298 11.8756 84.7079 11.8756H75.9272V12.1763H76.3482C76.8293 12.1763 77.2403 12.3267 77.5811 12.6274C77.9219 12.9281 78.0923 13.299 78.0923 13.74V28.0237C78.0723 28.4648 77.8918 28.8456 77.551 29.1664Z" fill="black"/>
</svg>
