<svg width="160" height="379" viewBox="0 0 160 379" fill="none" xmlns="http://www.w3.org/2000/svg">
<path d="M17.3092 4.64904V3.15385H25.165V4.64904H22.1217V13H20.3525V4.64904H17.3092ZM28.3428 8.67308V13H26.6025V3.15385H28.3044V6.87019H28.3909C28.564 6.45352 28.8316 6.125 29.1938 5.88461C29.5592 5.64103 30.0239 5.51923 30.588 5.51923C31.1009 5.51923 31.548 5.6266 31.9294 5.84134C32.3108 6.05609 32.6057 6.37019 32.814 6.78365C33.0255 7.19711 33.1313 7.70192 33.1313 8.29808V13H31.3909V8.56731C31.3909 8.07051 31.2627 7.68429 31.0063 7.40865C30.7531 7.12981 30.3973 6.99038 29.939 6.99038C29.6313 6.99038 29.3557 7.05769 29.1121 7.19231C28.8717 7.32372 28.6826 7.51442 28.5448 7.76442C28.4102 8.01442 28.3428 8.31731 28.3428 8.67308ZM34.9053 13V5.61538H36.5928V6.84615H36.6698C36.8044 6.41987 37.0352 6.09135 37.3621 5.86058C37.6922 5.6266 38.0688 5.50961 38.4919 5.50961C38.588 5.50961 38.6954 5.51442 38.814 5.52404C38.9358 5.53045 39.0368 5.54167 39.1169 5.55769V7.15865C39.0432 7.13301 38.9262 7.11058 38.7659 7.09135C38.6089 7.06891 38.4566 7.05769 38.3092 7.05769C37.9919 7.05769 37.7066 7.1266 37.4534 7.26442C37.2034 7.39904 37.0063 7.58654 36.8621 7.82692C36.7178 8.06731 36.6457 8.34455 36.6457 8.65865V13H34.9053ZM43.2383 13.1442C42.4979 13.1442 41.8585 12.9904 41.32 12.6827C40.7848 12.3718 40.3729 11.9327 40.0844 11.3654C39.796 10.7949 39.6517 10.1234 39.6517 9.35096C39.6517 8.59135 39.796 7.92468 40.0844 7.35096C40.3761 6.77404 40.7832 6.32532 41.3056 6.00481C41.828 5.68109 42.4418 5.51923 43.1469 5.51923C43.6021 5.51923 44.0315 5.59295 44.4354 5.74038C44.8424 5.88461 45.2014 6.10897 45.5123 6.41346C45.8264 6.71795 46.0732 7.10577 46.2527 7.57692C46.4322 8.04487 46.5219 8.60256 46.5219 9.25V9.78365H40.469V8.61058H44.8537C44.8505 8.27724 44.7783 7.98077 44.6373 7.72115C44.4963 7.45833 44.2992 7.2516 44.046 7.10096C43.796 6.95032 43.5043 6.875 43.171 6.875C42.8152 6.875 42.5027 6.96154 42.2335 7.13461C41.9642 7.30449 41.7543 7.52885 41.6037 7.80769C41.4562 8.08333 41.3809 8.38622 41.3777 8.71635V9.74038C41.3777 10.1699 41.4562 10.5385 41.6133 10.8462C41.7703 11.1506 41.9899 11.3846 42.2719 11.5481C42.554 11.7083 42.8841 11.7885 43.2623 11.7885C43.5155 11.7885 43.7447 11.7532 43.9498 11.6827C44.1549 11.609 44.3328 11.5016 44.4835 11.3606C44.6341 11.2196 44.7479 11.0449 44.8248 10.8365L46.4498 11.0192C46.3473 11.4487 46.1517 11.8237 45.8633 12.1442C45.578 12.4615 45.2126 12.7083 44.7671 12.8846C44.3216 13.0577 43.812 13.1442 43.2383 13.1442ZM53.8308 7.56731L52.2443 7.74038C52.1994 7.58013 52.1209 7.42949 52.0087 7.28846C51.8997 7.14744 51.7523 7.03365 51.5664 6.94711C51.3805 6.86058 51.1529 6.81731 50.8837 6.81731C50.5215 6.81731 50.217 6.89583 49.9703 7.05288C49.7267 7.20994 49.6065 7.41346 49.6097 7.66346C49.6065 7.8782 49.685 8.05288 49.8453 8.1875C50.0087 8.32211 50.2779 8.43269 50.6529 8.51923L51.9126 8.78846C52.6113 8.9391 53.1305 9.17788 53.4703 9.50481C53.8132 9.83173 53.9863 10.2596 53.9895 10.7885C53.9863 11.2532 53.8501 11.6635 53.5808 12.0192C53.3148 12.3718 52.9446 12.6474 52.4703 12.8462C51.9959 13.0449 51.451 13.1442 50.8356 13.1442C49.9318 13.1442 49.2042 12.9551 48.6529 12.5769C48.1017 12.1955 47.7731 11.6651 47.6674 10.9856L49.3645 10.8221C49.4414 11.1554 49.6049 11.4071 49.8549 11.5769C50.1049 11.7468 50.4302 11.8317 50.8308 11.8317C51.2443 11.8317 51.576 11.7468 51.826 11.5769C52.0792 11.4071 52.2058 11.1971 52.2058 10.9471C52.2058 10.7356 52.1241 10.5609 51.9606 10.4231C51.8004 10.2853 51.5504 10.1795 51.2106 10.1058L49.951 9.84135C49.2427 9.69391 48.7186 9.44551 48.3789 9.09615C48.0392 8.74359 47.8709 8.29808 47.8741 7.75961C47.8709 7.30449 47.9943 6.91026 48.2443 6.57692C48.4975 6.24038 48.8485 5.98077 49.2972 5.79808C49.7491 5.61218 50.2699 5.51923 50.8597 5.51923C51.7251 5.51923 52.4061 5.70353 52.9029 6.07211C53.4029 6.4407 53.7122 6.9391 53.8308 7.56731ZM57.165 8.67308V13H55.4246V3.15385H57.1265V6.87019H57.213C57.3861 6.45352 57.6537 6.125 58.0159 5.88461C58.3813 5.64103 58.8461 5.51923 59.4102 5.51923C59.923 5.51923 60.3701 5.6266 60.7515 5.84134C61.1329 6.05609 61.4278 6.37019 61.6361 6.78365C61.8477 7.19711 61.9534 7.70192 61.9534 8.29808V13H60.213V8.56731C60.213 8.07051 60.0848 7.68429 59.8284 7.40865C59.5752 7.12981 59.2194 6.99038 58.7611 6.99038C58.4534 6.99038 58.1778 7.05769 57.9342 7.19231C57.6938 7.32372 57.5047 7.51442 57.3669 7.76442C57.2323 8.01442 57.165 8.31731 57.165 8.67308ZM66.9486 13.1442C66.2275 13.1442 65.6025 12.9856 65.0736 12.6683C64.5448 12.351 64.1345 11.9071 63.8428 11.3365C63.5544 10.766 63.4102 10.0994 63.4102 9.33654C63.4102 8.57372 63.5544 7.90545 63.8428 7.33173C64.1345 6.75801 64.5448 6.3125 65.0736 5.99519C65.6025 5.67788 66.2275 5.51923 66.9486 5.51923C67.6698 5.51923 68.2948 5.67788 68.8236 5.99519C69.3525 6.3125 69.7611 6.75801 70.0496 7.33173C70.3412 7.90545 70.4871 8.57372 70.4871 9.33654C70.4871 10.0994 70.3412 10.766 70.0496 11.3365C69.7611 11.9071 69.3525 12.351 68.8236 12.6683C68.2948 12.9856 67.6698 13.1442 66.9486 13.1442ZM66.9582 11.75C67.3493 11.75 67.6762 11.6426 67.939 11.4279C68.2018 11.2099 68.3973 10.9183 68.5255 10.5529C68.657 10.1875 68.7227 9.78045 68.7227 9.33173C68.7227 8.87981 68.657 8.47115 68.5255 8.10577C68.3973 7.73718 68.2018 7.44391 67.939 7.22596C67.6762 7.00801 67.3493 6.89904 66.9582 6.89904C66.5576 6.89904 66.2243 7.00801 65.9582 7.22596C65.6954 7.44391 65.4983 7.73718 65.3669 8.10577C65.2387 8.47115 65.1746 8.87981 65.1746 9.33173C65.1746 9.78045 65.2387 10.1875 65.3669 10.5529C65.4983 10.9183 65.6954 11.2099 65.9582 11.4279C66.2243 11.6426 66.5576 11.75 66.9582 11.75ZM73.7046 3.15385V13H71.9642V3.15385H73.7046ZM78.2347 13.1298C77.6545 13.1298 77.1353 12.9808 76.677 12.6827C76.2186 12.3846 75.8565 11.9519 75.5904 11.3846C75.3244 10.8173 75.1914 10.1282 75.1914 9.31731C75.1914 8.49679 75.326 7.80449 75.5953 7.24038C75.8677 6.67308 76.2347 6.24519 76.6962 5.95673C77.1578 5.66506 77.6722 5.51923 78.2395 5.51923C78.6722 5.51923 79.0279 5.59295 79.3068 5.74038C79.5856 5.88461 79.8068 6.05929 79.9703 6.26442C80.1337 6.46635 80.2603 6.65705 80.3501 6.83654H80.4222V3.15385H82.1674V13H80.4558V11.8365H80.3501C80.2603 12.016 80.1305 12.2067 79.9606 12.4087C79.7908 12.6074 79.5664 12.7772 79.2876 12.9183C79.0087 13.0593 78.6578 13.1298 78.2347 13.1298ZM78.7203 11.7019C79.0888 11.7019 79.4029 11.6026 79.6626 11.4038C79.9222 11.2019 80.1193 10.9215 80.2539 10.5625C80.3885 10.2035 80.4558 9.78526 80.4558 9.30769C80.4558 8.83013 80.3885 8.41506 80.2539 8.0625C80.1225 7.70994 79.927 7.4359 79.6674 7.24038C79.411 7.04487 79.0953 6.94711 78.7203 6.94711C78.3324 6.94711 78.0087 7.04808 77.7491 7.25C77.4895 7.45192 77.294 7.73077 77.1626 8.08654C77.0311 8.44231 76.9654 8.84936 76.9654 9.30769C76.9654 9.76923 77.0311 10.1811 77.1626 10.5433C77.2972 10.9022 77.4943 11.1859 77.7539 11.3942C78.0167 11.5994 78.3388 11.7019 78.7203 11.7019ZM24.6331 21.8606C24.5882 21.4407 24.3991 21.1138 24.0658 20.8798C23.7357 20.6458 23.3062 20.5288 22.7773 20.5288C22.4055 20.5288 22.0866 20.5849 21.8206 20.6971C21.5546 20.8093 21.3511 20.9615 21.21 21.1538C21.069 21.3462 20.9969 21.5657 20.9937 21.8125C20.9937 22.0176 21.0402 22.1955 21.1331 22.3462C21.2293 22.4968 21.3591 22.625 21.5225 22.7308C21.686 22.8333 21.8671 22.9199 22.0658 22.9904C22.2645 23.0609 22.4648 23.1202 22.6668 23.1683L23.5898 23.399C23.9616 23.4856 24.319 23.6026 24.662 23.75C25.0081 23.8974 25.3174 24.0833 25.5898 24.3077C25.8655 24.5321 26.0834 24.8029 26.2437 25.1202C26.4039 25.4375 26.4841 25.8093 26.4841 26.2356C26.4841 26.8125 26.3366 27.3205 26.0418 27.7596C25.7469 28.1955 25.3206 28.5369 24.7629 28.7837C24.2084 29.0272 23.537 29.149 22.7485 29.149C21.9825 29.149 21.3174 29.0304 20.7533 28.7933C20.1924 28.5561 19.7533 28.2099 19.436 27.7548C19.1219 27.2997 18.952 26.7452 18.9264 26.0913H20.6812C20.7068 26.4343 20.8126 26.7196 20.9985 26.9471C21.1844 27.1747 21.4264 27.3446 21.7245 27.4567C22.0257 27.5689 22.3623 27.625 22.7341 27.625C23.1219 27.625 23.4616 27.5673 23.7533 27.4519C24.0482 27.3333 24.2789 27.1699 24.4456 26.9615C24.6123 26.75 24.6972 26.5032 24.7004 26.2212C24.6972 25.9647 24.6219 25.7532 24.4745 25.5865C24.327 25.4167 24.1203 25.2756 23.8543 25.1635C23.5914 25.0481 23.2838 24.9455 22.9312 24.8558L21.811 24.5673C21.0001 24.359 20.3591 24.0433 19.8879 23.6202C19.42 23.1939 19.186 22.6282 19.186 21.9231C19.186 21.3429 19.343 20.8349 19.6571 20.399C19.9745 19.9631 20.4055 19.625 20.9504 19.3846C21.4953 19.141 22.1123 19.0192 22.8014 19.0192C23.5001 19.0192 24.1123 19.141 24.6379 19.3846C25.1668 19.625 25.5818 19.9599 25.8831 20.3894C26.1844 20.8157 26.3398 21.3061 26.3495 21.8606H24.6331ZM27.9973 29V21.6154H29.7377V29H27.9973ZM28.8723 20.5673C28.5967 20.5673 28.3595 20.476 28.1608 20.2933C27.962 20.1074 27.8627 19.8846 27.8627 19.625C27.8627 19.3622 27.962 19.1394 28.1608 18.9567C28.3595 18.7708 28.5967 18.6779 28.8723 18.6779C29.1511 18.6779 29.3883 18.7708 29.5838 18.9567C29.7826 19.1394 29.8819 19.3622 29.8819 19.625C29.8819 19.8846 29.7826 20.1074 29.5838 20.2933C29.3883 20.476 29.1511 20.5673 28.8723 20.5673ZM34.7389 31.9231C34.1139 31.9231 33.577 31.8381 33.1283 31.6683C32.6796 31.5016 32.319 31.2772 32.0466 30.9952C31.7741 30.7131 31.585 30.4006 31.4793 30.0577L33.0466 29.6779C33.1171 29.8221 33.2197 29.9647 33.3543 30.1058C33.4889 30.25 33.67 30.3686 33.8975 30.4615C34.1283 30.5577 34.4184 30.6058 34.7677 30.6058C35.2613 30.6058 35.67 30.4856 35.9937 30.2452C36.3174 30.008 36.4793 29.617 36.4793 29.0721V27.6731H36.3927C36.303 27.8526 36.1716 28.0369 35.9985 28.226C35.8286 28.4151 35.6027 28.5737 35.3206 28.7019C35.0418 28.8301 34.6908 28.8942 34.2677 28.8942C33.7004 28.8942 33.186 28.7612 32.7245 28.4952C32.2661 28.226 31.9007 27.8253 31.6283 27.2933C31.3591 26.758 31.2245 26.0881 31.2245 25.2837C31.2245 24.4728 31.3591 23.7885 31.6283 23.2308C31.9007 22.6699 32.2677 22.2452 32.7293 21.9567C33.1908 21.6651 33.7052 21.5192 34.2725 21.5192C34.7052 21.5192 35.061 21.5929 35.3398 21.7404C35.6219 21.8846 35.8463 22.0593 36.0129 22.2644C36.1796 22.4663 36.3062 22.6571 36.3927 22.8365H36.4889V21.6154H38.2052V29.1202C38.2052 29.7516 38.0546 30.274 37.7533 30.6875C37.452 31.101 37.0402 31.4103 36.5177 31.6154C35.9953 31.8205 35.4023 31.9231 34.7389 31.9231ZM34.7533 27.5288C35.1219 27.5288 35.436 27.4391 35.6956 27.2596C35.9552 27.0801 36.1523 26.8221 36.287 26.4856C36.4216 26.149 36.4889 25.7452 36.4889 25.274C36.4889 24.8093 36.4216 24.4022 36.287 24.0529C36.1555 23.7035 35.96 23.4327 35.7004 23.2404C35.444 23.0449 35.1283 22.9471 34.7533 22.9471C34.3655 22.9471 34.0418 23.0481 33.7822 23.25C33.5225 23.4519 33.327 23.7292 33.1956 24.0817C33.0642 24.4311 32.9985 24.8285 32.9985 25.274C32.9985 25.726 33.0642 26.1218 33.1956 26.4615C33.3302 26.7981 33.5273 27.0609 33.787 27.25C34.0498 27.4359 34.3719 27.5288 34.7533 27.5288ZM41.7293 24.6731V29H39.9889V21.6154H41.6523V22.8702H41.7389C41.9088 22.4567 42.1796 22.1282 42.5514 21.8846C42.9264 21.641 43.3895 21.5192 43.9408 21.5192C44.4504 21.5192 44.8943 21.6282 45.2725 21.8462C45.6539 22.0641 45.9488 22.3798 46.1572 22.7933C46.3687 23.2067 46.4729 23.7083 46.4697 24.2981V29H44.7293V24.5673C44.7293 24.0737 44.6011 23.6875 44.3447 23.4087C44.0914 23.1298 43.7405 22.9904 43.2918 22.9904C42.9873 22.9904 42.7164 23.0577 42.4793 23.1923C42.2453 23.3237 42.061 23.5144 41.9264 23.7644C41.795 24.0144 41.7293 24.3173 41.7293 24.6731ZM50.3639 29.149C49.8959 29.149 49.4745 29.0657 49.0995 28.899C48.7277 28.7292 48.4328 28.4792 48.2148 28.149C48.0001 27.8189 47.8927 27.4119 47.8927 26.9279C47.8927 26.5112 47.9697 26.1667 48.1235 25.8942C48.2773 25.6218 48.4873 25.4038 48.7533 25.2404C49.0193 25.0769 49.319 24.9535 49.6523 24.8702C49.9889 24.7837 50.3366 24.7212 50.6956 24.6827C51.1283 24.6378 51.4793 24.5978 51.7485 24.5625C52.0177 24.524 52.2132 24.4663 52.335 24.3894C52.46 24.3093 52.5225 24.1859 52.5225 24.0192V23.9904C52.5225 23.6282 52.4152 23.3478 52.2004 23.149C51.9857 22.9503 51.6764 22.851 51.2725 22.851C50.8463 22.851 50.5081 22.9439 50.2581 23.1298C50.0113 23.3157 49.8447 23.5353 49.7581 23.7885L48.1331 23.5577C48.2613 23.109 48.4729 22.734 48.7677 22.4327C49.0626 22.1282 49.4232 21.9006 49.8495 21.75C50.2757 21.5962 50.7469 21.5192 51.2629 21.5192C51.6187 21.5192 51.9729 21.5609 52.3254 21.6442C52.678 21.7276 53.0001 21.8654 53.2918 22.0577C53.5834 22.2468 53.8174 22.5048 53.9937 22.8317C54.1732 23.1587 54.2629 23.5673 54.2629 24.0577V29H52.5898V27.9856H52.5322C52.4264 28.1907 52.2773 28.383 52.085 28.5625C51.8959 28.7388 51.6572 28.8814 51.3687 28.9904C51.0834 29.0962 50.7485 29.149 50.3639 29.149ZM50.8158 27.8702C51.1652 27.8702 51.4681 27.8013 51.7245 27.6635C51.9809 27.5224 52.178 27.3365 52.3158 27.1058C52.4568 26.875 52.5273 26.6234 52.5273 26.351V25.4808C52.4729 25.5256 52.3799 25.5673 52.2485 25.6058C52.1203 25.6442 51.9761 25.6779 51.8158 25.7067C51.6555 25.7356 51.4969 25.7612 51.3398 25.7837C51.1828 25.8061 51.0466 25.8253 50.9312 25.8413C50.6716 25.8766 50.4392 25.9343 50.2341 26.0144C50.0289 26.0946 49.8671 26.2067 49.7485 26.351C49.6299 26.492 49.5706 26.6747 49.5706 26.899C49.5706 27.2196 49.6876 27.4615 49.9216 27.625C50.1556 27.7885 50.4536 27.8702 50.8158 27.8702ZM59.7004 21.6154V22.9615H55.4552V21.6154H59.7004ZM56.5033 19.8462H58.2437V26.7788C58.2437 27.0128 58.2789 27.1923 58.3495 27.3173C58.4232 27.4391 58.5193 27.5224 58.6379 27.5673C58.7565 27.6122 58.8879 27.6346 59.0322 27.6346C59.1411 27.6346 59.2405 27.6266 59.3302 27.6106C59.4232 27.5946 59.4937 27.5801 59.5418 27.5673L59.835 28.9279C59.7421 28.9599 59.6091 28.9952 59.436 29.0337C59.2661 29.0721 59.0578 29.0946 58.811 29.101C58.3751 29.1138 57.9825 29.0481 57.6331 28.9038C57.2838 28.7564 57.0065 28.5288 56.8014 28.2212C56.5995 27.9135 56.5001 27.5288 56.5033 27.0673V19.8462ZM65.8627 25.8942V21.6154H67.6031V29H65.9156V27.6875H65.8386C65.672 28.101 65.3979 28.4391 65.0165 28.7019C64.6383 28.9647 64.172 29.0962 63.6175 29.0962C63.1335 29.0962 62.7056 28.9888 62.3338 28.774C61.9652 28.5561 61.6768 28.2404 61.4684 27.8269C61.2601 27.4103 61.1559 26.9071 61.1559 26.3173V21.6154H62.8963V26.0481C62.8963 26.516 63.0245 26.8878 63.2809 27.1635C63.5374 27.4391 63.8739 27.5769 64.2906 27.5769C64.547 27.5769 64.7954 27.5144 65.0358 27.3894C65.2761 27.2644 65.4733 27.0785 65.6271 26.8317C65.7842 26.5817 65.8627 26.2692 65.8627 25.8942ZM69.3927 29V21.6154H71.0802V22.8462H71.1572C71.2918 22.4199 71.5225 22.0913 71.8495 21.8606C72.1796 21.6266 72.5562 21.5096 72.9793 21.5096C73.0754 21.5096 73.1828 21.5144 73.3014 21.524C73.4232 21.5304 73.5241 21.5417 73.6043 21.5577V23.1587C73.5305 23.133 73.4136 23.1106 73.2533 23.0913C73.0963 23.0689 72.944 23.0577 72.7966 23.0577C72.4793 23.0577 72.194 23.1266 71.9408 23.2644C71.6908 23.399 71.4937 23.5865 71.3495 23.8269C71.2052 24.0673 71.1331 24.3446 71.1331 24.6587V29H69.3927ZM77.7257 29.1442C76.9853 29.1442 76.3459 28.9904 75.8074 28.6827C75.2721 28.3718 74.8603 27.9327 74.5718 27.3654C74.2834 26.7949 74.1391 26.1234 74.1391 25.351C74.1391 24.5913 74.2834 23.9247 74.5718 23.351C74.8635 22.774 75.2705 22.3253 75.793 22.0048C76.3154 21.6811 76.9292 21.5192 77.6343 21.5192C78.0894 21.5192 78.5189 21.5929 78.9228 21.7404C79.3298 21.8846 79.6888 22.109 79.9997 22.4135C80.3138 22.7179 80.5606 23.1058 80.7401 23.5769C80.9196 24.0449 81.0093 24.6026 81.0093 25.25V25.7837H74.9564V24.6106H79.341C79.3378 24.2772 79.2657 23.9808 79.1247 23.7212C78.9837 23.4583 78.7866 23.2516 78.5334 23.101C78.2834 22.9503 77.9917 22.875 77.6584 22.875C77.3026 22.875 76.9901 22.9615 76.7209 23.1346C76.4516 23.3045 76.2417 23.5288 76.091 23.8077C75.9436 24.0833 75.8683 24.3862 75.8651 24.7163V25.7404C75.8651 26.1699 75.9436 26.5385 76.1007 26.8462C76.2577 27.1506 76.4773 27.3846 76.7593 27.5481C77.0414 27.7083 77.3715 27.7885 77.7497 27.7885C78.0029 27.7885 78.2321 27.7532 78.4372 27.6827C78.6423 27.609 78.8202 27.5016 78.9709 27.3606C79.1215 27.2196 79.2353 27.0449 79.3122 26.8365L80.9372 27.0192C80.8346 27.4487 80.6391 27.8237 80.3507 28.1442C80.0654 28.4615 79.7 28.7083 79.2545 28.8846C78.809 29.0577 78.2994 29.1442 77.7257 29.1442Z" fill="black"/>
<path d="M8.35915 230.127C8.30146 229.64 8.06748 229.262 7.65723 228.992C7.24697 228.723 6.74377 228.589 6.14761 228.589C5.71171 228.589 5.3303 228.659 5.00338 228.8C4.67966 228.941 4.42646 229.135 4.24377 229.382C4.06428 229.629 3.97453 229.909 3.97453 230.223C3.97453 230.486 4.03703 230.712 4.16203 230.901C4.29024 231.087 4.4537 231.242 4.65242 231.367C4.85114 231.489 5.05947 231.59 5.27742 231.67C5.49537 231.747 5.69569 231.81 5.87838 231.858L6.87838 232.127C7.13479 232.194 7.42005 232.287 7.73415 232.406C8.05146 232.525 8.35434 232.686 8.6428 232.892C8.93447 233.093 9.17486 233.353 9.36396 233.67C9.55306 233.988 9.64761 234.377 9.64761 234.839C9.64761 235.371 9.50819 235.851 9.22934 236.281C8.9537 236.71 8.54986 237.052 8.0178 237.305C7.48896 237.558 6.84633 237.685 6.08992 237.685C5.38479 237.685 4.77421 237.571 4.25819 237.343C3.74537 237.116 3.34152 236.799 3.04665 236.392C2.75498 235.984 2.58992 235.512 2.55146 234.973H3.78223C3.81428 235.345 3.93928 235.653 4.15723 235.896C4.37838 236.137 4.65723 236.316 4.99377 236.435C5.33351 236.55 5.69889 236.608 6.08992 236.608C6.54505 236.608 6.9537 236.534 7.31588 236.387C7.67806 236.236 7.96492 236.028 8.17646 235.762C8.388 235.492 8.49377 235.178 8.49377 234.819C8.49377 234.492 8.40242 234.226 8.21973 234.021C8.03703 233.816 7.79665 233.65 7.49857 233.521C7.2005 233.393 6.87838 233.281 6.53223 233.185L5.32069 232.839C4.55146 232.617 3.94248 232.302 3.49377 231.892C3.04505 231.481 2.82069 230.944 2.82069 230.281C2.82069 229.73 2.96973 229.249 3.2678 228.839C3.56909 228.425 3.97293 228.105 4.47934 227.877C4.98896 227.646 5.55787 227.531 6.18607 227.531C6.82069 227.531 7.38479 227.645 7.87838 227.872C8.37197 228.097 8.763 228.404 9.05146 228.795C9.34312 229.186 9.49697 229.63 9.513 230.127H8.35915ZM11.4541 237.512V230.127H12.5887V237.512H11.4541ZM12.031 228.896C11.8099 228.896 11.6192 228.821 11.4589 228.67C11.3019 228.52 11.2233 228.339 11.2233 228.127C11.2233 227.916 11.3019 227.734 11.4589 227.584C11.6192 227.433 11.8099 227.358 12.031 227.358C12.2522 227.358 12.4413 227.433 12.5983 227.584C12.7586 227.734 12.8387 227.916 12.8387 228.127C12.8387 228.339 12.7586 228.52 12.5983 228.67C12.4413 228.821 12.2522 228.896 12.031 228.896ZM17.6476 240.435C17.0995 240.435 16.6284 240.364 16.2342 240.223C15.8399 240.085 15.5114 239.903 15.2486 239.675C14.989 239.451 14.7822 239.21 14.6284 238.954L15.5322 238.319C15.6348 238.454 15.7646 238.608 15.9217 238.781C16.0787 238.957 16.2934 239.109 16.5659 239.238C16.8415 239.369 17.2021 239.435 17.6476 239.435C18.2438 239.435 18.7358 239.291 19.1236 239.002C19.5114 238.714 19.7053 238.262 19.7053 237.646V236.146H19.6092C19.5258 236.281 19.4072 236.448 19.2534 236.646C19.1027 236.842 18.8848 237.017 18.5995 237.17C18.3175 237.321 17.9361 237.396 17.4553 237.396C16.8592 237.396 16.3239 237.255 15.8495 236.973C15.3784 236.691 15.005 236.281 14.7293 235.742C14.4569 235.204 14.3207 234.55 14.3207 233.781C14.3207 233.025 14.4537 232.366 14.7197 231.805C14.9858 231.241 15.3559 230.805 15.8303 230.497C16.3047 230.186 16.8527 230.031 17.4745 230.031C17.9553 230.031 18.3367 230.111 18.6188 230.271C18.904 230.428 19.122 230.608 19.2726 230.81C19.4265 231.009 19.545 231.172 19.6284 231.3H19.7438V230.127H20.8399V237.723C20.8399 238.358 20.6957 238.874 20.4072 239.271C20.122 239.672 19.7374 239.965 19.2534 240.151C18.7726 240.34 18.2374 240.435 17.6476 240.435ZM17.6092 236.377C18.0643 236.377 18.4489 236.273 18.763 236.065C19.0771 235.856 19.3159 235.557 19.4793 235.166C19.6428 234.775 19.7245 234.307 19.7245 233.762C19.7245 233.23 19.6444 232.76 19.4842 232.353C19.3239 231.946 19.0867 231.627 18.7726 231.396C18.4585 231.166 18.0707 231.05 17.6092 231.05C17.1284 231.05 16.7277 231.172 16.4072 231.416C16.0899 231.659 15.8511 231.986 15.6909 232.396C15.5338 232.807 15.4553 233.262 15.4553 233.762C15.4553 234.275 15.5354 234.728 15.6957 235.122C15.8592 235.513 16.0995 235.821 16.4168 236.045C16.7374 236.267 17.1348 236.377 17.6092 236.377ZM24.0515 233.069V237.512H22.9168V230.127H24.013V231.281H24.1092C24.2822 230.906 24.545 230.605 24.8976 230.377C25.2502 230.146 25.7053 230.031 26.263 230.031C26.763 230.031 27.2005 230.134 27.5755 230.339C27.9505 230.541 28.2422 230.848 28.4505 231.262C28.6588 231.672 28.763 232.191 28.763 232.819V237.512H27.6284V232.896C27.6284 232.316 27.4777 231.864 27.1765 231.541C26.8752 231.214 26.4617 231.05 25.9361 231.05C25.5739 231.05 25.2502 231.129 24.9649 231.286C24.6829 231.443 24.4601 231.672 24.2967 231.973C24.1332 232.275 24.0515 232.64 24.0515 233.069ZM33.0094 237.685C32.5414 237.685 32.1168 237.597 31.7354 237.42C31.3539 237.241 31.0511 236.983 30.8267 236.646C30.6023 236.307 30.4902 235.896 30.4902 235.416C30.4902 234.992 30.5735 234.65 30.7402 234.387C30.9068 234.121 31.1296 233.912 31.4084 233.762C31.6873 233.611 31.995 233.499 32.3315 233.425C32.6713 233.348 33.0126 233.287 33.3555 233.242C33.8043 233.185 34.168 233.142 34.4469 233.113C34.7289 233.081 34.9341 233.028 35.0623 232.954C35.1937 232.88 35.2594 232.752 35.2594 232.569V232.531C35.2594 232.057 35.1296 231.688 34.87 231.425C34.6136 231.162 34.2241 231.031 33.7017 231.031C33.16 231.031 32.7354 231.15 32.4277 231.387C32.12 231.624 31.9036 231.877 31.7786 232.146L30.7017 231.762C30.894 231.313 31.1504 230.964 31.4709 230.714C31.7946 230.46 32.1472 230.284 32.5286 230.185C32.9132 230.082 33.2914 230.031 33.6632 230.031C33.9004 230.031 34.1729 230.06 34.4805 230.117C34.7914 230.172 35.0911 230.286 35.3796 230.459C35.6713 230.632 35.9132 230.893 36.1055 231.242C36.2979 231.592 36.394 232.06 36.394 232.646V237.512H35.2594V236.512H35.2017C35.1248 236.672 34.9966 236.843 34.8171 237.026C34.6376 237.209 34.3988 237.364 34.1007 237.492C33.8027 237.621 33.4389 237.685 33.0094 237.685ZM33.1825 236.666C33.6312 236.666 34.0094 236.577 34.3171 236.401C34.628 236.225 34.862 235.997 35.019 235.718C35.1793 235.44 35.2594 235.146 35.2594 234.839V233.8C35.2113 233.858 35.1055 233.911 34.9421 233.959C34.7818 234.004 34.5959 234.044 34.3844 234.079C34.1761 234.111 33.9725 234.14 33.7738 234.166C33.5783 234.188 33.4196 234.207 33.2979 234.223C33.003 234.262 32.7273 234.324 32.4709 234.411C32.2177 234.494 32.0126 234.621 31.8555 234.791C31.7017 234.957 31.6248 235.185 31.6248 235.473C31.6248 235.867 31.7706 236.166 32.0623 236.367C32.3571 236.566 32.7305 236.666 33.1825 236.666ZM41.6765 230.127V231.089H37.8495V230.127H41.6765ZM38.9649 228.358H40.0995V235.396C40.0995 235.717 40.146 235.957 40.239 236.117C40.3351 236.275 40.4569 236.38 40.6043 236.435C40.755 236.486 40.9136 236.512 41.0803 236.512C41.2053 236.512 41.3079 236.505 41.388 236.492C41.4681 236.476 41.5322 236.464 41.5803 236.454L41.8111 237.473C41.7342 237.502 41.6268 237.531 41.489 237.56C41.3511 237.592 41.1765 237.608 40.9649 237.608C40.6444 237.608 40.3303 237.539 40.0226 237.401C39.7181 237.263 39.4649 237.053 39.263 236.771C39.0643 236.489 38.9649 236.134 38.9649 235.704V228.358ZM48.037 234.492V230.127H49.1717V237.512H48.037V236.262H47.9601C47.787 236.637 47.5178 236.956 47.1524 237.218C46.787 237.478 46.3255 237.608 45.7678 237.608C45.3063 237.608 44.896 237.507 44.537 237.305C44.1781 237.1 43.896 236.792 43.6909 236.382C43.4858 235.968 43.3832 235.448 43.3832 234.819V230.127H44.5178V234.742C44.5178 235.281 44.6684 235.71 44.9697 236.031C45.2742 236.351 45.662 236.512 46.1332 236.512C46.4152 236.512 46.7021 236.44 46.9938 236.295C47.2886 236.151 47.5354 235.93 47.7342 235.632C47.9361 235.334 48.037 234.954 48.037 234.492ZM51.2498 237.512V230.127H52.3459V231.242H52.4229C52.5575 230.877 52.8011 230.581 53.1536 230.353C53.5062 230.125 53.9036 230.012 54.3459 230.012C54.4293 230.012 54.5334 230.013 54.6584 230.017C54.7834 230.02 54.878 230.025 54.9421 230.031V231.185C54.9036 231.175 54.8155 231.161 54.6777 231.142C54.5431 231.119 54.4004 231.108 54.2498 231.108C53.8908 231.108 53.5703 231.183 53.2882 231.334C53.0094 231.481 52.7882 231.686 52.6248 231.949C52.4645 232.209 52.3844 232.505 52.3844 232.839V237.512H51.2498ZM59.1584 237.666C58.4469 237.666 57.8331 237.509 57.3171 237.194C56.8043 236.877 56.4084 236.435 56.1296 235.867C55.8539 235.297 55.7161 234.634 55.7161 233.877C55.7161 233.121 55.8539 232.454 56.1296 231.877C56.4084 231.297 56.7963 230.845 57.293 230.521C57.7931 230.194 58.3764 230.031 59.0431 230.031C59.4277 230.031 59.8075 230.095 60.1825 230.223C60.5575 230.351 60.8988 230.56 61.2065 230.848C61.5142 231.134 61.7594 231.512 61.9421 231.983C62.1248 232.454 62.2161 233.034 62.2161 233.723V234.204H56.5238V233.223H61.0623C61.0623 232.807 60.9789 232.435 60.8123 232.108C60.6488 231.781 60.4148 231.523 60.1104 231.334C59.8091 231.145 59.4533 231.05 59.0431 231.05C58.5911 231.05 58.2001 231.162 57.87 231.387C57.5431 231.608 57.2914 231.896 57.1152 232.252C56.9389 232.608 56.8507 232.989 56.8507 233.396V234.05C56.8507 234.608 56.9469 235.081 57.1392 235.468C57.3347 235.853 57.6056 236.146 57.9517 236.348C58.2979 236.547 58.7001 236.646 59.1584 236.646C59.4565 236.646 59.7257 236.605 59.9661 236.521C60.2097 236.435 60.4197 236.307 60.5959 236.137C60.7722 235.964 60.9084 235.749 61.0046 235.492L62.1007 235.8C61.9854 236.172 61.7914 236.499 61.519 236.781C61.2466 237.06 60.91 237.278 60.5094 237.435C60.1088 237.589 59.6584 237.666 59.1584 237.666ZM69.1729 231.781L68.1536 232.069C68.0895 231.9 67.995 231.734 67.87 231.574C67.7482 231.411 67.5815 231.276 67.37 231.17C67.1584 231.065 66.8876 231.012 66.5575 231.012C66.1055 231.012 65.7289 231.116 65.4277 231.324C65.1296 231.529 64.9805 231.791 64.9805 232.108C64.9805 232.39 65.0831 232.613 65.2882 232.776C65.4934 232.94 65.8139 233.076 66.2498 233.185L67.3459 233.454C68.0062 233.614 68.4982 233.859 68.8219 234.19C69.1456 234.517 69.3075 234.938 69.3075 235.454C69.3075 235.877 69.1857 236.255 68.9421 236.589C68.7017 236.922 68.3652 237.185 67.9325 237.377C67.4998 237.569 66.9966 237.666 66.4229 237.666C65.6697 237.666 65.0463 237.502 64.5527 237.175C64.0591 236.848 63.7466 236.371 63.6152 235.742L64.6921 235.473C64.7947 235.871 64.9886 236.169 65.2738 236.367C65.5623 236.566 65.9389 236.666 66.4036 236.666C66.9325 236.666 67.3523 236.553 67.6632 236.329C67.9773 236.101 68.1344 235.829 68.1344 235.512C68.1344 235.255 68.0447 235.041 67.8652 234.867C67.6857 234.691 67.41 234.56 67.0382 234.473L65.8075 234.185C65.1312 234.025 64.6344 233.776 64.3171 233.44C64.003 233.1 63.8459 232.675 63.8459 232.166C63.8459 231.749 63.9629 231.38 64.1969 231.06C64.4341 230.739 64.7562 230.488 65.1632 230.305C65.5735 230.122 66.0382 230.031 66.5575 230.031C67.2882 230.031 67.862 230.191 68.2786 230.512C68.6985 230.832 68.9966 231.255 69.1729 231.781ZM77.8231 237.666C77.1308 237.666 76.5346 237.502 76.0346 237.175C75.5346 236.848 75.15 236.398 74.8808 235.824C74.6116 235.251 74.4769 234.595 74.4769 233.858C74.4769 233.108 74.6148 232.446 74.8904 231.872C75.1693 231.295 75.5571 230.845 76.0539 230.521C76.5539 230.194 77.1372 230.031 77.8039 230.031C78.3231 230.031 78.791 230.127 79.2077 230.319C79.6244 230.512 79.9657 230.781 80.2318 231.127C80.4978 231.473 80.6628 231.877 80.7269 232.339H79.5923C79.5058 232.002 79.3135 231.704 79.0154 231.444C78.7205 231.182 78.3231 231.05 77.8231 231.05C77.3808 231.05 76.993 231.166 76.6596 231.396C76.3295 231.624 76.0715 231.946 75.8856 232.363C75.7029 232.776 75.6116 233.262 75.6116 233.819C75.6116 234.39 75.7013 234.887 75.8808 235.31C76.0635 235.733 76.3199 236.061 76.65 236.295C76.9834 236.529 77.3744 236.646 77.8231 236.646C78.118 236.646 78.3856 236.595 78.626 236.492C78.8664 236.39 79.0699 236.242 79.2366 236.05C79.4032 235.858 79.5218 235.627 79.5923 235.358H80.7269C80.6628 235.794 80.5042 236.186 80.251 236.536C80.001 236.882 79.6693 237.158 79.2558 237.363C78.8455 237.565 78.368 237.666 77.8231 237.666ZM84.5587 237.685C84.0907 237.685 83.666 237.597 83.2846 237.42C82.9032 237.241 82.6003 236.983 82.376 236.646C82.1516 236.307 82.0394 235.896 82.0394 235.416C82.0394 234.992 82.1228 234.65 82.2894 234.387C82.4561 234.121 82.6789 233.912 82.9577 233.762C83.2366 233.611 83.5443 233.499 83.8808 233.425C84.2205 233.348 84.5619 233.287 84.9048 233.242C85.3535 233.185 85.7173 233.142 85.9962 233.113C86.2782 233.081 86.4834 233.028 86.6116 232.954C86.743 232.88 86.8087 232.752 86.8087 232.569V232.531C86.8087 232.057 86.6789 231.688 86.4193 231.425C86.1628 231.162 85.7734 231.031 85.251 231.031C84.7093 231.031 84.2846 231.15 83.9769 231.387C83.6693 231.624 83.4529 231.877 83.3279 232.146L82.251 231.762C82.4433 231.313 82.6997 230.964 83.0202 230.714C83.3439 230.46 83.6965 230.284 84.0779 230.185C84.4625 230.082 84.8407 230.031 85.2125 230.031C85.4497 230.031 85.7221 230.06 86.0298 230.117C86.3407 230.172 86.6404 230.286 86.9289 230.459C87.2205 230.632 87.4625 230.893 87.6548 231.242C87.8471 231.592 87.9433 232.06 87.9433 232.646V237.512H86.8087V236.512H86.751C86.6741 236.672 86.5459 236.843 86.3664 237.026C86.1869 237.209 85.9481 237.364 85.65 237.492C85.3519 237.621 84.9882 237.685 84.5587 237.685ZM84.7318 236.666C85.1805 236.666 85.5587 236.577 85.8664 236.401C86.1773 236.225 86.4112 235.997 86.5683 235.718C86.7285 235.44 86.8087 235.146 86.8087 234.839V233.8C86.7606 233.858 86.6548 233.911 86.4914 233.959C86.3311 234.004 86.1452 234.044 85.9337 234.079C85.7253 234.111 85.5218 234.14 85.3231 234.166C85.1276 234.188 84.9689 234.207 84.8471 234.223C84.5523 234.262 84.2766 234.324 84.0202 234.411C83.767 234.494 83.5619 234.621 83.4048 234.791C83.251 234.957 83.1741 235.185 83.1741 235.473C83.1741 235.867 83.3199 236.166 83.6116 236.367C83.9064 236.566 84.2798 236.666 84.7318 236.666ZM91.1488 233.069V237.512H90.0142V230.127H91.1104V231.281H91.2065C91.3796 230.906 91.6424 230.605 91.995 230.377C92.3475 230.146 92.8027 230.031 93.3604 230.031C93.8604 230.031 94.2979 230.134 94.6729 230.339C95.0479 230.541 95.3395 230.848 95.5479 231.262C95.7562 231.672 95.8604 232.191 95.8604 232.819V237.512H94.7257V232.896C94.7257 232.316 94.5751 231.864 94.2738 231.541C93.9725 231.214 93.5591 231.05 93.0334 231.05C92.6713 231.05 92.3475 231.129 92.0623 231.286C91.7802 231.443 91.5575 231.672 91.394 231.973C91.2306 232.275 91.1488 232.64 91.1488 233.069ZM2.97453 253.512V243.666H4.10915V247.3H4.2053C4.28864 247.172 4.40402 247.009 4.55146 246.81C4.7021 246.608 4.91684 246.428 5.19569 246.271C5.47774 246.111 5.85915 246.031 6.33992 246.031C6.96171 246.031 7.50979 246.186 7.98415 246.497C8.45851 246.808 8.8287 247.249 9.09473 247.819C9.36075 248.39 9.49377 249.063 9.49377 249.839C9.49377 250.621 9.36075 251.299 9.09473 251.872C8.8287 252.443 8.46011 252.885 7.98896 253.199C7.5178 253.51 6.97453 253.666 6.35915 253.666C5.88479 253.666 5.50498 253.587 5.21973 253.43C4.93447 253.27 4.71492 253.089 4.56107 252.887C4.40723 252.682 4.28864 252.512 4.2053 252.377H4.07069V253.512H2.97453ZM4.08992 249.819C4.08992 250.377 4.17165 250.869 4.33511 251.295C4.49857 251.718 4.73736 252.05 5.05146 252.291C5.36556 252.528 5.75018 252.646 6.2053 252.646C6.67966 252.646 7.0755 252.521 7.3928 252.271C7.71332 252.018 7.9537 251.678 8.11396 251.252C8.27742 250.823 8.35915 250.345 8.35915 249.819C8.35915 249.3 8.27902 248.832 8.11877 248.416C7.96171 247.996 7.72293 247.664 7.40242 247.42C7.08511 247.174 6.68607 247.05 6.2053 247.05C5.74377 247.05 5.35594 247.167 5.04184 247.401C4.72774 247.632 4.49056 247.956 4.3303 248.372C4.17005 248.786 4.08992 249.268 4.08992 249.819ZM14.3255 253.666C13.614 253.666 13.0002 253.509 12.4842 253.194C11.9713 252.877 11.5755 252.435 11.2967 251.867C11.021 251.297 10.8832 250.634 10.8832 249.877C10.8832 249.121 11.021 248.454 11.2967 247.877C11.5755 247.297 11.9633 246.845 12.4601 246.521C12.9601 246.194 13.5434 246.031 14.2101 246.031C14.5947 246.031 14.9745 246.095 15.3495 246.223C15.7245 246.351 16.0659 246.56 16.3736 246.848C16.6813 247.134 16.9265 247.512 17.1092 247.983C17.2918 248.454 17.3832 249.034 17.3832 249.723V250.204H11.6909V249.223H16.2293C16.2293 248.807 16.146 248.435 15.9793 248.108C15.8159 247.781 15.5819 247.523 15.2774 247.334C14.9761 247.145 14.6204 247.05 14.2101 247.05C13.7582 247.05 13.3672 247.162 13.037 247.387C12.7101 247.608 12.4585 247.896 12.2822 248.252C12.1059 248.608 12.0178 248.989 12.0178 249.396V250.05C12.0178 250.608 12.114 251.081 12.3063 251.468C12.5018 251.853 12.7726 252.146 13.1188 252.348C13.4649 252.547 13.8672 252.646 14.3255 252.646C14.6236 252.646 14.8928 252.605 15.1332 252.521C15.3768 252.435 15.5867 252.307 15.763 252.137C15.9393 251.964 16.0755 251.749 16.1717 251.492L17.2678 251.8C17.1524 252.172 16.9585 252.499 16.6861 252.781C16.4136 253.06 16.0771 253.278 15.6765 253.435C15.2758 253.589 14.8255 253.666 14.3255 253.666ZM28.9553 246.127L26.2245 253.512H25.0707L22.3399 246.127H23.5707L25.6092 252.012H25.6861L27.7245 246.127H28.9553ZM33.2846 253.666C32.5731 253.666 31.9593 253.509 31.4433 253.194C30.9305 252.877 30.5346 252.435 30.2558 251.867C29.9801 251.297 29.8423 250.634 29.8423 249.877C29.8423 249.121 29.9801 248.454 30.2558 247.877C30.5346 247.297 30.9225 246.845 31.4192 246.521C31.9192 246.194 32.5026 246.031 33.1692 246.031C33.5539 246.031 33.9337 246.095 34.3087 246.223C34.6837 246.351 35.025 246.56 35.3327 246.848C35.6404 247.134 35.8856 247.512 36.0683 247.983C36.251 248.454 36.3423 249.034 36.3423 249.723V250.204H30.65V249.223H35.1885C35.1885 248.807 35.1051 248.435 34.9385 248.108C34.775 247.781 34.541 247.523 34.2366 247.334C33.9353 247.145 33.5795 247.05 33.1692 247.05C32.7173 247.05 32.3263 247.162 31.9962 247.387C31.6692 247.608 31.4176 247.896 31.2414 248.252C31.0651 248.608 30.9769 248.989 30.9769 249.396V250.05C30.9769 250.608 31.0731 251.081 31.2654 251.468C31.4609 251.853 31.7317 252.146 32.0779 252.348C32.4241 252.547 32.8263 252.646 33.2846 252.646C33.5827 252.646 33.8519 252.605 34.0923 252.521C34.3359 252.435 34.5459 252.307 34.7221 252.137C34.8984 251.964 35.0346 251.749 35.1308 251.492L36.2269 251.8C36.1116 252.172 35.9176 252.499 35.6452 252.781C35.3728 253.06 35.0362 253.278 34.6356 253.435C34.235 253.589 33.7846 253.666 33.2846 253.666ZM38.0683 253.512V246.127H39.1644V247.242H39.2414C39.376 246.877 39.6196 246.581 39.9721 246.353C40.3247 246.125 40.7221 246.012 41.1644 246.012C41.2478 246.012 41.3519 246.013 41.4769 246.017C41.6019 246.02 41.6965 246.025 41.7606 246.031V247.185C41.7221 247.175 41.634 247.161 41.4962 247.142C41.3616 247.119 41.2189 247.108 41.0683 247.108C40.7093 247.108 40.3888 247.183 40.1067 247.334C39.8279 247.481 39.6067 247.686 39.4433 247.949C39.283 248.209 39.2029 248.505 39.2029 248.839V253.512H38.0683ZM43.1055 253.512V246.127H44.2402V253.512H43.1055ZM43.6825 244.896C43.4613 244.896 43.2706 244.821 43.1104 244.67C42.9533 244.52 42.8748 244.339 42.8748 244.127C42.8748 243.916 42.9533 243.734 43.1104 243.584C43.2706 243.433 43.4613 243.358 43.6825 243.358C43.9036 243.358 44.0927 243.433 44.2498 243.584C44.41 243.734 44.4902 243.916 44.4902 244.127C44.4902 244.339 44.41 244.52 44.2498 244.67C44.0927 244.821 43.9036 244.896 43.6825 244.896ZM49.6068 246.127V247.089H45.626V246.127H49.6068ZM46.8183 253.512V245.108C46.8183 244.685 46.9176 244.332 47.1164 244.05C47.3151 243.768 47.5731 243.557 47.8904 243.416C48.2077 243.275 48.5426 243.204 48.8952 243.204C49.1741 243.204 49.4016 243.226 49.5779 243.271C49.7542 243.316 49.8856 243.358 49.9721 243.396L49.6452 244.377C49.5875 244.358 49.5074 244.334 49.4048 244.305C49.3055 244.276 49.1741 244.262 49.0106 244.262C48.6356 244.262 48.3648 244.356 48.1981 244.545C48.0346 244.734 47.9529 245.012 47.9529 245.377V253.512H46.8183ZM51.1969 253.512V246.127H52.3315V253.512H51.1969ZM51.7738 244.896C51.5527 244.896 51.362 244.821 51.2017 244.67C51.0447 244.52 50.9661 244.339 50.9661 244.127C50.9661 243.916 51.0447 243.734 51.2017 243.584C51.362 243.433 51.5527 243.358 51.7738 243.358C51.995 243.358 52.1841 243.433 52.3411 243.584C52.5014 243.734 52.5815 243.916 52.5815 244.127C52.5815 244.339 52.5014 244.52 52.3411 244.67C52.1841 244.821 51.995 244.896 51.7738 244.896ZM57.5058 253.666C56.7943 253.666 56.1805 253.509 55.6644 253.194C55.1516 252.877 54.7558 252.435 54.4769 251.867C54.2013 251.297 54.0635 250.634 54.0635 249.877C54.0635 249.121 54.2013 248.454 54.4769 247.877C54.7558 247.297 55.1436 246.845 55.6404 246.521C56.1404 246.194 56.7237 246.031 57.3904 246.031C57.775 246.031 58.1548 246.095 58.5298 246.223C58.9048 246.351 59.2462 246.56 59.5539 246.848C59.8616 247.134 60.1068 247.512 60.2894 247.983C60.4721 248.454 60.5635 249.034 60.5635 249.723V250.204H54.8712V249.223H59.4096C59.4096 248.807 59.3263 248.435 59.1596 248.108C58.9962 247.781 58.7622 247.523 58.4577 247.334C58.1564 247.145 57.8007 247.05 57.3904 247.05C56.9385 247.05 56.5475 247.162 56.2173 247.387C55.8904 247.608 55.6388 247.896 55.4625 248.252C55.2862 248.608 55.1981 248.989 55.1981 249.396V250.05C55.1981 250.608 55.2943 251.081 55.4866 251.468C55.6821 251.853 55.9529 252.146 56.2991 252.348C56.6452 252.547 57.0475 252.646 57.5058 252.646C57.8039 252.646 58.0731 252.605 58.3135 252.521C58.5571 252.435 58.767 252.307 58.9433 252.137C59.1196 251.964 59.2558 251.749 59.3519 251.492L60.4481 251.8C60.3327 252.172 60.1388 252.499 59.8664 252.781C59.5939 253.06 59.2574 253.278 58.8568 253.435C58.4561 253.589 58.0058 253.666 57.5058 253.666ZM65.0779 253.666C64.4625 253.666 63.9192 253.51 63.4481 253.199C62.9769 252.885 62.6084 252.443 62.3423 251.872C62.0763 251.299 61.9433 250.621 61.9433 249.839C61.9433 249.063 62.0763 248.39 62.3423 247.819C62.6084 247.249 62.9785 246.808 63.4529 246.497C63.9273 246.186 64.4753 246.031 65.0971 246.031C65.5779 246.031 65.9577 246.111 66.2366 246.271C66.5186 246.428 66.7334 246.608 66.8808 246.81C67.0314 247.009 67.1484 247.172 67.2318 247.3H67.3279V243.666H68.4625V253.512H67.3664V252.377H67.2318C67.1484 252.512 67.0298 252.682 66.876 252.887C66.7221 253.089 66.5026 253.27 66.2173 253.43C65.9321 253.587 65.5523 253.666 65.0779 253.666ZM65.2317 252.646C65.6869 252.646 66.0715 252.528 66.3856 252.291C66.6997 252.05 66.9385 251.718 67.1019 251.295C67.2654 250.869 67.3471 250.377 67.3471 249.819C67.3471 249.268 67.267 248.786 67.1068 248.372C66.9465 247.956 66.7093 247.632 66.3952 247.401C66.0811 247.167 65.6933 247.05 65.2317 247.05C64.751 247.05 64.3503 247.174 64.0298 247.42C63.7125 247.664 63.4737 247.996 63.3135 248.416C63.1564 248.832 63.0779 249.3 63.0779 249.819C63.0779 250.345 63.158 250.823 63.3183 251.252C63.4817 251.678 63.7221 252.018 64.0394 252.271C64.36 252.521 64.7574 252.646 65.2317 252.646ZM74.6596 253.512V243.666H75.7943V247.3H75.8904C75.9737 247.172 76.0891 247.009 76.2366 246.81C76.3872 246.608 76.6019 246.428 76.8808 246.271C77.1628 246.111 77.5443 246.031 78.025 246.031C78.6468 246.031 79.1949 246.186 79.6693 246.497C80.1436 246.808 80.5138 247.249 80.7798 247.819C81.0459 248.39 81.1789 249.063 81.1789 249.839C81.1789 250.621 81.0459 251.299 80.7798 251.872C80.5138 252.443 80.1452 252.885 79.6741 253.199C79.2029 253.51 78.6596 253.666 78.0443 253.666C77.5699 253.666 77.1901 253.587 76.9048 253.43C76.6196 253.27 76.4 253.089 76.2462 252.887C76.0923 252.682 75.9737 252.512 75.8904 252.377H75.7558V253.512H74.6596ZM75.775 249.819C75.775 250.377 75.8568 250.869 76.0202 251.295C76.1837 251.718 76.4225 252.05 76.7366 252.291C77.0507 252.528 77.4353 252.646 77.8904 252.646C78.3648 252.646 78.7606 252.521 79.0779 252.271C79.3984 252.018 79.6388 251.678 79.7991 251.252C79.9625 250.823 80.0443 250.345 80.0443 249.819C80.0443 249.3 79.9641 248.832 79.8039 248.416C79.6468 247.996 79.408 247.664 79.0875 247.42C78.7702 247.174 78.3712 247.05 77.8904 247.05C77.4289 247.05 77.041 247.167 76.7269 247.401C76.4128 247.632 76.1757 247.956 76.0154 248.372C75.8552 248.786 75.775 249.268 75.775 249.819ZM83.3808 256.281C83.1885 256.281 83.017 256.265 82.8664 256.233C82.7157 256.204 82.6116 256.175 82.5539 256.146L82.8423 255.146C83.118 255.217 83.3616 255.242 83.5731 255.223C83.7846 255.204 83.9721 255.109 84.1356 254.94C84.3023 254.773 84.4545 254.502 84.5923 254.127L84.8039 253.55L82.0731 246.127H83.3039L85.3423 252.012H85.4192L87.4577 246.127H88.6885L85.5539 254.589C85.4128 254.97 85.2382 255.286 85.0298 255.536C84.8215 255.789 84.5795 255.976 84.3039 256.098C84.0314 256.22 83.7237 256.281 83.3808 256.281ZM4.99377 269.685C4.52582 269.685 4.10114 269.597 3.71973 269.42C3.33832 269.241 3.03543 268.983 2.81107 268.646C2.58671 268.307 2.47453 267.896 2.47453 267.416C2.47453 266.992 2.55787 266.65 2.72453 266.387C2.8912 266.121 3.11396 265.912 3.3928 265.762C3.67165 265.611 3.97934 265.499 4.31588 265.425C4.65562 265.348 4.99697 265.287 5.33992 265.242C5.78864 265.185 6.15242 265.142 6.43127 265.113C6.71332 265.081 6.91845 265.028 7.04665 264.954C7.17806 264.88 7.24377 264.752 7.24377 264.569V264.531C7.24377 264.057 7.11396 263.688 6.85434 263.425C6.59793 263.162 6.20851 263.031 5.68607 263.031C5.14441 263.031 4.71973 263.15 4.41203 263.387C4.10434 263.624 3.888 263.877 3.763 264.146L2.68607 263.762C2.87838 263.313 3.13479 262.964 3.4553 262.714C3.77902 262.46 4.13159 262.284 4.513 262.185C4.89761 262.082 5.27582 262.031 5.64761 262.031C5.88479 262.031 6.15723 262.06 6.46492 262.117C6.77582 262.172 7.0755 262.286 7.36396 262.459C7.65562 262.632 7.89761 262.893 8.08992 263.242C8.28223 263.592 8.37838 264.06 8.37838 264.646V269.512H7.24377V268.512H7.18607C7.10915 268.672 6.98095 268.843 6.80146 269.026C6.62197 269.209 6.38319 269.364 6.08511 269.492C5.78703 269.621 5.42325 269.685 4.99377 269.685ZM5.16684 268.666C5.61556 268.666 5.99377 268.577 6.30146 268.401C6.61236 268.225 6.84633 267.997 7.00338 267.718C7.16364 267.44 7.24377 267.146 7.24377 266.839V265.8C7.19569 265.858 7.08992 265.911 6.92646 265.959C6.7662 266.004 6.5803 266.044 6.36877 266.079C6.16043 266.111 5.95691 266.14 5.75819 266.166C5.56268 266.188 5.40402 266.207 5.28223 266.223C4.98736 266.262 4.71171 266.324 4.4553 266.411C4.2021 266.494 3.99697 266.621 3.83992 266.791C3.68607 266.957 3.60915 267.185 3.60915 267.473C3.60915 267.867 3.75498 268.166 4.04665 268.367C4.34152 268.566 4.71492 268.666 5.16684 268.666ZM11.5839 265.069V269.512H10.4493V262.127H11.5454V263.281H11.6416C11.8147 262.906 12.0775 262.605 12.4301 262.377C12.7826 262.146 13.2378 262.031 13.7954 262.031C14.2954 262.031 14.7329 262.134 15.1079 262.339C15.4829 262.541 15.7746 262.848 15.9829 263.262C16.1913 263.672 16.2954 264.191 16.2954 264.819V269.512H15.1608V264.896C15.1608 264.316 15.0102 263.864 14.7089 263.541C14.4076 263.214 13.9942 263.05 13.4685 263.05C13.1063 263.05 12.7826 263.129 12.4974 263.286C12.2153 263.443 11.9926 263.672 11.8291 263.973C11.6656 264.275 11.5839 264.64 11.5839 265.069ZM18.8351 272.281C18.6428 272.281 18.4713 272.265 18.3207 272.233C18.17 272.204 18.0659 272.175 18.0082 272.146L18.2967 271.146C18.5723 271.217 18.8159 271.242 19.0274 271.223C19.239 271.204 19.4265 271.109 19.5899 270.94C19.7566 270.773 19.9088 270.502 20.0467 270.127L20.2582 269.55L17.5274 262.127H18.7582L20.7967 268.012H20.8736L22.912 262.127H24.1428L21.0082 270.589C20.8672 270.97 20.6925 271.286 20.4842 271.536C20.2758 271.789 20.0338 271.976 19.7582 272.098C19.4858 272.22 19.1781 272.281 18.8351 272.281ZM28.376 269.666C27.7093 269.666 27.1244 269.507 26.6212 269.19C26.1212 268.872 25.7301 268.428 25.4481 267.858C25.1692 267.287 25.0298 266.621 25.0298 265.858C25.0298 265.089 25.1692 264.417 25.4481 263.843C25.7301 263.27 26.1212 262.824 26.6212 262.507C27.1244 262.19 27.7093 262.031 28.376 262.031C29.0426 262.031 29.626 262.19 30.126 262.507C30.6292 262.824 31.0202 263.27 31.2991 263.843C31.5811 264.417 31.7221 265.089 31.7221 265.858C31.7221 266.621 31.5811 267.287 31.2991 267.858C31.0202 268.428 30.6292 268.872 30.126 269.19C29.626 269.507 29.0426 269.666 28.376 269.666ZM28.376 268.646C28.8824 268.646 29.2991 268.517 29.626 268.257C29.9529 267.997 30.1949 267.656 30.3519 267.233C30.509 266.81 30.5875 266.351 30.5875 265.858C30.5875 265.364 30.509 264.904 30.3519 264.478C30.1949 264.052 29.9529 263.707 29.626 263.444C29.2991 263.182 28.8824 263.05 28.376 263.05C27.8696 263.05 27.4529 263.182 27.126 263.444C26.7991 263.707 26.5571 264.052 26.4 264.478C26.243 264.904 26.1644 265.364 26.1644 265.858C26.1644 266.351 26.243 266.81 26.4 267.233C26.5571 267.656 26.7991 267.997 27.126 268.257C27.4529 268.517 27.8696 268.646 28.376 268.646ZM34.5887 265.069V269.512H33.4541V262.127H34.5503V263.281H34.6464C34.8195 262.906 35.0823 262.605 35.4349 262.377C35.7874 262.146 36.2426 262.031 36.8003 262.031C37.3003 262.031 37.7378 262.134 38.1128 262.339C38.4878 262.541 38.7794 262.848 38.9878 263.262C39.1961 263.672 39.3003 264.191 39.3003 264.819V269.512H38.1656V264.896C38.1656 264.316 38.015 263.864 37.7137 263.541C37.4124 263.214 36.999 263.05 36.4733 263.05C36.1112 263.05 35.7874 263.129 35.5022 263.286C35.2201 263.443 34.9974 263.672 34.8339 263.973C34.6704 264.275 34.5887 264.64 34.5887 265.069ZM44.4697 269.666C43.7582 269.666 43.1444 269.509 42.6284 269.194C42.1156 268.877 41.7197 268.435 41.4409 267.867C41.1652 267.297 41.0274 266.634 41.0274 265.877C41.0274 265.121 41.1652 264.454 41.4409 263.877C41.7197 263.297 42.1075 262.845 42.6043 262.521C43.1043 262.194 43.6877 262.031 44.3543 262.031C44.739 262.031 45.1188 262.095 45.4938 262.223C45.8688 262.351 46.2101 262.56 46.5178 262.848C46.8255 263.134 47.0707 263.512 47.2534 263.983C47.4361 264.454 47.5274 265.034 47.5274 265.723V266.204H41.8351V265.223H46.3736C46.3736 264.807 46.2902 264.435 46.1236 264.108C45.9601 263.781 45.7261 263.523 45.4217 263.334C45.1204 263.145 44.7646 263.05 44.3543 263.05C43.9024 263.05 43.5114 263.162 43.1813 263.387C42.8543 263.608 42.6027 263.896 42.4265 264.252C42.2502 264.608 42.162 264.989 42.162 265.396V266.05C42.162 266.608 42.2582 267.081 42.4505 267.468C42.646 267.853 42.9168 268.146 43.263 268.348C43.6092 268.547 44.0114 268.646 44.4697 268.646C44.7678 268.646 45.037 268.605 45.2774 268.521C45.521 268.435 45.7309 268.307 45.9072 268.137C46.0835 267.964 46.2197 267.749 46.3159 267.492L47.412 267.8C47.2967 268.172 47.1027 268.499 46.8303 268.781C46.5579 269.06 46.2213 269.278 45.8207 269.435C45.42 269.589 44.9697 269.666 44.4697 269.666ZM49.6572 265.358C49.6572 264.146 49.8143 263.033 50.1284 262.017C50.4457 260.997 50.8976 260.06 51.4842 259.204H52.4842C52.2534 259.521 52.037 259.912 51.8351 260.377C51.6364 260.839 51.4617 261.347 51.3111 261.901C51.1604 262.452 51.0418 263.023 50.9553 263.613C50.872 264.202 50.8303 264.784 50.8303 265.358C50.8303 266.121 50.904 266.895 51.0515 267.68C51.1989 268.465 51.3976 269.194 51.6476 269.867C51.8976 270.541 52.1765 271.089 52.4842 271.512H51.4842C50.8976 270.656 50.4457 269.72 50.1284 268.704C49.8143 267.685 49.6572 266.569 49.6572 265.358ZM54.1584 269.512V262.127H55.293V269.512H54.1584ZM54.7354 260.896C54.5142 260.896 54.3235 260.821 54.1632 260.67C54.0062 260.52 53.9277 260.339 53.9277 260.127C53.9277 259.916 54.0062 259.734 54.1632 259.584C54.3235 259.433 54.5142 259.358 54.7354 259.358C54.9565 259.358 55.1456 259.433 55.3027 259.584C55.4629 259.734 55.543 259.916 55.543 260.127C55.543 260.339 55.4629 260.52 55.3027 260.67C55.1456 260.821 54.9565 260.896 54.7354 260.896ZM58.1981 269.589C57.9609 269.589 57.7574 269.504 57.5875 269.334C57.4176 269.164 57.3327 268.96 57.3327 268.723C57.3327 268.486 57.4176 268.283 57.5875 268.113C57.7574 267.943 57.9609 267.858 58.1981 267.858C58.4353 267.858 58.6388 267.943 58.8087 268.113C58.9785 268.283 59.0635 268.486 59.0635 268.723C59.0635 268.88 59.0234 269.025 58.9433 269.156C58.8664 269.287 58.7622 269.393 58.6308 269.473C58.5026 269.55 58.3584 269.589 58.1981 269.589ZM64.1957 269.666C63.4842 269.666 62.8704 269.509 62.3543 269.194C61.8415 268.877 61.4457 268.435 61.1668 267.867C60.8912 267.297 60.7534 266.634 60.7534 265.877C60.7534 265.121 60.8912 264.454 61.1668 263.877C61.4457 263.297 61.8335 262.845 62.3303 262.521C62.8303 262.194 63.4136 262.031 64.0803 262.031C64.4649 262.031 64.8447 262.095 65.2197 262.223C65.5947 262.351 65.9361 262.56 66.2438 262.848C66.5515 263.134 66.7967 263.512 66.9793 263.983C67.162 264.454 67.2534 265.034 67.2534 265.723V266.204H61.5611V265.223H66.0995C66.0995 264.807 66.0162 264.435 65.8495 264.108C65.6861 263.781 65.4521 263.523 65.1476 263.334C64.8463 263.145 64.4906 263.05 64.0803 263.05C63.6284 263.05 63.2374 263.162 62.9072 263.387C62.5803 263.608 62.3287 263.896 62.1524 264.252C61.9761 264.608 61.888 264.989 61.888 265.396V266.05C61.888 266.608 61.9842 267.081 62.1765 267.468C62.372 267.853 62.6428 268.146 62.989 268.348C63.3351 268.547 63.7374 268.646 64.1957 268.646C64.4938 268.646 64.763 268.605 65.0034 268.521C65.247 268.435 65.4569 268.307 65.6332 268.137C65.8095 267.964 65.9457 267.749 66.0418 267.492L67.138 267.8C67.0226 268.172 66.8287 268.499 66.5563 268.781C66.2838 269.06 65.9473 269.278 65.5467 269.435C65.146 269.589 64.6957 269.666 64.1957 269.666ZM69.8063 269.589C69.5691 269.589 69.3656 269.504 69.1957 269.334C69.0258 269.164 68.9409 268.96 68.9409 268.723C68.9409 268.486 69.0258 268.283 69.1957 268.113C69.3656 267.943 69.5691 267.858 69.8063 267.858C70.0435 267.858 70.247 267.943 70.4168 268.113C70.5867 268.283 70.6717 268.486 70.6717 268.723C70.6717 268.88 70.6316 269.025 70.5515 269.156C70.4745 269.287 70.3704 269.393 70.239 269.473C70.1108 269.55 69.9665 269.589 69.8063 269.589ZM8.85915 278.127L6.12838 285.512H4.97453L2.24377 278.127H3.47453L5.513 284.012H5.58992L7.62838 278.127H8.85915ZM12.3051 285.685C11.8371 285.685 11.4124 285.597 11.031 285.42C10.6496 285.241 10.3467 284.983 10.1224 284.646C9.89801 284.307 9.78583 283.896 9.78583 283.416C9.78583 282.992 9.86917 282.65 10.0358 282.387C10.2025 282.121 10.4253 281.912 10.7041 281.762C10.9829 281.611 11.2906 281.499 11.6272 281.425C11.9669 281.348 12.3083 281.287 12.6512 281.242C13.0999 281.185 13.4637 281.142 13.7426 281.113C14.0246 281.081 14.2297 281.028 14.3579 280.954C14.4894 280.88 14.5551 280.752 14.5551 280.569V280.531C14.5551 280.057 14.4253 279.688 14.1656 279.425C13.9092 279.162 13.5198 279.031 12.9974 279.031C12.4557 279.031 12.031 279.15 11.7233 279.387C11.4156 279.624 11.1993 279.877 11.0743 280.146L9.99737 279.762C10.1897 279.313 10.4461 278.964 10.7666 278.714C11.0903 278.46 11.4429 278.284 11.8243 278.185C12.2089 278.082 12.5871 278.031 12.9589 278.031C13.1961 278.031 13.4685 278.06 13.7762 278.117C14.0871 278.172 14.3868 278.286 14.6753 278.459C14.9669 278.632 15.2089 278.893 15.4012 279.242C15.5935 279.592 15.6897 280.06 15.6897 280.646V285.512H14.5551V284.512H14.4974C14.4204 284.672 14.2922 284.843 14.1128 285.026C13.9333 285.209 13.6945 285.364 13.3964 285.492C13.0983 285.621 12.7346 285.685 12.3051 285.685ZM12.4781 284.666C12.9269 284.666 13.3051 284.577 13.6128 284.401C13.9237 284.225 14.1576 283.997 14.3147 283.718C14.4749 283.44 14.5551 283.146 14.5551 282.839V281.8C14.507 281.858 14.4012 281.911 14.2378 281.959C14.0775 282.004 13.8916 282.044 13.6801 282.079C13.4717 282.111 13.2682 282.14 13.0695 282.166C12.874 282.188 12.7153 282.207 12.5935 282.223C12.2987 282.262 12.023 282.324 11.7666 282.411C11.5134 282.494 11.3083 282.621 11.1512 282.791C10.9974 282.957 10.9204 283.185 10.9204 283.473C10.9204 283.867 11.0663 284.166 11.3579 284.367C11.6528 284.566 12.0262 284.666 12.4781 284.666ZM18.8952 275.666V285.512H17.7606V275.666H18.8952ZM20.9733 285.512V278.127H22.1079V285.512H20.9733ZM21.5503 276.896C21.3291 276.896 21.1384 276.821 20.9781 276.67C20.8211 276.52 20.7426 276.339 20.7426 276.127C20.7426 275.916 20.8211 275.734 20.9781 275.584C21.1384 275.433 21.3291 275.358 21.5503 275.358C21.7714 275.358 21.9605 275.433 22.1176 275.584C22.2778 275.734 22.3579 275.916 22.3579 276.127C22.3579 276.339 22.2778 276.52 22.1176 276.67C21.9605 276.821 21.7714 276.896 21.5503 276.896ZM26.9745 285.666C26.3592 285.666 25.8159 285.51 25.3447 285.199C24.8736 284.885 24.505 284.443 24.239 283.872C23.9729 283.299 23.8399 282.621 23.8399 281.839C23.8399 281.063 23.9729 280.39 24.239 279.819C24.505 279.249 24.8752 278.808 25.3495 278.497C25.8239 278.186 26.372 278.031 26.9938 278.031C27.4745 278.031 27.8543 278.111 28.1332 278.271C28.4152 278.428 28.63 278.608 28.7774 278.81C28.9281 279.009 29.0451 279.172 29.1284 279.3H29.2245V275.666H30.3592V285.512H29.263V284.377H29.1284C29.0451 284.512 28.9265 284.682 28.7726 284.887C28.6188 285.089 28.3992 285.27 28.114 285.43C27.8287 285.587 27.4489 285.666 26.9745 285.666ZM27.1284 284.646C27.5835 284.646 27.9681 284.528 28.2822 284.291C28.5963 284.05 28.8351 283.718 28.9986 283.295C29.162 282.869 29.2438 282.377 29.2438 281.819C29.2438 281.268 29.1636 280.786 29.0034 280.372C28.8431 279.956 28.6059 279.632 28.2918 279.401C27.9777 279.167 27.5899 279.05 27.1284 279.05C26.6476 279.05 26.247 279.174 25.9265 279.42C25.6092 279.664 25.3704 279.996 25.2101 280.416C25.0531 280.832 24.9745 281.3 24.9745 281.819C24.9745 282.345 25.0547 282.823 25.2149 283.252C25.3784 283.678 25.6188 284.018 25.9361 284.271C26.2566 284.521 26.654 284.646 27.1284 284.646ZM34.7678 285.685C34.2999 285.685 33.8752 285.597 33.4938 285.42C33.1124 285.241 32.8095 284.983 32.5851 284.646C32.3608 284.307 32.2486 283.896 32.2486 283.416C32.2486 282.992 32.3319 282.65 32.4986 282.387C32.6652 282.121 32.888 281.912 33.1668 281.762C33.4457 281.611 33.7534 281.499 34.0899 281.425C34.4297 281.348 34.771 281.287 35.114 281.242C35.5627 281.185 35.9265 281.142 36.2053 281.113C36.4874 281.081 36.6925 281.028 36.8207 280.954C36.9521 280.88 37.0178 280.752 37.0178 280.569V280.531C37.0178 280.057 36.888 279.688 36.6284 279.425C36.372 279.162 35.9825 279.031 35.4601 279.031C34.9184 279.031 34.4938 279.15 34.1861 279.387C33.8784 279.624 33.662 279.877 33.537 280.146L32.4601 279.762C32.6524 279.313 32.9088 278.964 33.2293 278.714C33.5531 278.46 33.9056 278.284 34.287 278.185C34.6717 278.082 35.0499 278.031 35.4217 278.031C35.6588 278.031 35.9313 278.06 36.239 278.117C36.5499 278.172 36.8495 278.286 37.138 278.459C37.4297 278.632 37.6717 278.893 37.864 279.242C38.0563 279.592 38.1524 280.06 38.1524 280.646V285.512H37.0178V284.512H36.9601C36.8832 284.672 36.755 284.843 36.5755 285.026C36.396 285.209 36.1572 285.364 35.8592 285.492C35.5611 285.621 35.1973 285.685 34.7678 285.685ZM34.9409 284.666C35.3896 284.666 35.7678 284.577 36.0755 284.401C36.3864 284.225 36.6204 283.997 36.7774 283.718C36.9377 283.44 37.0178 283.146 37.0178 282.839V281.8C36.9697 281.858 36.864 281.911 36.7005 281.959C36.5402 282.004 36.3543 282.044 36.1428 282.079C35.9345 282.111 35.7309 282.14 35.5322 282.166C35.3367 282.188 35.1781 282.207 35.0563 282.223C34.7614 282.262 34.4858 282.324 34.2293 282.411C33.9761 282.494 33.771 282.621 33.614 282.791C33.4601 282.957 33.3832 283.185 33.3832 283.473C33.3832 283.867 33.529 284.166 33.8207 284.367C34.1156 284.566 34.489 284.666 34.9409 284.666ZM43.4349 278.127V279.089H39.608V278.127H43.4349ZM40.7233 276.358H41.858V283.396C41.858 283.717 41.9044 283.957 41.9974 284.117C42.0935 284.275 42.2153 284.38 42.3628 284.435C42.5134 284.486 42.6721 284.512 42.8387 284.512C42.9637 284.512 43.0663 284.505 43.1464 284.492C43.2265 284.476 43.2906 284.464 43.3387 284.454L43.5695 285.473C43.4926 285.502 43.3852 285.531 43.2474 285.56C43.1096 285.592 42.9349 285.608 42.7233 285.608C42.4028 285.608 42.0887 285.539 41.781 285.401C41.4765 285.263 41.2233 285.053 41.0214 284.771C40.8227 284.489 40.7233 284.134 40.7233 283.704V276.358ZM48.0623 285.666C47.3956 285.666 46.8107 285.507 46.3075 285.19C45.8075 284.872 45.4164 284.428 45.1344 283.858C44.8555 283.287 44.7161 282.621 44.7161 281.858C44.7161 281.089 44.8555 280.417 45.1344 279.843C45.4164 279.27 45.8075 278.824 46.3075 278.507C46.8107 278.19 47.3956 278.031 48.0623 278.031C48.7289 278.031 49.3123 278.19 49.8123 278.507C50.3155 278.824 50.7065 279.27 50.9854 279.843C51.2674 280.417 51.4084 281.089 51.4084 281.858C51.4084 282.621 51.2674 283.287 50.9854 283.858C50.7065 284.428 50.3155 284.872 49.8123 285.19C49.3123 285.507 48.7289 285.666 48.0623 285.666ZM48.0623 284.646C48.5687 284.646 48.9854 284.517 49.3123 284.257C49.6392 283.997 49.8812 283.656 50.0382 283.233C50.1953 282.81 50.2738 282.351 50.2738 281.858C50.2738 281.364 50.1953 280.904 50.0382 280.478C49.8812 280.052 49.6392 279.707 49.3123 279.444C48.9854 279.182 48.5687 279.05 48.0623 279.05C47.5559 279.05 47.1392 279.182 46.8123 279.444C46.4854 279.707 46.2434 280.052 46.0863 280.478C45.9293 280.904 45.8507 281.364 45.8507 281.858C45.8507 282.351 45.9293 282.81 46.0863 283.233C46.2434 283.656 46.4854 283.997 46.8123 284.257C47.1392 284.517 47.5559 284.646 48.0623 284.646ZM53.1404 285.512V278.127H54.2366V279.242H54.3135C54.4481 278.877 54.6917 278.581 55.0443 278.353C55.3968 278.125 55.7943 278.012 56.2366 278.012C56.3199 278.012 56.4241 278.013 56.5491 278.017C56.6741 278.02 56.7686 278.025 56.8327 278.031V279.185C56.7943 279.175 56.7061 279.161 56.5683 279.142C56.4337 279.119 56.291 279.108 56.1404 279.108C55.7814 279.108 55.4609 279.183 55.1789 279.334C54.9 279.481 54.6789 279.686 54.5154 279.949C54.3551 280.209 54.275 280.505 54.275 280.839V285.512H53.1404ZM63.12 281.069V285.512H61.9854V278.127H63.0815V279.281H63.1777C63.3507 278.906 63.6136 278.605 63.9661 278.377C64.3187 278.146 64.7738 278.031 65.3315 278.031C65.8315 278.031 66.269 278.134 66.644 278.339C67.019 278.541 67.3107 278.848 67.519 279.262C67.7273 279.672 67.8315 280.191 67.8315 280.819V285.512H66.6969V280.896C66.6969 280.316 66.5463 279.864 66.245 279.541C65.9437 279.214 65.5302 279.05 65.0046 279.05C64.6424 279.05 64.3187 279.129 64.0334 279.286C63.7514 279.443 63.5286 279.672 63.3652 279.973C63.2017 280.275 63.12 280.64 63.12 281.069ZM72.9048 285.666C72.2382 285.666 71.6532 285.507 71.15 285.19C70.65 284.872 70.259 284.428 69.9769 283.858C69.6981 283.287 69.5587 282.621 69.5587 281.858C69.5587 281.089 69.6981 280.417 69.9769 279.843C70.259 279.27 70.65 278.824 71.15 278.507C71.6532 278.19 72.2382 278.031 72.9048 278.031C73.5715 278.031 74.1548 278.19 74.6548 278.507C75.158 278.824 75.5491 279.27 75.8279 279.843C76.11 280.417 76.251 281.089 76.251 281.858C76.251 282.621 76.11 283.287 75.8279 283.858C75.5491 284.428 75.158 284.872 74.6548 285.19C74.1548 285.507 73.5715 285.666 72.9048 285.666ZM72.9048 284.646C73.4112 284.646 73.8279 284.517 74.1548 284.257C74.4817 283.997 74.7237 283.656 74.8808 283.233C75.0378 282.81 75.1164 282.351 75.1164 281.858C75.1164 281.364 75.0378 280.904 74.8808 280.478C74.7237 280.052 74.4817 279.707 74.1548 279.444C73.8279 279.182 73.4112 279.05 72.9048 279.05C72.3984 279.05 71.9817 279.182 71.6548 279.444C71.3279 279.707 71.0859 280.052 70.9289 280.478C70.7718 280.904 70.6933 281.364 70.6933 281.858C70.6933 282.351 70.7718 282.81 70.9289 283.233C71.0859 283.656 71.3279 283.997 71.6548 284.257C71.9817 284.517 72.3984 284.646 72.9048 284.646ZM80.7714 285.666C80.156 285.666 79.6128 285.51 79.1416 285.199C78.6705 284.885 78.3019 284.443 78.0358 283.872C77.7698 283.299 77.6368 282.621 77.6368 281.839C77.6368 281.063 77.7698 280.39 78.0358 279.819C78.3019 279.249 78.6721 278.808 79.1464 278.497C79.6208 278.186 80.1688 278.031 80.7906 278.031C81.2714 278.031 81.6512 278.111 81.9301 278.271C82.2121 278.428 82.4269 278.608 82.5743 278.81C82.7249 279.009 82.8419 279.172 82.9253 279.3H83.0214V275.666H84.156V285.512H83.0599V284.377H82.9253C82.8419 284.512 82.7233 284.682 82.5695 284.887C82.4156 285.089 82.1961 285.27 81.9108 285.43C81.6256 285.587 81.2458 285.666 80.7714 285.666ZM80.9253 284.646C81.3804 284.646 81.765 284.528 82.0791 284.291C82.3932 284.05 82.632 283.718 82.7955 283.295C82.9589 282.869 83.0406 282.377 83.0406 281.819C83.0406 281.268 82.9605 280.786 82.8003 280.372C82.64 279.956 82.4028 279.632 82.0887 279.401C81.7746 279.167 81.3868 279.05 80.9253 279.05C80.4445 279.05 80.0438 279.174 79.7233 279.42C79.406 279.664 79.1672 279.996 79.007 280.416C78.8499 280.832 78.7714 281.3 78.7714 281.819C78.7714 282.345 78.8515 282.823 79.0118 283.252C79.1753 283.678 79.4156 284.018 79.733 284.271C80.0535 284.521 80.4509 284.646 80.9253 284.646ZM89.4878 285.666C88.7762 285.666 88.1624 285.509 87.6464 285.194C87.1336 284.877 86.7378 284.435 86.4589 283.867C86.1833 283.297 86.0455 282.634 86.0455 281.877C86.0455 281.121 86.1833 280.454 86.4589 279.877C86.7378 279.297 87.1256 278.845 87.6224 278.521C88.1224 278.194 88.7057 278.031 89.3724 278.031C89.757 278.031 90.1368 278.095 90.5118 278.223C90.8868 278.351 91.2282 278.56 91.5358 278.848C91.8435 279.134 92.0887 279.512 92.2714 279.983C92.4541 280.454 92.5455 281.034 92.5455 281.723V282.204H86.8531V281.223H91.3916C91.3916 280.807 91.3083 280.435 91.1416 280.108C90.9782 279.781 90.7442 279.523 90.4397 279.334C90.1384 279.145 89.7826 279.05 89.3724 279.05C88.9205 279.05 88.5294 279.162 88.1993 279.387C87.8724 279.608 87.6208 279.896 87.4445 280.252C87.2682 280.608 87.1801 280.989 87.1801 281.396V282.05C87.1801 282.608 87.2762 283.081 87.4685 283.468C87.664 283.853 87.9349 284.146 88.281 284.348C88.6272 284.547 89.0294 284.646 89.4878 284.646C89.7858 284.646 90.0551 284.605 90.2955 284.521C90.539 284.435 90.749 284.307 90.9253 284.137C91.1015 283.964 91.2378 283.749 91.3339 283.492L92.4301 283.8C92.3147 284.172 92.1208 284.499 91.8483 284.781C91.5759 285.06 91.2394 285.278 90.8387 285.435C90.4381 285.589 89.9878 285.666 89.4878 285.666ZM99.5022 279.781L98.483 280.069C98.4189 279.9 98.3243 279.734 98.1993 279.574C98.0775 279.411 97.9108 279.276 97.6993 279.17C97.4878 279.065 97.2169 279.012 96.8868 279.012C96.4349 279.012 96.0583 279.116 95.757 279.324C95.4589 279.529 95.3099 279.791 95.3099 280.108C95.3099 280.39 95.4124 280.613 95.6176 280.776C95.8227 280.94 96.1432 281.076 96.5791 281.185L97.6753 281.454C98.3355 281.614 98.8275 281.859 99.1512 282.19C99.4749 282.517 99.6368 282.938 99.6368 283.454C99.6368 283.877 99.515 284.255 99.2714 284.589C99.031 284.922 98.6945 285.185 98.2618 285.377C97.8291 285.569 97.3259 285.666 96.7522 285.666C95.999 285.666 95.3756 285.502 94.882 285.175C94.3884 284.848 94.0759 284.371 93.9445 283.742L95.0214 283.473C95.124 283.871 95.3179 284.169 95.6031 284.367C95.8916 284.566 96.2682 284.666 96.733 284.666C97.2618 284.666 97.6817 284.553 97.9926 284.329C98.3067 284.101 98.4637 283.829 98.4637 283.512C98.4637 283.255 98.374 283.041 98.1945 282.867C98.015 282.691 97.7394 282.56 97.3676 282.473L96.1368 282.185C95.4605 282.025 94.9637 281.776 94.6464 281.44C94.3323 281.1 94.1753 280.675 94.1753 280.166C94.1753 279.749 94.2923 279.38 94.5262 279.06C94.7634 278.739 95.0855 278.488 95.4926 278.305C95.9028 278.122 96.3676 278.031 96.8868 278.031C97.6176 278.031 98.1913 278.191 98.608 278.512C99.0278 278.832 99.3259 279.255 99.5022 279.781ZM103.768 281.358C103.768 282.569 103.609 283.685 103.292 284.704C102.978 285.72 102.527 286.656 101.941 287.512H100.941C101.172 287.194 101.386 286.803 101.585 286.339C101.787 285.877 101.963 285.371 102.114 284.819C102.265 284.265 102.382 283.693 102.465 283.103C102.551 282.51 102.595 281.928 102.595 281.358C102.595 280.595 102.521 279.821 102.374 279.036C102.226 278.25 102.027 277.521 101.777 276.848C101.527 276.175 101.249 275.627 100.941 275.204H101.941C102.527 276.06 102.978 276.997 103.292 278.017C103.609 279.033 103.768 280.146 103.768 281.358Z" fill="black"/>
<g clip-path="url(#clip0_551_1992)">
<path d="M72.6932 174.913C72.831 175.224 72.943 175.587 73.0291 176.002C73.1152 176.417 73.1582 176.849 73.1582 177.299C73.1582 177.748 73.0721 178.198 72.8999 178.647C72.7277 179.097 72.4521 179.529 72.0732 179.944C71.6599 180.359 71.2896 180.722 70.9624 181.033C70.6352 181.344 70.351 181.621 70.1099 181.863C69.8343 182.14 69.576 182.382 69.3349 182.589L59.6731 172.89C60.0865 172.509 60.5773 172.051 61.1457 171.515C61.714 170.979 62.1876 170.556 62.5665 170.245C63.0487 169.864 63.5482 169.596 64.0648 169.441C64.5815 169.285 65.0896 169.216 65.589 169.233C66.0885 169.25 66.5707 169.328 67.0357 169.466C67.5007 169.605 67.9054 169.76 68.2499 169.933C68.9732 170.314 69.7741 170.979 70.6524 171.93C71.5307 172.881 72.211 173.875 72.6932 174.913ZM32.4446 200.225C32.6513 200.017 33.1335 199.525 33.8913 198.746C34.649 197.968 35.5963 197.009 36.733 195.868L40.5046 192.081L44.6897 187.88L55.7981 176.728L65.4599 186.479L54.3514 197.631L50.2181 201.833C48.8403 203.181 47.6003 204.417 46.498 205.541C45.3958 206.665 44.483 207.59 43.7597 208.316C43.0363 209.042 42.6058 209.457 42.468 209.561C42.1236 209.872 41.7274 210.201 41.2797 210.547C40.8319 210.892 40.3669 211.169 39.8846 211.377C39.4024 211.619 38.6963 211.913 37.7663 212.258C36.8363 212.604 35.8632 212.941 34.8471 213.27C33.831 213.598 32.8665 213.884 31.9537 214.126C31.041 214.368 30.3607 214.523 29.9129 214.592C28.9829 214.696 28.3629 214.558 28.0529 214.177C27.7429 213.797 27.6568 213.157 27.7945 212.258C27.8634 211.774 28.027 211.074 28.2854 210.158C28.5437 209.241 28.8193 208.29 29.1121 207.305C29.4048 206.319 29.689 205.412 29.9646 204.582C30.2401 203.752 30.464 203.181 30.6362 202.87C30.8429 202.386 31.0754 201.945 31.3337 201.547C31.5921 201.15 31.9624 200.709 32.4446 200.225Z" fill="#8BAFFF"/>
<path d="M29.5479 175.038V172.886H33.298V182.769H30.8882V175.038H29.5479Z" fill="black"/>
<path d="M35.8971 177.692C35.8971 176.139 36.1949 174.916 36.7906 174.023C37.3953 173.129 38.3656 172.683 39.7014 172.683C41.0372 172.683 42.0029 173.129 42.5986 174.023C43.2033 174.916 43.5057 176.139 43.5057 177.692C43.5057 179.262 43.2033 180.494 42.5986 181.388C42.0029 182.281 41.0372 182.728 39.7014 182.728C38.3656 182.728 37.3953 182.281 36.7906 181.388C36.1949 180.494 35.8971 179.262 35.8971 177.692ZM41.2312 177.692C41.2312 176.78 41.1319 176.081 40.9334 175.593C40.7348 175.097 40.3242 174.849 39.7014 174.849C39.0786 174.849 38.6679 175.097 38.4694 175.593C38.2708 176.081 38.1715 176.78 38.1715 177.692C38.1715 178.306 38.2076 178.816 38.2798 179.222C38.352 179.619 38.4965 179.944 38.7131 180.196C38.9387 180.44 39.2682 180.562 39.7014 180.562C40.1346 180.562 40.4595 180.44 40.6762 180.196C40.9018 179.944 41.0507 179.619 41.1229 179.222C41.1951 178.816 41.2312 178.306 41.2312 177.692Z" fill="black"/>
<path d="M45.7442 177.692C45.7442 176.139 46.042 174.916 46.6377 174.023C47.2424 173.129 48.2127 172.683 49.5485 172.683C50.8843 172.683 51.85 173.129 52.4457 174.023C53.0504 174.916 53.3528 176.139 53.3528 177.692C53.3528 179.262 53.0504 180.494 52.4457 181.388C51.85 182.281 50.8843 182.728 49.5485 182.728C48.2127 182.728 47.2424 182.281 46.6377 181.388C46.042 180.494 45.7442 179.262 45.7442 177.692ZM51.0783 177.692C51.0783 176.78 50.9791 176.081 50.7805 175.593C50.5819 175.097 50.1713 174.849 49.5485 174.849C48.9257 174.849 48.5151 175.097 48.3165 175.593C48.1179 176.081 48.0187 176.78 48.0187 177.692C48.0187 178.306 48.0548 178.816 48.127 179.222C48.1992 179.619 48.3436 179.944 48.5602 180.196C48.7858 180.44 49.1153 180.562 49.5485 180.562C49.9817 180.562 50.3067 180.44 50.5233 180.196C50.7489 179.944 50.8978 179.619 50.97 179.222C51.0422 178.816 51.0783 178.306 51.0783 177.692Z" fill="black"/>
<path d="M55.3476 175.038V172.886H59.0978V182.769H56.6879V175.038H55.3476Z" fill="black"/>
<path d="M61.6968 177.692C61.6968 176.139 61.9947 174.916 62.5904 174.023C63.1951 173.129 64.1653 172.683 65.5011 172.683C66.8369 172.683 67.8027 173.129 68.3984 174.023C69.0031 174.916 69.3055 176.139 69.3055 177.692C69.3055 179.262 69.0031 180.494 68.3984 181.388C67.8027 182.281 66.8369 182.728 65.5011 182.728C64.1653 182.728 63.1951 182.281 62.5904 181.388C61.9947 180.494 61.6968 179.262 61.6968 177.692ZM67.031 177.692C67.031 176.78 66.9317 176.081 66.7331 175.593C66.5346 175.097 66.1239 174.849 65.5011 174.849C64.8784 174.849 64.4677 175.097 64.2691 175.593C64.0706 176.081 63.9713 176.78 63.9713 177.692C63.9713 178.306 64.0074 178.816 64.0796 179.222C64.1518 179.619 64.2962 179.944 64.5128 180.196C64.7385 180.44 65.0679 180.562 65.5011 180.562C65.9344 180.562 66.2593 180.44 66.4759 180.196C66.7015 179.944 66.8505 179.619 66.9227 179.222C66.9949 178.816 67.031 178.306 67.031 177.692Z" fill="black"/>
<path d="M29.791 192.359C29.791 190.806 30.0889 189.583 30.6846 188.69C31.2893 187.796 32.2595 187.35 33.5953 187.35C34.9311 187.35 35.8969 187.796 36.4926 188.69C37.0973 189.583 37.3996 190.806 37.3996 192.359C37.3996 193.929 37.0973 195.161 36.4926 196.055C35.8969 196.948 34.9311 197.395 33.5953 197.395C32.2595 197.395 31.2893 196.948 30.6846 196.055C30.0889 195.161 29.791 193.929 29.791 192.359ZM35.1252 192.359C35.1252 191.447 35.0259 190.748 34.8273 190.26C34.6288 189.764 34.2181 189.516 33.5953 189.516C32.9726 189.516 32.5619 189.764 32.3633 190.26C32.1648 190.748 32.0655 191.447 32.0655 192.359C32.0655 192.973 32.1016 193.483 32.1738 193.889C32.246 194.286 32.3904 194.611 32.607 194.863C32.8327 195.107 33.1621 195.229 33.5953 195.229C34.0286 195.229 34.3535 195.107 34.5701 194.863C34.7957 194.611 34.9447 194.286 35.0169 193.889C35.0891 193.483 35.1252 192.973 35.1252 192.359Z" fill="black"/>
<path d="M38.7581 192.359C38.7581 190.806 39.056 189.583 39.6517 188.69C40.2564 187.796 41.2266 187.35 42.5624 187.35C43.8982 187.35 44.864 187.796 45.4597 188.69C46.0644 189.583 46.3667 190.806 46.3667 192.359C46.3667 193.929 46.0644 195.161 45.4597 196.055C44.864 196.948 43.8982 197.395 42.5624 197.395C41.2266 197.395 40.2564 196.948 39.6517 196.055C39.056 195.161 38.7581 193.929 38.7581 192.359ZM44.0923 192.359C44.0923 191.447 43.993 190.748 43.7944 190.26C43.5959 189.764 43.1852 189.516 42.5624 189.516C41.9397 189.516 41.529 189.764 41.3304 190.26C41.1319 190.748 41.0326 191.447 41.0326 192.359C41.0326 192.973 41.0687 193.483 41.1409 193.889C41.2131 194.286 41.3575 194.611 41.5741 194.863C41.7998 195.107 42.1292 195.229 42.5624 195.229C42.9957 195.229 43.3206 195.107 43.5372 194.863C43.7628 194.611 43.9118 194.286 43.984 193.889C44.0562 193.483 44.0923 192.973 44.0923 192.359Z" fill="black"/>
<path d="M47.4816 189.705V187.553H51.2317V197.436H48.8219V189.705H47.4816Z" fill="black"/>
<path d="M52.9508 192.359C52.9508 190.806 53.2486 189.583 53.8443 188.69C54.449 187.796 55.4193 187.35 56.7551 187.35C58.0909 187.35 59.0566 187.796 59.6523 188.69C60.257 189.583 60.5594 190.806 60.5594 192.359C60.5594 193.929 60.257 195.161 59.6523 196.055C59.0566 196.948 58.0909 197.395 56.7551 197.395C55.4193 197.395 54.449 196.948 53.8443 196.055C53.2486 195.161 52.9508 193.929 52.9508 192.359ZM58.2849 192.359C58.2849 191.447 58.1856 190.748 57.9871 190.26C57.7885 189.764 57.3779 189.516 56.7551 189.516C56.1323 189.516 55.7216 189.764 55.5231 190.26C55.3245 190.748 55.2252 191.447 55.2252 192.359C55.2252 192.973 55.2613 193.483 55.3335 193.889C55.4057 194.286 55.5502 194.611 55.7668 194.863C55.9924 195.107 56.3219 195.229 56.7551 195.229C57.1883 195.229 57.5132 195.107 57.7299 194.863C57.9555 194.611 58.1044 194.286 58.1766 193.889C58.2488 193.483 58.2849 192.973 58.2849 192.359Z" fill="black"/>
<path d="M61.9179 192.359C61.9179 190.806 62.2157 189.583 62.8114 188.69C63.4161 187.796 64.3864 187.35 65.7222 187.35C67.058 187.35 68.0237 187.796 68.6194 188.69C69.2241 189.583 69.5265 190.806 69.5265 192.359C69.5265 193.929 69.2241 195.161 68.6194 196.055C68.0237 196.948 67.058 197.395 65.7222 197.395C64.3864 197.395 63.4161 196.948 62.8114 196.055C62.2157 195.161 61.9179 193.929 61.9179 192.359ZM67.252 192.359C67.252 191.447 67.1528 190.748 66.9542 190.26C66.7556 189.764 66.345 189.516 65.7222 189.516C65.0994 189.516 64.6888 189.764 64.4902 190.26C64.2916 190.748 64.1923 191.447 64.1923 192.359C64.1923 192.973 64.2285 193.483 64.3007 193.889C64.3729 194.286 64.5173 194.611 64.7339 194.863C64.9595 195.107 65.289 195.229 65.7222 195.229C66.1554 195.229 66.4803 195.107 66.697 194.863C66.9226 194.611 67.0715 194.286 67.1437 193.889C67.2159 193.483 67.252 192.973 67.252 192.359Z" fill="black"/>
<path d="M29.5479 204.37V202.218H33.298V212.101H30.8882V204.37H29.5479Z" fill="black"/>
<path d="M35.9648 207.024C35.9648 205.471 36.2626 204.248 36.8583 203.355C37.463 202.461 38.4333 202.015 39.7691 202.015C41.1049 202.015 42.0706 202.461 42.6663 203.355C43.271 204.248 43.5734 205.471 43.5734 207.024C43.5734 208.594 43.271 209.826 42.6663 210.72C42.0706 211.613 41.1049 212.06 39.7691 212.06C38.4333 212.06 37.463 211.613 36.8583 210.72C36.2626 209.826 35.9648 208.594 35.9648 207.024ZM41.2989 207.024C41.2989 206.112 41.1996 205.413 41.0011 204.925C40.8025 204.429 40.3918 204.181 39.7691 204.181C39.1463 204.181 38.7356 204.429 38.5371 204.925C38.3385 205.413 38.2392 206.112 38.2392 207.024C38.2392 207.638 38.2753 208.148 38.3475 208.554C38.4197 208.951 38.5641 209.276 38.7808 209.528C39.0064 209.772 39.3358 209.894 39.7691 209.894C40.2023 209.894 40.5272 209.772 40.7438 209.528C40.9695 209.276 41.1184 208.951 41.1906 208.554C41.2628 208.148 41.2989 207.638 41.2989 207.024Z" fill="black"/>
<path d="M45.6359 204.37V202.218H49.386V212.101H46.9762V204.37H45.6359Z" fill="black"/>
<path d="M52.0528 207.024C52.0528 205.471 52.3506 204.248 52.9463 203.355C53.551 202.461 54.5213 202.015 55.8571 202.015C57.1929 202.015 58.1586 202.461 58.7543 203.355C59.359 204.248 59.6614 205.471 59.6614 207.024C59.6614 208.594 59.359 209.826 58.7543 210.72C58.1586 211.613 57.1929 212.06 55.8571 212.06C54.5213 212.06 53.551 211.613 52.9463 210.72C52.3506 209.826 52.0528 208.594 52.0528 207.024ZM57.3869 207.024C57.3869 206.112 57.2877 205.413 57.0891 204.925C56.8905 204.429 56.4799 204.181 55.8571 204.181C55.2343 204.181 54.8237 204.429 54.6251 204.925C54.4265 205.413 54.3273 206.112 54.3273 207.024C54.3273 207.638 54.3634 208.148 54.4356 208.554C54.5078 208.951 54.6522 209.276 54.8688 209.528C55.0944 209.772 55.4239 209.894 55.8571 209.894C56.2903 209.894 56.6153 209.772 56.8319 209.528C57.0575 209.276 57.2064 208.951 57.2786 208.554C57.3508 208.148 57.3869 207.638 57.3869 207.024Z" fill="black"/>
<path d="M61.9676 207.024C61.9676 205.471 62.2654 204.248 62.8611 203.355C63.4659 202.461 64.4361 202.015 65.7719 202.015C67.1077 202.015 68.0734 202.461 68.6691 203.355C69.2739 204.248 69.5762 205.471 69.5762 207.024C69.5762 208.594 69.2739 209.826 68.6691 210.72C68.0734 211.613 67.1077 212.06 65.7719 212.06C64.4361 212.06 63.4659 211.613 62.8611 210.72C62.2654 209.826 61.9676 208.594 61.9676 207.024ZM67.3018 207.024C67.3018 206.112 67.2025 205.413 67.0039 204.925C66.8053 204.429 66.3947 204.181 65.7719 204.181C65.1491 204.181 64.7385 204.429 64.5399 204.925C64.3413 205.413 64.2421 206.112 64.2421 207.024C64.2421 207.638 64.2782 208.148 64.3504 208.554C64.4226 208.951 64.567 209.276 64.7836 209.528C65.0092 209.772 65.3387 209.894 65.7719 209.894C66.2051 209.894 66.5301 209.772 66.7467 209.528C66.9723 209.276 67.1212 208.951 67.1934 208.554C67.2657 208.148 67.3018 207.638 67.3018 207.024Z" fill="black"/>
</g>
<path d="M112.722 192.359C112.722 194.021 114.069 195.368 115.731 195.368C117.393 195.368 118.74 194.021 118.74 192.359C118.74 190.698 117.393 189.351 115.731 189.351C114.069 189.351 112.722 190.698 112.722 192.359ZM159.731 192.359L154.09 189.103V195.616L159.731 192.359ZM115.731 192.923H154.654V191.795H115.731V192.923Z" fill="black"/>
<defs>
<clipPath id="clip0_551_1992">
<rect width="45.4273" height="45.3953" fill="white" transform="translate(27.731 169.23)"/>
</clipPath>
</defs>
</svg>
