<svg width="66" height="379" viewBox="0 0 66 379" fill="none" xmlns="http://www.w3.org/2000/svg">
<path d="M11.444 184.077C11.444 185.138 11.2452 186.046 10.8478 186.803C10.4536 187.556 9.91511 188.133 9.23242 188.534C8.55293 188.934 7.7821 189.135 6.91992 189.135C6.05774 189.135 5.2853 188.934 4.60261 188.534C3.92312 188.13 3.38466 187.551 2.98723 186.798C2.593 186.042 2.39588 185.135 2.39588 184.077C2.39588 183.016 2.593 182.109 2.98723 181.356C3.38466 180.599 3.92312 180.021 4.60261 179.62C5.2853 179.22 6.05774 179.019 6.91992 179.019C7.7821 179.019 8.55293 179.22 9.23242 179.62C9.91511 180.021 10.4536 180.599 10.8478 181.356C11.2452 182.109 11.444 183.016 11.444 184.077ZM9.65069 184.077C9.65069 183.33 9.5337 182.7 9.29973 182.187C9.06896 181.671 8.74845 181.282 8.33819 181.019C7.92793 180.753 7.45518 180.62 6.91992 180.62C6.38466 180.62 5.91191 180.753 5.50165 181.019C5.09139 181.282 4.76928 181.671 4.5353 182.187C4.30453 182.7 4.18915 183.33 4.18915 184.077C4.18915 184.824 4.30453 185.455 4.5353 185.971C4.76928 186.484 5.09139 186.873 5.50165 187.139C5.91191 187.402 6.38466 187.534 6.91992 187.534C7.45518 187.534 7.92793 187.402 8.33819 187.139C8.74845 186.873 9.06896 186.484 9.29973 185.971C9.5337 185.455 9.65069 184.824 9.65069 184.077ZM14.7937 184.673V189H13.0533V181.615H14.7168V182.87H14.8033C14.9732 182.457 15.244 182.128 15.6158 181.885C15.9908 181.641 16.454 181.519 17.0053 181.519C17.5149 181.519 17.9588 181.628 18.337 181.846C18.7184 182.064 19.0133 182.38 19.2216 182.793C19.4331 183.207 19.5373 183.708 19.5341 184.298V189H17.7937V184.567C17.7937 184.074 17.6655 183.687 17.4091 183.409C17.1559 183.13 16.8049 182.99 16.3562 182.99C16.0517 182.99 15.7809 183.058 15.5437 183.192C15.3097 183.324 15.1254 183.514 14.9908 183.764C14.8594 184.014 14.7937 184.317 14.7937 184.673ZM25.7793 184.183V185.615H21.3466V184.183H25.7793ZM36.1146 182.476H34.3166C34.2653 182.181 34.1707 181.92 34.0329 181.692C33.8951 181.462 33.7236 181.266 33.5185 181.106C33.3134 180.946 33.0794 180.825 32.8166 180.745C32.5569 180.662 32.2765 180.62 31.9752 180.62C31.44 180.62 30.9656 180.755 30.5521 181.024C30.1387 181.29 29.815 181.681 29.581 182.197C29.347 182.71 29.23 183.337 29.23 184.077C29.23 184.83 29.347 185.465 29.581 185.981C29.8182 186.494 30.1419 186.881 30.5521 187.144C30.9656 187.404 31.4384 187.534 31.9704 187.534C32.2653 187.534 32.5409 187.495 32.7973 187.418C33.0569 187.338 33.2893 187.221 33.4944 187.067C33.7028 186.913 33.8775 186.724 34.0185 186.5C34.1627 186.276 34.2621 186.019 34.3166 185.731L36.1146 185.74C36.0473 186.208 35.9015 186.647 35.6771 187.058C35.456 187.468 35.1659 187.83 34.8069 188.144C34.448 188.455 34.0281 188.699 33.5473 188.875C33.0666 189.048 32.5329 189.135 31.9464 189.135C31.081 189.135 30.3085 188.934 29.6291 188.534C28.9496 188.133 28.4143 187.554 28.0233 186.798C27.6323 186.042 27.4367 185.135 27.4367 184.077C27.4367 183.016 27.6339 182.109 28.0281 181.356C28.4223 180.599 28.9592 180.021 29.6387 179.62C30.3182 179.22 31.0874 179.019 31.9464 179.019C32.4944 179.019 33.0041 179.096 33.4752 179.25C33.9464 179.404 34.3662 179.63 34.7348 179.928C35.1034 180.223 35.4063 180.585 35.6435 181.014C35.8839 181.441 36.0409 181.928 36.1146 182.476ZM39.4115 184.673V189H37.6711V179.154H39.373V182.87H39.4596C39.6327 182.454 39.9003 182.125 40.2625 181.885C40.6279 181.641 41.0926 181.519 41.6567 181.519C42.1695 181.519 42.6166 181.627 42.998 181.841C43.3795 182.056 43.6743 182.37 43.8827 182.784C44.0942 183.197 44.2 183.702 44.2 184.298V189H42.4596V184.567C42.4596 184.071 42.3314 183.684 42.075 183.409C41.8218 183.13 41.466 182.99 41.0077 182.99C40.7 182.99 40.4243 183.058 40.1807 183.192C39.9404 183.324 39.7513 183.514 39.6134 183.764C39.4788 184.014 39.4115 184.317 39.4115 184.673ZM48.099 189.149C47.6311 189.149 47.2096 189.066 46.8346 188.899C46.4628 188.729 46.1679 188.479 45.95 188.149C45.7352 187.819 45.6279 187.412 45.6279 186.928C45.6279 186.511 45.7048 186.167 45.8586 185.894C46.0125 185.622 46.2224 185.404 46.4884 185.24C46.7545 185.077 47.0541 184.954 47.3875 184.87C47.724 184.784 48.0718 184.721 48.4307 184.683C48.8634 184.638 49.2144 184.598 49.4836 184.562C49.7529 184.524 49.9484 184.466 50.0702 184.389C50.1952 184.309 50.2577 184.186 50.2577 184.019V183.99C50.2577 183.628 50.1503 183.348 49.9356 183.149C49.7208 182.95 49.4115 182.851 49.0077 182.851C48.5814 182.851 48.2432 182.944 47.9932 183.13C47.7464 183.316 47.5798 183.535 47.4932 183.788L45.8682 183.558C45.9964 183.109 46.208 182.734 46.5029 182.433C46.7977 182.128 47.1583 181.901 47.5846 181.75C48.0109 181.596 48.482 181.519 48.9981 181.519C49.3538 181.519 49.708 181.561 50.0606 181.644C50.4131 181.728 50.7352 181.865 51.0269 182.058C51.3186 182.247 51.5525 182.505 51.7288 182.832C51.9083 183.159 51.9981 183.567 51.9981 184.058V189H50.325V187.986H50.2673C50.1615 188.191 50.0125 188.383 49.8202 188.562C49.6311 188.739 49.3923 188.881 49.1038 188.99C48.8186 189.096 48.4836 189.149 48.099 189.149ZM48.5509 187.87C48.9003 187.87 49.2032 187.801 49.4596 187.663C49.716 187.522 49.9131 187.337 50.0509 187.106C50.192 186.875 50.2625 186.623 50.2625 186.351V185.481C50.208 185.526 50.115 185.567 49.9836 185.606C49.8554 185.644 49.7112 185.678 49.5509 185.707C49.3907 185.736 49.232 185.761 49.075 185.784C48.9179 185.806 48.7817 185.825 48.6663 185.841C48.4067 185.877 48.1743 185.934 47.9692 186.014C47.7641 186.095 47.6022 186.207 47.4836 186.351C47.365 186.492 47.3057 186.675 47.3057 186.899C47.3057 187.22 47.4227 187.462 47.6567 187.625C47.8907 187.788 48.1888 187.87 48.5509 187.87ZM53.7481 189V181.615H55.4884V189H53.7481ZM54.6231 180.567C54.3474 180.567 54.1102 180.476 53.9115 180.293C53.7128 180.107 53.6134 179.885 53.6134 179.625C53.6134 179.362 53.7128 179.139 53.9115 178.957C54.1102 178.771 54.3474 178.678 54.6231 178.678C54.9019 178.678 55.1391 178.771 55.3346 178.957C55.5333 179.139 55.6327 179.362 55.6327 179.625C55.6327 179.885 55.5333 180.107 55.3346 180.293C55.1391 180.476 54.9019 180.567 54.6231 180.567ZM59.0185 184.673V189H57.2781V181.615H58.9416V182.87H59.0281C59.198 182.457 59.4688 182.128 59.8406 181.885C60.2156 181.641 60.6787 181.519 61.23 181.519C61.7396 181.519 62.1835 181.628 62.5618 181.846C62.9432 182.064 63.238 182.38 63.4464 182.793C63.6579 183.207 63.7621 183.708 63.7589 184.298V189H62.0185V184.567C62.0185 184.074 61.8903 183.687 61.6339 183.409C61.3807 183.13 61.0297 182.99 60.581 182.99C60.2765 182.99 60.0057 183.058 59.7685 183.192C59.5345 183.324 59.3502 183.514 59.2156 183.764C59.0842 184.014 59.0185 184.317 59.0185 184.673ZM1.72701 205V195.154H8.13086V196.649H3.51066V199.322H7.79913V200.817H3.51066V203.505H8.16932V205H1.72701ZM11.2967 197.615L12.7871 200.341L14.3015 197.615H16.1429L13.9169 201.308L16.1813 205H14.3496L12.7871 202.341L11.239 205H9.39288L11.6429 201.308L9.45057 197.615H11.2967ZM20.4806 205.144C19.7402 205.144 19.1008 204.99 18.5623 204.683C18.0271 204.372 17.6152 203.933 17.3268 203.365C17.0383 202.795 16.8941 202.123 16.8941 201.351C16.8941 200.591 17.0383 199.925 17.3268 199.351C17.6184 198.774 18.0255 198.325 18.5479 198.005C19.0704 197.681 19.6841 197.519 20.3893 197.519C20.8444 197.519 21.2739 197.593 21.6777 197.74C22.0848 197.885 22.4438 198.109 22.7547 198.413C23.0688 198.718 23.3156 199.106 23.495 199.577C23.6745 200.045 23.7643 200.603 23.7643 201.25V201.784H17.7114V200.611H22.096C22.0928 200.277 22.0207 199.981 21.8797 199.721C21.7386 199.458 21.5415 199.252 21.2883 199.101C21.0383 198.95 20.7466 198.875 20.4133 198.875C20.0575 198.875 19.745 198.962 19.4758 199.135C19.2066 199.304 18.9966 199.529 18.846 199.808C18.6986 200.083 18.6232 200.386 18.62 200.716V201.74C18.62 202.17 18.6986 202.538 18.8556 202.846C19.0127 203.151 19.2322 203.385 19.5143 203.548C19.7963 203.708 20.1265 203.788 20.5047 203.788C20.7579 203.788 20.987 203.753 21.1922 203.683C21.3973 203.609 21.5752 203.502 21.7258 203.361C21.8765 203.22 21.9902 203.045 22.0672 202.837L23.6922 203.019C23.5896 203.449 23.3941 203.824 23.1056 204.144C22.8204 204.462 22.455 204.708 22.0095 204.885C21.564 205.058 21.0543 205.144 20.4806 205.144ZM28.4578 205.144C27.7206 205.144 27.0876 204.982 26.5587 204.659C26.0331 204.335 25.6277 203.888 25.3424 203.317C25.0603 202.744 24.9193 202.083 24.9193 201.337C24.9193 200.587 25.0635 199.925 25.352 199.351C25.6405 198.774 26.0475 198.325 26.5732 198.005C27.102 197.681 27.727 197.519 28.4482 197.519C29.0475 197.519 29.578 197.63 30.0395 197.851C30.5043 198.069 30.8744 198.378 31.1501 198.779C31.4257 199.176 31.5828 199.641 31.6212 200.173H29.9578C29.8905 199.817 29.7302 199.521 29.477 199.284C29.227 199.043 28.8921 198.923 28.4722 198.923C28.1164 198.923 27.8039 199.019 27.5347 199.212C27.2655 199.401 27.0555 199.673 26.9049 200.029C26.7575 200.385 26.6837 200.811 26.6837 201.308C26.6837 201.811 26.7575 202.244 26.9049 202.606C27.0523 202.965 27.2591 203.242 27.5251 203.437C27.7943 203.63 28.11 203.726 28.4722 203.726C28.7286 203.726 28.9578 203.678 29.1597 203.582C29.3648 203.482 29.5363 203.34 29.6741 203.154C29.8119 202.968 29.9065 202.742 29.9578 202.476H31.6212C31.5796 202.998 31.4257 203.462 31.1597 203.865C30.8937 204.266 30.5315 204.58 30.0732 204.808C29.6148 205.032 29.0764 205.144 28.4578 205.144ZM37.7571 201.894V197.615H39.4974V205H37.8099V203.687H37.733C37.5664 204.101 37.2923 204.439 36.9109 204.702C36.5327 204.965 36.0664 205.096 35.5119 205.096C35.0279 205.096 34.6 204.989 34.2282 204.774C33.8596 204.556 33.5712 204.24 33.3628 203.827C33.1545 203.41 33.0503 202.907 33.0503 202.317V197.615H34.7907V202.048C34.7907 202.516 34.9189 202.888 35.1753 203.163C35.4317 203.439 35.7683 203.577 36.1849 203.577C36.4414 203.577 36.6898 203.514 36.9301 203.389C37.1705 203.264 37.3676 203.079 37.5215 202.832C37.6785 202.582 37.7571 202.269 37.7571 201.894ZM44.9746 197.615V198.962H40.7294V197.615H44.9746ZM41.7775 195.846H43.5179V202.779C43.5179 203.013 43.5531 203.192 43.6236 203.317C43.6974 203.439 43.7935 203.522 43.9121 203.567C44.0307 203.612 44.1621 203.635 44.3063 203.635C44.4153 203.635 44.5147 203.627 44.6044 203.611C44.6974 203.595 44.7679 203.58 44.816 203.567L45.1092 204.928C45.0163 204.96 44.8833 204.995 44.7102 205.034C44.5403 205.072 44.332 205.095 44.0852 205.101C43.6493 205.114 43.2567 205.048 42.9073 204.904C42.5579 204.756 42.2807 204.529 42.0756 204.221C41.8736 203.913 41.7743 203.529 41.7775 203.067V195.846ZM46.4301 205V197.615H48.1705V205H46.4301ZM47.3051 196.567C47.0295 196.567 46.7923 196.476 46.5936 196.293C46.3949 196.107 46.2955 195.885 46.2955 195.625C46.2955 195.362 46.3949 195.139 46.5936 194.957C46.7923 194.771 47.0295 194.678 47.3051 194.678C47.584 194.678 47.8212 194.771 48.0167 194.957C48.2154 195.139 48.3148 195.362 48.3148 195.625C48.3148 195.885 48.2154 196.107 48.0167 196.293C47.8212 196.476 47.584 196.567 47.3051 196.567ZM53.1813 205.144C52.4602 205.144 51.8352 204.986 51.3063 204.668C50.7775 204.351 50.3672 203.907 50.0756 203.337C49.7871 202.766 49.6429 202.099 49.6429 201.337C49.6429 200.574 49.7871 199.905 50.0756 199.332C50.3672 198.758 50.7775 198.312 51.3063 197.995C51.8352 197.678 52.4602 197.519 53.1813 197.519C53.9025 197.519 54.5275 197.678 55.0563 197.995C55.5852 198.312 55.9938 198.758 56.2823 199.332C56.574 199.905 56.7198 200.574 56.7198 201.337C56.7198 202.099 56.574 202.766 56.2823 203.337C55.9938 203.907 55.5852 204.351 55.0563 204.668C54.5275 204.986 53.9025 205.144 53.1813 205.144ZM53.191 203.75C53.582 203.75 53.9089 203.643 54.1717 203.428C54.4345 203.21 54.6301 202.918 54.7583 202.553C54.8897 202.187 54.9554 201.78 54.9554 201.332C54.9554 200.88 54.8897 200.471 54.7583 200.106C54.6301 199.737 54.4345 199.444 54.1717 199.226C53.9089 199.008 53.582 198.899 53.191 198.899C52.7903 198.899 52.457 199.008 52.191 199.226C51.9281 199.444 51.731 199.737 51.5996 200.106C51.4714 200.471 51.4073 200.88 51.4073 201.332C51.4073 201.78 51.4714 202.187 51.5996 202.553C51.731 202.918 51.9281 203.21 52.191 203.428C52.457 203.643 52.7903 203.75 53.191 203.75ZM59.9374 200.673V205H58.197V197.615H59.8604V198.87H59.947C60.1168 198.457 60.3877 198.128 60.7595 197.885C61.1345 197.641 61.5976 197.519 62.1489 197.519C62.6585 197.519 63.1024 197.628 63.4806 197.846C63.862 198.064 64.1569 198.38 64.3652 198.793C64.5768 199.207 64.6809 199.708 64.6777 200.298V205H62.9374V200.567C62.9374 200.074 62.8091 199.687 62.5527 199.409C62.2995 199.13 61.9486 198.99 61.4999 198.99C61.1954 198.99 60.9245 199.058 60.6874 199.192C60.4534 199.324 60.2691 199.514 60.1345 199.764C60.0031 200.014 59.9374 200.317 59.9374 200.673Z" fill="black"/>
</svg>
